<svg width="14" height="14" viewBox="0 0 14 14" fill="none" xmlns="http://www.w3.org/2000/svg">
<path d="M7.53658 1.31843L11.3341 3.36593C11.7774 3.60509 11.7774 4.28759 11.3341 4.52676L7.53658 6.57426C7.19825 6.75509 6.80158 6.75509 6.46325 6.57426L2.66575 4.52676C2.22242 4.28759 2.22242 3.60509 2.66575 3.36593L6.46325 1.31843C6.80158 1.13759 7.19825 1.13759 7.53658 1.31843Z" stroke="#32BC9B" stroke-width="0.75" stroke-linecap="round" stroke-linejoin="round"/>
<path d="M2.10591 5.90931L5.63508 7.67681C6.07258 7.89847 6.35258 8.34764 6.35258 8.83764V12.1743C6.35258 12.6585 5.84508 12.9676 5.41341 12.7518L1.88425 10.9843C1.44675 10.7626 1.16675 10.3135 1.16675 9.82347V6.48681C1.16675 6.00264 1.67425 5.69347 2.10591 5.90931Z" stroke="#32BC9B" stroke-width="0.75" stroke-linecap="round" stroke-linejoin="round"/>
<path d="M11.8941 5.90931L8.36496 7.67681C7.92746 7.89847 7.64746 8.34764 7.64746 8.83764V12.1743C7.64746 12.6585 8.15496 12.9676 8.58663 12.7518L12.1158 10.9843C12.5533 10.7626 12.8333 10.3135 12.8333 9.82347V6.48681C12.8333 6.00264 12.3258 5.69347 11.8941 5.90931Z" stroke="#32BC9B" stroke-width="0.75" stroke-linecap="round" stroke-linejoin="round"/>
</svg>
