<svg width="16" height="16" viewBox="0 0 16 16" fill="none" xmlns="http://www.w3.org/2000/svg">
<path d="M14 4.66659V11.3333C14 13.3333 13 14.6666 10.6667 14.6666H5.33333C3 14.6666 2 13.3333 2 11.3333V4.66659C2 2.66659 3 1.33325 5.33333 1.33325H10.6667C13 1.33325 14 2.66659 14 4.66659Z" stroke="#32BC9B" stroke-miterlimit="10" stroke-linecap="round" stroke-linejoin="round"/>
<path d="M10.3346 1.33325V6.57324C10.3346 6.86658 9.98795 7.01324 9.77462 6.81991L8.22799 5.39327C8.10132 5.27327 7.90128 5.27327 7.77462 5.39327L6.22799 6.81991C6.01465 7.01324 5.66797 6.86658 5.66797 6.57324V1.33325H10.3346Z" stroke="#32BC9B" stroke-miterlimit="10" stroke-linecap="round" stroke-linejoin="round"/>
<path d="M8.83203 9.33325H11.6654" stroke="#32BC9B" stroke-miterlimit="10" stroke-linecap="round" stroke-linejoin="round"/>
<path d="M6 12H11.6667" stroke="#32BC9B" stroke-miterlimit="10" stroke-linecap="round" stroke-linejoin="round"/>
</svg>
