<svg width="16" height="16" viewBox="0 0 16 16" fill="none" xmlns="http://www.w3.org/2000/svg">
<path d="M2.84009 7.34651V10.6598C2.84009 11.8732 2.84009 11.8732 3.98675 12.6465L7.14009 14.4665C7.61342 14.7398 8.38675 14.7398 8.86009 14.4665L12.0134 12.6465C13.1601 11.8732 13.1601 11.8732 13.1601 10.6598V7.34651C13.1601 6.13317 13.1601 6.13317 12.0134 5.35984L8.86009 3.53984C8.38675 3.26651 7.61342 3.26651 7.14009 3.53984L3.98675 5.35984C2.84009 6.13317 2.84009 6.13317 2.84009 7.34651Z" stroke="#020A26" stroke-linecap="round" stroke-linejoin="round"/>
<path d="M11.6666 5.08671V3.33337C11.6666 2.00004 10.9999 1.33337 9.66659 1.33337H6.33325C4.99992 1.33337 4.33325 2.00004 4.33325 3.33337V5.04004" stroke="#020A26" stroke-linecap="round" stroke-linejoin="round"/>
<path d="M8.42018 7.32664L8.80018 7.91997C8.86018 8.01331 8.99351 8.10664 9.09351 8.13331L9.77351 8.30664C10.1935 8.41331 10.3068 8.77331 10.0335 9.10664L9.58685 9.64664C9.52018 9.73331 9.46685 9.88664 9.47351 9.99331L9.51351 10.6933C9.54018 11.1266 9.23351 11.3466 8.83351 11.1866L8.18018 10.9266C8.08018 10.8866 7.91351 10.8866 7.81351 10.9266L7.16018 11.1866C6.76018 11.3466 6.45351 11.12 6.48018 10.6933L6.52018 9.99331C6.52685 9.88664 6.47351 9.72664 6.40685 9.64664L5.96018 9.10664C5.68685 8.77331 5.80018 8.41331 6.22018 8.30664L6.90018 8.13331C7.00685 8.10664 7.14018 8.00664 7.19351 7.91997L7.57351 7.32664C7.81351 6.96664 8.18685 6.96664 8.42018 7.32664Z" stroke="#020A26" stroke-linecap="round" stroke-linejoin="round"/>
</svg>
