<svg width="14" height="14" viewBox="0 0 14 14" fill="none" xmlns="http://www.w3.org/2000/svg">
<path d="M7.58366 12.8337H2.91699C1.75033 12.8337 1.16699 12.2503 1.16699 11.0837V6.41699C1.16699 5.25033 1.75033 4.66699 2.91699 4.66699H5.83366V11.0837C5.83366 12.2503 6.41699 12.8337 7.58366 12.8337Z" stroke="#020A26" stroke-miterlimit="10" stroke-linecap="round" stroke-linejoin="round"/>
<path d="M5.89782 2.33301C5.85115 2.50801 5.83366 2.70051 5.83366 2.91634V4.66634H2.91699V3.49967C2.91699 2.85801 3.44199 2.33301 4.08366 2.33301H5.89782Z" stroke="#020A26" stroke-miterlimit="10" stroke-linecap="round" stroke-linejoin="round"/>
<path d="M8.16699 4.66699V7.58366" stroke="#020A26" stroke-miterlimit="10" stroke-linecap="round" stroke-linejoin="round"/>
<path d="M10.5 4.66699V7.58366" stroke="#020A26" stroke-miterlimit="10" stroke-linecap="round" stroke-linejoin="round"/>
<path d="M9.91699 9.91699H8.75033C8.42949 9.91699 8.16699 10.1795 8.16699 10.5003V12.8337H10.5003V10.5003C10.5003 10.1795 10.2378 9.91699 9.91699 9.91699Z" stroke="#020A26" stroke-miterlimit="10" stroke-linecap="round" stroke-linejoin="round"/>
<path d="M3.5 7.58301V9.91634" stroke="#020A26" stroke-miterlimit="10" stroke-linecap="round" stroke-linejoin="round"/>
<path d="M5.83301 11.0837V2.91699C5.83301 1.75033 6.41634 1.16699 7.58301 1.16699H11.083C12.2497 1.16699 12.833 1.75033 12.833 2.91699V11.0837C12.833 12.2503 12.2497 12.8337 11.083 12.8337H7.58301C6.41634 12.8337 5.83301 12.2503 5.83301 11.0837Z" stroke="#020A26" stroke-miterlimit="10" stroke-linecap="round" stroke-linejoin="round"/>
</svg>
