<svg width="263" height="94" viewBox="0 0 263 94" fill="none" xmlns="http://www.w3.org/2000/svg">
<path d="M133.998 51.9882C148.354 51.9882 159.992 40.3502 159.992 25.9941C159.992 11.638 148.354 0 133.998 0C119.642 0 108.004 11.638 108.004 25.9941C108.004 40.3502 119.642 51.9882 133.998 51.9882Z" fill="#32BC9B"/>
<path d="M192.106 51.9882C206.463 51.9882 218.101 40.3502 218.101 25.9941C218.101 11.638 206.463 0 192.106 0C177.75 0 166.112 11.638 166.112 25.9941C166.112 40.3502 177.75 51.9882 192.106 51.9882Z" fill="#32BC9B"/>
<path d="M101.883 0H49.9199V51.9634H101.883V0Z" fill="#32BC9B"/>
<path d="M0.0149551 72.0401C-0.0670181 73.6756 0.192208 75.3102 0.776151 76.84C1.36009 78.3698 2.25598 79.7613 3.40683 80.9262C4.55769 82.091 5.93834 83.0036 7.46099 83.606C8.98364 84.2084 10.615 84.4873 12.2513 84.4251C14.8638 84.5681 17.4448 83.7984 19.5522 82.2479C21.6597 80.6973 23.1626 78.4623 23.8036 75.9256H17.2915C16.8473 76.8934 16.1251 77.7071 15.217 78.2631C14.3088 78.8192 13.2557 79.0923 12.1918 79.0479C8.54915 79.0479 6.05629 76.3419 6.05629 72.0401C6.05629 67.7384 8.54915 65.0324 12.1918 65.0324C13.2546 64.9871 14.3069 65.2588 15.215 65.813C16.123 66.3672 16.8458 67.1788 17.2915 68.1447H23.8136C23.1724 65.6043 21.6689 63.3654 19.56 61.8106C17.4511 60.2558 14.8677 59.4817 12.2513 59.6205C10.6131 59.5624 8.98071 59.8454 7.45765 60.4515C5.9346 61.0575 4.55408 61.9734 3.40364 63.1411C2.25319 64.3088 1.35792 65.7028 0.774582 67.2347C0.191244 68.7666 -0.0674321 70.403 0.0149551 72.0401ZM27.4562 84.2517H33.3885V58.5797H27.4562V84.2517ZM37.6903 84.2517H43.6226V64.8936H37.6903V84.2517ZM40.6639 62.8815C41.1062 62.9139 41.5504 62.8559 41.9695 62.711C42.3887 62.5661 42.7739 62.3373 43.1017 62.0387C43.4296 61.7401 43.6932 61.3778 43.8765 60.974C44.0597 60.5701 44.1588 60.1332 44.1678 59.6898C44.1621 59.2442 44.0655 58.8043 43.8837 58.3973C43.702 57.9904 43.439 57.6248 43.1109 57.3231C42.7828 57.0215 42.3964 56.7901 41.9757 56.6431C41.5549 56.4961 41.1085 56.4367 40.6639 56.4685C40.2169 56.4336 39.7675 56.4906 39.3434 56.636C38.9193 56.7814 38.5295 57.0121 38.1979 57.3139C37.8664 57.6157 37.6002 57.9822 37.4157 58.3909C37.2312 58.7995 37.1324 59.2416 37.1253 59.6898C37.1353 60.1368 37.2366 60.5771 37.4231 60.9834C37.6096 61.3898 37.8773 61.7537 38.2097 62.0527C38.5421 62.3517 38.9322 62.5794 39.356 62.722C39.7798 62.8645 40.2282 62.9188 40.6738 62.8815H40.6639ZM56.4487 69.3689C56.911 69.328 57.3768 69.3837 57.8164 69.5324C58.2561 69.6812 58.66 69.9197 59.0025 70.2329C59.3451 70.5461 59.6187 70.927 59.8062 71.3516C59.9936 71.7762 60.0907 72.2352 60.0913 72.6993H52.6573C52.7436 71.7628 53.186 70.8952 53.8934 70.2755C54.6007 69.6558 55.5189 69.3313 56.4586 69.3689H56.4487ZM65.7213 77.8337H59.4074C59.1464 78.4245 58.7104 78.9209 58.1582 79.2559C57.606 79.591 56.9643 79.7484 56.3198 79.707C55.8301 79.7195 55.3431 79.6316 54.8886 79.4488C54.4342 79.2659 54.022 78.9919 53.6775 78.6436C53.333 78.2954 53.0634 77.8803 52.8854 77.4239C52.7074 76.9676 52.6247 76.4796 52.6425 75.9901H66.0682C66.1364 75.4144 66.1712 74.8352 66.1723 74.2555C66.2484 72.9691 66.0511 71.6812 65.5933 70.4766C65.1356 69.272 64.4278 68.178 63.5166 67.2668C62.6054 66.3556 61.5115 65.6478 60.3069 65.1901C59.1023 64.7323 57.8144 64.535 56.528 64.6111C55.2088 64.5386 53.8894 64.748 52.6576 65.2255C51.4257 65.7029 50.3098 66.4374 49.3841 67.3799C48.4584 68.3225 47.7442 69.4515 47.2892 70.6918C46.8341 71.932 46.6485 73.2551 46.7449 74.5726C46.6549 75.8885 46.8449 77.2086 47.3024 78.4457C47.7598 79.6828 48.4743 80.8088 49.3987 81.7496C50.3231 82.6904 51.4365 83.4246 52.6654 83.9037C53.8942 84.3828 55.2107 84.596 56.528 84.5292C58.595 84.6331 60.6353 84.0251 62.3083 82.8066C63.9813 81.5882 65.1859 79.8329 65.7213 77.8337ZM82.6509 84.2517H88.5485V72.9421C88.5485 67.7384 85.575 64.6855 81.0898 64.6855C79.9623 64.649 78.8424 64.8818 77.8228 65.3644C76.8032 65.847 75.9133 66.5657 75.2269 67.4608V64.8936H69.2946V84.2517H75.2269V73.74C75.1533 73.2175 75.1956 72.6851 75.3509 72.1807C75.5061 71.6763 75.7706 71.2122 76.1253 70.8215C76.4801 70.4308 76.9165 70.123 77.4036 69.9199C77.8908 69.7168 78.4166 69.6234 78.9438 69.6464C79.4711 69.6234 79.997 69.7168 80.4841 69.9199C80.9712 70.123 81.4076 70.4308 81.7624 70.8215C82.1171 71.2122 82.3816 71.6763 82.5368 72.1807C82.6921 72.6851 82.7344 73.2175 82.6608 73.74L82.6509 84.2517ZM93.6135 77.5215C93.6135 82.5518 96.4236 84.2517 100.448 84.2517H103.466V79.2214H101.35C100.032 79.2214 99.5459 78.7258 99.5459 77.5908V69.8199H103.441V64.8936H99.5459V60.1854H93.6135V64.8936H91.2545V69.8199H93.6135V77.5215ZM106.762 84.2517H112.694V58.5797H106.762V84.2517ZM135.938 74.5726C135.996 73.2406 135.775 71.911 135.289 70.6695C134.803 69.428 134.062 68.302 133.114 67.3641C132.167 66.4262 131.033 65.6971 129.787 65.2238C128.54 64.7506 127.208 64.5435 125.877 64.6161C124.546 64.5462 123.216 64.7551 121.97 65.2294C120.725 65.7036 119.593 66.4328 118.645 67.3701C117.698 68.3075 116.957 69.4323 116.47 70.6726C115.983 71.9129 115.76 73.2413 115.816 74.5726C115.75 75.9007 115.963 77.2279 116.442 78.4683C116.921 79.7087 117.655 80.8346 118.597 81.7732C119.539 82.7118 120.668 83.4422 121.91 83.9169C123.152 84.3917 124.48 84.6003 125.808 84.5292C127.143 84.6033 128.478 84.3979 129.729 83.9261C130.98 83.4542 132.119 82.7264 133.073 81.7892C134.026 80.852 134.773 79.726 135.267 78.4834C135.76 77.2407 135.989 75.9087 135.938 74.5726ZM121.853 74.5726C121.853 71.2769 123.726 69.7505 125.877 69.7505C127.958 69.7505 129.901 71.2769 129.901 74.5726C129.984 75.1642 129.94 75.7665 129.774 76.3401C129.607 76.9137 129.321 77.4457 128.935 77.901C128.548 78.3563 128.07 78.7248 127.531 78.9823C126.992 79.2397 126.405 79.3803 125.808 79.3948C123.657 79.3948 121.853 77.8337 121.853 74.5726ZM137.915 74.538C137.915 80.6437 141.696 84.5292 146.449 84.5292C147.622 84.5745 148.787 84.3175 149.832 83.7829C150.877 83.2483 151.767 82.454 152.416 81.4763V84.217C152.416 87.478 150.647 88.6575 148.392 88.6575C147.569 88.7594 146.735 88.5779 146.029 88.1428C145.323 87.7077 144.786 87.0449 144.506 86.2638H138.644C139.164 90.8778 142.911 93.7919 148.669 93.7919C149.96 93.9059 151.26 93.7374 152.479 93.298C153.698 92.8586 154.807 92.159 155.728 91.2477C156.649 90.3364 157.361 89.2354 157.813 88.0212C158.266 86.8071 158.449 85.5089 158.349 84.217V64.8887H152.416V67.6293C151.773 66.6481 150.883 65.853 149.836 65.3234C148.789 64.7937 147.621 64.5481 146.449 64.6111C141.696 64.6161 137.915 68.4322 137.915 74.538ZM152.416 74.5726C152.481 75.1706 152.421 75.7755 152.238 76.3487C152.056 76.9219 151.756 77.4507 151.358 77.9014C150.959 78.352 150.471 78.7145 149.925 78.9657C149.378 79.2169 148.785 79.3512 148.184 79.3601C147.582 79.3439 146.989 79.2034 146.444 78.9475C145.899 78.6916 145.412 78.3259 145.015 77.8732C144.617 77.4204 144.318 76.8905 144.135 76.3166C143.952 75.7427 143.889 75.1371 143.951 74.538C143.89 73.9423 143.953 73.3404 144.137 72.7706C144.321 72.2007 144.621 71.6754 145.02 71.2283C145.418 70.7811 145.905 70.4218 146.45 70.1733C146.994 69.9249 147.585 69.7927 148.184 69.7852C148.785 69.7941 149.378 69.9284 149.925 70.1796C150.471 70.4308 150.959 70.7933 151.358 71.2439C151.756 71.6946 152.056 72.2234 152.238 72.7966C152.421 73.3698 152.481 73.9747 152.416 74.5726ZM181.592 74.5726C181.651 73.2406 181.43 71.911 180.944 70.6695C180.457 69.428 179.717 68.302 178.769 67.3641C177.821 66.4262 176.688 65.6971 175.441 65.2238C174.195 64.7506 172.863 64.5435 171.531 64.6161C170.201 64.5462 168.87 64.7551 167.625 65.2294C166.379 65.7036 165.247 66.4328 164.3 67.3701C163.353 68.3075 162.612 69.4323 162.125 70.6726C161.637 71.9129 161.415 73.2413 161.471 74.5726C161.404 75.9007 161.618 77.2279 162.097 78.4683C162.576 79.7087 163.31 80.8346 164.252 81.7732C165.194 82.7118 166.322 83.4422 167.564 83.9169C168.806 84.3917 170.134 84.6003 171.462 84.5292C172.797 84.6033 174.133 84.3979 175.384 83.9261C176.635 83.4542 177.773 82.7264 178.727 81.7892C179.681 80.852 180.428 79.726 180.921 78.4834C181.415 77.2407 181.643 75.9087 181.592 74.5726ZM167.507 74.5726C167.507 71.2769 169.381 69.7505 171.531 69.7505C173.613 69.7505 175.556 71.2769 175.556 74.5726C175.638 75.1642 175.595 75.7665 175.428 76.3401C175.262 76.9137 174.976 77.4457 174.589 77.901C174.203 78.3563 173.724 78.7248 173.185 78.9823C172.646 79.2397 172.059 79.3803 171.462 79.3948C169.311 79.3948 167.507 77.8337 167.507 74.5726ZM184.749 84.2517H190.681V73.74C190.608 73.2175 190.65 72.6851 190.805 72.1807C190.961 71.6763 191.225 71.2122 191.58 70.8215C191.935 70.4308 192.371 70.123 192.858 69.9199C193.345 69.7168 193.871 69.6234 194.398 69.6464C194.926 69.6234 195.451 69.7168 195.939 69.9199C196.426 70.123 196.862 70.4308 197.217 70.8215C197.572 71.2122 197.836 71.6763 197.991 72.1807C198.147 72.6851 198.189 73.2175 198.115 73.74V84.2517H204.013V72.9421C204.013 67.7384 201.064 64.6855 196.658 64.6855C195.511 64.6395 194.37 64.8709 193.331 65.3601C192.292 65.8493 191.387 66.5818 190.691 67.4955V58.5748H184.749V84.2517ZM216.666 69.3689C217.128 69.328 217.594 69.3837 218.033 69.5324C218.473 69.6812 218.877 69.9197 219.219 70.2329C219.562 70.5461 219.836 70.927 220.023 71.3516C220.21 71.7762 220.308 72.2352 220.308 72.6993H212.874C212.96 71.7646 213.401 70.8985 214.107 70.279C214.812 69.6596 215.728 69.3339 216.666 69.3689ZM225.928 77.8337H219.614C219.353 78.4245 218.917 78.9209 218.365 79.2559C217.813 79.591 217.171 79.7484 216.527 79.707C216.037 79.7195 215.55 79.6316 215.096 79.4488C214.641 79.2659 214.229 78.9919 213.884 78.6436C213.54 78.2954 213.27 77.8803 213.092 77.4239C212.914 76.9676 212.832 76.4796 212.849 75.9901H226.275C226.343 75.4144 226.378 74.8352 226.379 74.2555C226.455 72.9695 226.257 71.6821 225.799 70.4781C225.341 69.2741 224.633 68.1808 223.722 67.2701C222.81 66.3595 221.717 65.6521 220.513 65.1947C219.308 64.7372 218.021 64.54 216.735 64.6161C215.416 64.5436 214.097 64.7529 212.866 65.2301C211.634 65.7072 210.519 66.4412 209.593 67.3833C208.667 68.3253 207.953 69.4537 207.498 70.6933C207.042 71.933 206.856 73.2555 206.952 74.5726C206.862 75.8885 207.052 77.2086 207.509 78.4457C207.967 79.6828 208.681 80.8088 209.606 81.7496C210.53 82.6904 211.643 83.4246 212.872 83.9037C214.101 84.3828 215.418 84.596 216.735 84.5292C218.802 84.6331 220.842 84.0251 222.515 82.8066C224.188 81.5882 225.393 79.8329 225.928 77.8337ZM235.434 75.2665C235.434 71.9361 237.064 70.9647 239.874 70.9647H241.505V64.6756C240.285 64.6882 239.088 65.0099 238.027 65.6105C236.965 66.2111 236.073 67.0711 235.434 68.1101V64.8887H229.501V84.2517H235.434V75.2665ZM252.884 69.3689C253.346 69.328 253.812 69.3837 254.252 69.5324C254.691 69.6812 255.095 69.9197 255.438 70.2329C255.78 70.5461 256.054 70.927 256.241 71.3516C256.429 71.7762 256.526 72.2352 256.526 72.6993H249.092C249.179 71.7646 249.62 70.8985 250.325 70.279C251.03 69.6596 251.946 69.3339 252.884 69.3689ZM262.147 77.8337H255.838C255.577 78.4245 255.141 78.9209 254.588 79.2559C254.036 79.591 253.395 79.7484 252.75 79.707C252.26 79.7195 251.773 79.6316 251.319 79.4488C250.864 79.2659 250.452 78.9919 250.108 78.6436C249.763 78.2954 249.494 77.8803 249.316 77.4239C249.138 76.9676 249.055 76.4796 249.073 75.9901H262.498C262.567 75.4144 262.601 74.8352 262.602 74.2555C262.679 72.9691 262.481 71.6812 262.024 70.4766C261.566 69.272 260.858 68.178 259.947 67.2668C259.036 66.3556 257.942 65.6478 256.737 65.1901C255.532 64.7323 254.245 64.535 252.958 64.6111C251.639 64.5387 250.32 64.748 249.089 65.2251C247.858 65.7023 246.742 66.4363 245.816 67.3783C244.891 68.3203 244.176 69.4487 243.721 70.6884C243.266 71.928 243.079 73.2505 243.175 74.5677C243.084 75.8835 243.274 77.2037 243.731 78.441C244.187 79.6783 244.901 80.8048 245.825 81.7461C246.749 82.6873 247.862 83.4221 249.091 83.9018C250.319 84.3815 251.636 84.5954 252.953 84.5292C255.02 84.6331 257.06 84.0251 258.733 82.8066C260.406 81.5882 261.611 79.8329 262.147 77.8337Z" fill="#32BC9B"/>
</svg>
