<svg width="18" height="18" viewBox="0 0 18 18" fill="none" xmlns="http://www.w3.org/2000/svg">
<path d="M6.06885 8.74707H11.0608" stroke="#32BC9B" stroke-width="1.0697" stroke-miterlimit="10" stroke-linecap="round" stroke-linejoin="round"/>
<path d="M6.06885 11.5996H9.19236" stroke="#32BC9B" stroke-width="1.0697" stroke-miterlimit="10" stroke-linecap="round" stroke-linejoin="round"/>
<path d="M7.49511 4.32518H10.3476C11.7739 4.32518 11.7739 3.61205 11.7739 2.89892C11.7739 1.47266 11.0608 1.47266 10.3476 1.47266H7.49511C6.78198 1.47266 6.06885 1.47266 6.06885 2.89892C6.06885 4.32518 6.78198 4.32518 7.49511 4.32518Z" stroke="#32BC9B" stroke-width="1.0697" stroke-miterlimit="10" stroke-linecap="round" stroke-linejoin="round"/>
<path d="M11.7736 2.91309C14.1484 3.04145 15.3393 3.9186 15.3393 7.17761V11.4564C15.3393 14.3089 14.6262 15.7352 11.0605 15.7352H6.78172C3.21606 15.7352 2.50293 14.3089 2.50293 11.4564V7.17761C2.50293 3.92573 3.69386 3.04145 6.06859 2.91309" stroke="#32BC9B" stroke-width="1.0697" stroke-miterlimit="10" stroke-linecap="round" stroke-linejoin="round"/>
</svg>
