<svg width="6" height="6" viewBox="0 0 6 6" fill="none" xmlns="http://www.w3.org/2000/svg">
<path d="M5.6229 0.964624C5.78513 0.802391 5.78513 0.539358 5.6229 0.377124V0.377124C5.46066 0.21489 5.19763 0.21489 5.0354 0.377124L2.99998 2.41254L0.964563 0.377124C0.80233 0.214891 0.539297 0.21489 0.377063 0.377124V0.377124C0.214829 0.539358 0.214829 0.80239 0.377063 0.964624L2.41248 3.00004L0.377063 5.03546C0.21483 5.19769 0.214829 5.46073 0.377063 5.62296V5.62296C0.539297 5.78519 0.802329 5.78519 0.964563 5.62296L2.99998 3.58754L5.0354 5.62296C5.19763 5.78519 5.46066 5.78519 5.6229 5.62296V5.62296C5.78513 5.46073 5.78513 5.19769 5.6229 5.03546L3.58748 3.00004L5.6229 0.964624Z" fill="#FE0000"/>
</svg>
