<svg width="13" height="14" viewBox="0 0 13 14" fill="none" xmlns="http://www.w3.org/2000/svg">
<path d="M12.5486 11.4586L8.2965 6.90749L12.5486 2.35641C12.7904 2.09754 12.9263 1.74644 12.9263 1.38035C12.9263 1.01426 12.7904 0.663161 12.5486 0.404295C12.3067 0.145429 11.9787 2.7276e-09 11.6366 0C11.2946 -2.7276e-09 10.9666 0.145429 10.7247 0.404295L6.47265 4.95537L2.22057 0.404295C2.10082 0.276117 1.95865 0.174442 1.80218 0.105072C1.64571 0.0357033 1.478 3.57327e-09 1.30864 0C1.13928 -3.57327e-09 0.971581 0.0357033 0.815112 0.105072C0.658643 0.174442 0.516472 0.276117 0.396716 0.404295C0.276959 0.532472 0.181964 0.684642 0.117152 0.852114C0.0523404 1.01959 0.0189817 1.19908 0.0189817 1.38035C0.0189817 1.56162 0.0523404 1.74112 0.117152 1.90859C0.181964 2.07606 0.276959 2.22823 0.396716 2.35641L4.64879 6.90749L0.396716 11.4586C0.271544 11.5834 0.171725 11.7345 0.103474 11.9024C0.0352224 12.0703 0 12.2515 0 12.4346C0 12.6177 0.0352224 12.7989 0.103474 12.9668C0.171725 13.1347 0.271544 13.2858 0.396716 13.4107C0.515886 13.54 0.657868 13.6426 0.814416 13.7127C0.970964 13.7828 1.13896 13.8188 1.30864 13.8188C1.47833 13.8188 1.64633 13.7828 1.80287 13.7127C1.95942 13.6426 2.1014 13.54 2.22057 13.4107L6.47265 8.8596L10.7247 13.4107C10.9673 13.6681 11.295 13.8126 11.6366 13.8126C11.9783 13.8126 12.306 13.6681 12.5486 13.4107C12.6694 13.2831 12.7653 13.1312 12.8308 12.9636C12.8962 12.796 12.9299 12.6162 12.9299 12.4346C12.9299 12.253 12.8962 12.0732 12.8308 11.9056C12.7653 11.7381 12.6694 11.5861 12.5486 11.4586Z" fill="#32BC9B"/>
</svg>
