<svg width="14" height="14" viewBox="0 0 14 14" fill="none" xmlns="http://www.w3.org/2000/svg">
<path fill-rule="evenodd" clip-rule="evenodd" d="M5.25 7.58333C5.25 6.29467 6.29467 5.25 7.58333 5.25H10.5C11.7887 5.25 12.8333 6.29467 12.8333 7.58333V10.5C12.8333 11.7887 11.7887 12.8333 10.5 12.8333H7.58333C6.29467 12.8333 5.25 11.7887 5.25 10.5V7.58333ZM7.58333 6.41667C6.939 6.41667 6.41667 6.939 6.41667 7.58333V10.5C6.41667 11.1443 6.939 11.6667 7.58333 11.6667H10.5C11.1443 11.6667 11.6667 11.1443 11.6667 10.5V7.58333C11.6667 6.939 11.1443 6.41667 10.5 6.41667H7.58333Z" fill="white"/>
<path fill-rule="evenodd" clip-rule="evenodd" d="M1.16675 3.49996C1.16675 2.21129 2.21142 1.16663 3.50008 1.16663H6.41675C7.70541 1.16663 8.75008 2.21129 8.75008 3.49996V3.62149C8.75008 3.94365 8.48891 4.20482 8.16675 4.20482C7.84458 4.20482 7.58341 3.94365 7.58341 3.62149V3.49996C7.58341 2.85563 7.06108 2.33329 6.41675 2.33329H3.50008C2.85575 2.33329 2.33341 2.85563 2.33341 3.49996V6.41663C2.33341 7.06096 2.85575 7.58329 3.50008 7.58329H3.62161C3.94378 7.58329 4.20494 7.84446 4.20494 8.16663C4.20494 8.48879 3.94378 8.74996 3.62161 8.74996H3.50008C2.21142 8.74996 1.16675 7.70529 1.16675 6.41663V3.49996Z" fill="white"/>
</svg>
