<svg width="27" height="27" viewBox="0 0 27 27" fill="none" xmlns="http://www.w3.org/2000/svg">
<rect width="27" height="27" rx="4" fill="#C0FAEC"/>
<path d="M22.05 11.7001L21.2333 15.1834C20.5333 18.1918 19.15 19.4084 16.55 19.1584C16.1333 19.1251 15.6833 19.0501 15.2 18.9334L13.8 18.6001C10.325 17.7751 9.24999 16.0584 10.0667 12.5751L10.8833 9.08344C11.05 8.37511 11.25 7.75844 11.5 7.25011C12.475 5.23344 14.1333 4.69178 16.9167 5.35011L18.3083 5.67511C21.8 6.49178 22.8667 8.21677 22.05 11.7001Z" stroke="#32BC9B" stroke-width="1.5" stroke-linecap="round" stroke-linejoin="round"/>
<path d="M16.55 19.1584C16.0334 19.5084 15.3834 19.8001 14.5917 20.0584L13.275 20.4917C9.96671 21.5584 8.22504 20.6667 7.15004 17.3584L6.08337 14.0667C5.01671 10.7584 5.90004 9.00839 9.20837 7.94173L10.525 7.50839C10.8667 7.40006 11.1917 7.30839 11.5 7.25006C11.25 7.75839 11.05 8.37506 10.8834 9.08339L10.0667 12.5751C9.25004 16.0584 10.325 17.7751 13.8 18.6001L15.2 18.9334C15.6834 19.0501 16.1334 19.1251 16.55 19.1584Z" stroke="#32BC9B" stroke-width="1.5" stroke-linecap="round" stroke-linejoin="round"/>
<path d="M14.5334 10.1083L18.5751 11.1333" stroke="#32BC9B" stroke-width="1.5" stroke-linecap="round" stroke-linejoin="round"/>
<path d="M13.7166 13.3333L16.1332 13.9499" stroke="#32BC9B" stroke-width="1.5" stroke-linecap="round" stroke-linejoin="round"/>
</svg>
