<svg width="13" height="14" viewBox="0 0 13 14" fill="none" xmlns="http://www.w3.org/2000/svg">
<path fill-rule="evenodd" clip-rule="evenodd" d="M2.44991 1.75C1.98619 1.75 1.60995 2.16584 1.60995 2.67773V3.22376C1.60995 3.60294 1.74261 3.96759 1.9799 4.24186L4.5804 7.24752L4.58154 7.24563C5.08357 7.80429 5.36603 8.5595 5.36603 9.34693V12.0139C5.36603 12.1921 5.53757 12.3058 5.67995 12.2218L7.16088 11.3446C7.38445 11.2119 7.52396 10.954 7.52396 10.6741V9.33998C7.52396 8.55697 7.80243 7.80492 8.29988 7.24752L10.9004 4.24186C11.1371 3.96759 11.2698 3.60294 11.2698 3.22376V2.67773C11.2698 2.16584 10.8941 1.75 10.4304 1.75H2.44991Z" stroke="white" stroke-width="1.5" stroke-linecap="round" stroke-linejoin="round"/>
</svg>
