<svg width="14" height="14" viewBox="0 0 14 14" fill="none" xmlns="http://www.w3.org/2000/svg">
<path fill-rule="evenodd" clip-rule="evenodd" d="M3.50001 2.33332C2.85567 2.33332 2.33334 2.85566 2.33334 3.49999V10.5C2.33334 11.1443 2.85567 11.6667 3.50001 11.6667H10.5C11.1443 11.6667 11.6667 11.1443 11.6667 10.5V5.24999C11.6667 4.60566 11.1443 4.08332 10.5 4.08332H7.58334C7.03251 4.08332 6.51383 3.82398 6.18334 3.38332L5.57084 2.56666C5.46067 2.41977 5.28778 2.33332 5.10417 2.33332H3.50001ZM1.16667 3.49999C1.16667 2.21133 2.21134 1.16666 3.50001 1.16666H5.10417C5.655 1.16666 6.17368 1.426 6.50417 1.86666L7.11667 2.68332C7.22684 2.83021 7.39973 2.91666 7.58334 2.91666H10.5C11.7887 2.91666 12.8333 3.96133 12.8333 5.24999V10.5C12.8333 11.7887 11.7887 12.8333 10.5 12.8333H3.50001C2.21134 12.8333 1.16667 11.7887 1.16667 10.5V3.49999Z" fill="white"/>
<path fill-rule="evenodd" clip-rule="evenodd" d="M9.14896 6.57443C9.38399 6.79477 9.3959 7.16393 9.17556 7.39896L6.98806 9.73229C6.77908 9.9552 6.43351 9.97908 6.19586 9.78704L4.88336 8.72643C4.63278 8.52394 4.59379 8.15666 4.79628 7.90608C4.99877 7.6555 5.36605 7.61652 5.61663 7.81901L6.5076 8.53898L8.32443 6.60103C8.54477 6.36599 8.91393 6.35409 9.14896 6.57443Z" fill="white"/>
</svg>
