<svg xmlns="http://www.w3.org/2000/svg" width="14.092" height="13.334" viewBox="0 0 14.092 13.334">
  <g id="Group_1092" data-name="Group 1092" transform="translate(24265 11705)">
    <path id="Rectangle_13_Stroke_" data-name="Rectangle 13 (Stroke)" d="M3.139,1.667A1.373,1.373,0,0,0,1.73,3v8a1.373,1.373,0,0,0,1.409,1.333h8.455A1.373,1.373,0,0,0,13,11V5a1.373,1.373,0,0,0-1.409-1.333H8.071a2.157,2.157,0,0,1-1.691-.8l-.74-.933a.719.719,0,0,0-.564-.267ZM.32,3A2.746,2.746,0,0,1,3.139.333H5.077a2.157,2.157,0,0,1,1.691.8l.74.933a.719.719,0,0,0,.564.267h3.523A2.746,2.746,0,0,1,14.413,5v6a2.746,2.746,0,0,1-2.818,2.667H3.139A2.746,2.746,0,0,1,.32,11Z" transform="translate(-24265.32 -11705.333)" fill="#32bc9b" fill-rule="evenodd"/>
    <path id="Vector_Stroke_" data-name="Vector (Stroke)" d="M5.961.514a.642.642,0,0,1,.032.942L3.351,4.123a.734.734,0,0,1-.957.063L.809,2.973A.643.643,0,0,1,.7,2.035a.732.732,0,0,1,.991-.1l1.076.823L4.965.544A.733.733,0,0,1,5.961.514Z" transform="translate(-24261.547 -11700.333)" fill="#32bc9b" fill-rule="evenodd"/>
  </g>
</svg>
