<svg xmlns="http://www.w3.org/2000/svg" width="9.333" height="11.353" viewBox="0 0 9.333 11.353">
  <g id="Group_1" data-name="Group 1" transform="translate(-246 -335)">
    <path id="Rectangle_14_Stroke_" data-name="Rectangle 14 (Stroke)" d="M5.16,1.4a.583.583,0,0,0-.321,0l-2.917.833A.583.583,0,0,0,1.5,2.8V5.932A4.083,4.083,0,0,0,3.21,9.255l1.451,1.036a.583.583,0,0,0,.678,0L6.79,9.255A4.083,4.083,0,0,0,8.5,5.932V2.8a.583.583,0,0,0-.423-.561ZM4.519.281a1.75,1.75,0,0,1,.962,0L8.4,1.114A1.75,1.75,0,0,1,9.666,2.8V5.932a5.25,5.25,0,0,1-2.2,4.272L6.017,11.24a1.75,1.75,0,0,1-2.034,0L2.532,10.2a5.25,5.25,0,0,1-2.2-4.272V2.8A1.75,1.75,0,0,1,1.6,1.114Z" transform="translate(245.667 334.787)" fill="#32bc9b" fill-rule="evenodd"/>
    <path id="Vector_Stroke_" data-name="Vector (Stroke)" d="M5.149.824a.583.583,0,0,1,.027.825L2.988,3.982a.583.583,0,0,1-.792.055L.884,2.976a.583.583,0,0,1,.733-.907l.891.72L4.325.851A.583.583,0,0,1,5.149.824Z" transform="translate(247.666 338.333)" fill="#32bc9b" fill-rule="evenodd"/>
  </g>
</svg>
