<svg width="12" height="14" viewBox="0 0 12 14" fill="none" xmlns="http://www.w3.org/2000/svg">
<path fill-rule="evenodd" clip-rule="evenodd" d="M6.0628 1.91706C5.94485 1.88336 5.81983 1.88337 5.70189 1.91706L2.41758 2.85544C2.13558 2.93601 1.94117 3.19375 1.94117 3.48703V7.01731C1.94117 8.50225 2.6583 9.89578 3.86665 10.7589L5.50055 11.926C5.72894 12.0891 6.03575 12.0891 6.26414 11.926L7.89804 10.7589C9.10638 9.89578 9.82352 8.50225 9.82352 7.01731V3.48703C9.82352 3.19375 9.6291 2.93601 9.34711 2.85544L6.0628 1.91706ZM5.34098 0.653884C5.69481 0.552791 6.06988 0.55279 6.42371 0.653884L9.70802 1.59226C10.554 1.83397 11.1372 2.6072 11.1372 3.48703V7.01731C11.1372 8.92652 10.2152 10.7182 8.66162 11.8279L7.02772 12.995C6.34256 13.4844 5.42213 13.4844 4.73696 12.995L3.10306 11.8279C1.54947 10.7182 0.627441 8.92652 0.627441 7.01731V3.48703C0.627441 2.6072 1.21069 1.83397 2.05667 1.59226L5.34098 0.653884Z" fill="#32BC9B"/>
</svg>
