<svg width="13" height="13" viewBox="0 0 13 13" fill="none" xmlns="http://www.w3.org/2000/svg">
<path fill-rule="evenodd" clip-rule="evenodd" d="M2.9233 1.49609C2.28918 1.49609 1.77513 2.05485 1.77513 2.74412V10.2324C1.77513 10.9216 2.28918 11.4804 2.9233 11.4804H9.81233C10.4465 11.4804 10.9605 10.9216 10.9605 10.2324V4.85019C10.9605 4.16092 10.4465 3.60215 9.81233 3.60215H6.9823C6.40646 3.60215 5.86871 3.28933 5.54929 2.76852L4.93931 1.77396C4.83283 1.60036 4.65359 1.49609 4.46164 1.49609H2.9233ZM0.626953 2.74412C0.626953 1.36558 1.65506 0.248047 2.9233 0.248047H4.46164C5.03748 0.248047 5.57522 0.56087 5.89464 1.08167L6.50463 2.07624C6.6111 2.24984 6.79035 2.35411 6.9823 2.35411H9.81233C11.0806 2.35411 12.1087 3.47164 12.1087 4.85019V10.2324C12.1087 11.6109 11.0806 12.7284 9.81233 12.7284H2.9233C1.65506 12.7284 0.626953 11.6109 0.626953 10.2324V2.74412Z" fill="#32BC9B"/>
</svg>
