<svg width="10" height="10" viewBox="0 0 10 10" fill="none" xmlns="http://www.w3.org/2000/svg">
<path d="M9.08335 5.00002C9.08335 5.32219 8.82219 5.58335 8.50002 5.58335H5.58335V8.50002C5.58335 8.82219 5.32219 9.08335 5.00002 9.08335V9.08335C4.67785 9.08335 4.41669 8.82219 4.41669 8.50002V5.58335H1.50002C1.17785 5.58335 0.916687 5.32219 0.916687 5.00002V5.00002C0.916687 4.67785 1.17785 4.41669 1.50002 4.41669H4.41669V1.50002C4.41669 1.17785 4.67785 0.916687 5.00002 0.916687V0.916687C5.32219 0.916687 5.58335 1.17785 5.58335 1.50002V4.41669H8.50002C8.82219 4.41669 9.08335 4.67785 9.08335 5.00002V5.00002Z" fill="white"/>
</svg>
