<svg width="11" height="11" viewBox="0 0 11 11" fill="none" xmlns="http://www.w3.org/2000/svg">
<path fill-rule="evenodd" clip-rule="evenodd" d="M1.89856 1.04225C3.30917 0.571746 4.73463 1.45535 5.13058 2.88595C5.40038 3.86078 5.14486 4.88297 4.52179 5.58291C4.6494 5.74818 4.78884 5.90708 4.94022 6.05857C5.09086 6.20932 5.24881 6.34824 5.41304 6.47542C6.11274 5.84743 7.138 5.58904 8.11566 5.86002C9.54596 6.25648 10.4279 7.68304 9.95815 9.09359C9.64992 10.0191 9.07519 10.5814 8.30866 10.7665C7.59641 10.9385 6.82846 10.7557 6.15115 10.4741C4.78698 9.90702 3.43996 8.79001 2.82477 8.17436C2.19507 7.54418 1.08288 6.19521 0.52094 4.83362C0.241893 4.15748 0.062219 3.39239 0.234603 2.6834C0.420063 1.92064 0.979515 1.34878 1.89856 1.04225ZM4.00618 3.19714C3.76545 2.32734 2.96556 1.91621 2.2677 2.14898C1.65427 2.35357 1.44151 2.65771 1.36824 2.95904C1.2819 3.31415 1.35698 3.80122 1.59937 4.38854C2.08031 5.55387 3.07774 6.77699 3.65004 7.34971C4.20848 7.90857 5.4303 8.91099 6.59898 9.39681C7.18808 9.6417 7.67755 9.7187 8.03482 9.63243C8.3378 9.55927 8.64467 9.34526 8.85125 8.72495C9.08422 8.02545 8.67241 7.225 7.80403 6.9843C7.15776 6.80517 6.49332 7.01271 6.09788 7.43621C5.84253 7.70968 5.35578 7.86559 4.94164 7.57651C4.65026 7.37312 4.37352 7.14198 4.11495 6.88322C3.85597 6.62404 3.62474 6.34665 3.42131 6.05461C3.13407 5.64224 3.28734 5.15738 3.55883 4.90143C3.9792 4.50513 4.18469 3.84213 4.00618 3.19714Z" fill="#32BC9B"/>
</svg>
