<svg width="12" height="12" viewBox="0 0 12 12" fill="none" xmlns="http://www.w3.org/2000/svg">
<path fill-rule="evenodd" clip-rule="evenodd" d="M4.12158 6.58333C4.12158 5.29467 5.16625 4.25 6.45492 4.25H9.37158C10.6602 4.25 11.7049 5.29467 11.7049 6.58333V9.5C11.7049 10.7887 10.6602 11.8333 9.37158 11.8333H6.45492C5.16625 11.8333 4.12158 10.7887 4.12158 9.5V6.58333ZM6.45492 5.41667C5.81058 5.41667 5.28825 5.939 5.28825 6.58333V9.5C5.28825 10.1443 5.81058 10.6667 6.45492 10.6667H9.37158C10.0159 10.6667 10.5382 10.1443 10.5382 9.5V6.58333C10.5382 5.939 10.0159 5.41667 9.37158 5.41667H6.45492Z" fill="white"/>
<path fill-rule="evenodd" clip-rule="evenodd" d="M0.0382385 2.49999C0.0382385 1.21133 1.08291 0.166656 2.37157 0.166656H5.28824C6.5769 0.166656 7.62157 1.21133 7.62157 2.49999V2.62152C7.62157 2.94368 7.3604 3.20485 7.03824 3.20485C6.71607 3.20485 6.45491 2.94368 6.45491 2.62152V2.49999C6.45491 1.85566 5.93257 1.33332 5.28824 1.33332H2.37157C1.72724 1.33332 1.20491 1.85566 1.20491 2.49999V5.41666C1.20491 6.06099 1.72724 6.58332 2.37157 6.58332H2.4931C2.81527 6.58332 3.07643 6.84449 3.07643 7.16666C3.07643 7.48882 2.81527 7.74999 2.4931 7.74999H2.37157C1.08291 7.74999 0.0382385 6.70532 0.0382385 5.41666V2.49999Z" fill="white"/>
</svg>
