<svg width="11" height="11" viewBox="0 0 11 11" fill="none" xmlns="http://www.w3.org/2000/svg">
<path fill-rule="evenodd" clip-rule="evenodd" d="M1.8982 1.04237C3.30881 0.571868 4.73427 1.45547 5.13022 2.88607C5.40002 3.8609 5.1445 4.88309 4.52143 5.58303C4.64904 5.7483 4.78848 5.9072 4.93986 6.05869C5.0905 6.20944 5.24845 6.34836 5.41269 6.47554C6.11238 5.84755 7.13765 5.58916 8.1153 5.86014C9.54561 6.2566 10.4276 7.68317 9.95779 9.09371C9.64956 10.0192 9.07483 10.5815 8.3083 10.7666C7.59605 10.9386 6.8281 10.7558 6.15079 10.4742C4.78662 9.90714 3.4396 8.79013 2.82441 8.17448C2.19471 7.54431 1.08252 6.19534 0.520581 4.83374C0.241534 4.15761 0.0618604 3.39251 0.234245 2.68353C0.419705 1.92077 0.979156 1.3489 1.8982 1.04237ZM4.00583 3.19727C3.76509 2.32746 2.96521 1.91633 2.26734 2.1491C1.65391 2.3537 1.44115 2.65784 1.36788 2.95916C1.28154 3.31427 1.35662 3.80134 1.59901 4.38867C2.07995 5.554 3.07739 6.77711 3.64968 7.34983C4.20812 7.90869 5.42995 8.91112 6.59862 9.39693C7.18772 9.64182 7.67719 9.71882 8.03446 9.63255C8.33744 9.55939 8.64431 9.34538 8.85089 8.72507C9.08386 8.02558 8.67205 7.22512 7.80367 6.98442C7.1574 6.80529 6.49296 7.01283 6.09752 7.43633C5.84217 7.7098 5.35542 7.86571 4.94128 7.57663C4.6499 7.37324 4.37316 7.14211 4.11459 6.88334C3.85561 6.62417 3.62438 6.34677 3.42095 6.05473C3.13371 5.64236 3.28698 5.1575 3.55847 4.90155C3.97884 4.50525 4.18433 3.84225 4.00583 3.19727Z" fill="white"/>
</svg>
