<svg width="14" height="14" viewBox="0 0 14 14" fill="none" xmlns="http://www.w3.org/2000/svg">
<path fill-rule="evenodd" clip-rule="evenodd" d="M1.43317 4.66667C1.43317 3.05584 2.63451 1.75 4.11645 1.75H9.48302C10.965 1.75 12.1663 3.05584 12.1663 4.66667V9.91667C12.1663 11.5275 10.965 12.8333 9.48302 12.8333H4.11645C2.63451 12.8333 1.43317 11.5275 1.43317 9.91667V4.66667ZM4.11645 2.91667C3.22729 2.91667 2.50648 3.70017 2.50648 4.66667V9.91667C2.50648 10.8832 3.22729 11.6667 4.11645 11.6667H9.48302C10.3722 11.6667 11.093 10.8832 11.093 9.91667V4.66667C11.093 3.70017 10.3722 2.91667 9.48302 2.91667H4.11645Z" fill="white"/>
<path fill-rule="evenodd" clip-rule="evenodd" d="M4.65311 1.16666C4.9495 1.16666 5.18977 1.42782 5.18977 1.74999V3.49999C5.18977 3.82216 4.9495 4.08332 4.65311 4.08332C4.35672 4.08332 4.11646 3.82216 4.11646 3.49999V1.74999C4.11646 1.42782 4.35672 1.16666 4.65311 1.16666Z" fill="white"/>
<path fill-rule="evenodd" clip-rule="evenodd" d="M3.57983 5.83333C3.57983 5.51117 3.8201 5.25 4.11649 5.25H9.48306C9.77945 5.25 10.0197 5.51117 10.0197 5.83333C10.0197 6.1555 9.77945 6.41667 9.48306 6.41667H4.11649C3.8201 6.41667 3.57983 6.1555 3.57983 5.83333Z" fill="white"/>
<path fill-rule="evenodd" clip-rule="evenodd" d="M8.40973 9.91668C8.40973 9.59451 8.65 9.33334 8.94639 9.33334L9.48304 9.33334C9.77943 9.33334 10.0197 9.59451 10.0197 9.91668C10.0197 10.2388 9.77943 10.5 9.48304 10.5H8.94639C8.65 10.5 8.40973 10.2388 8.40973 9.91668Z" fill="white"/>
<path fill-rule="evenodd" clip-rule="evenodd" d="M8.94639 1.16666C9.24277 1.16666 9.48304 1.42782 9.48304 1.74999V3.49999C9.48304 3.82216 9.24277 4.08332 8.94639 4.08332C8.65 4.08332 8.40973 3.82216 8.40973 3.49999V1.74999C8.40973 1.42782 8.65 1.16666 8.94639 1.16666Z" fill="white"/>
</svg>
