<svg width="10" height="10" viewBox="0 0 10 10" fill="none" xmlns="http://www.w3.org/2000/svg">
<path d="M9.28071 1.35821C9.54548 1.09345 9.54548 0.664179 9.28071 0.399413V0.399413C9.01595 0.134648 8.58668 0.134648 8.32191 0.399414L5.00011 3.72121L1.67831 0.399414C1.41355 0.134649 0.984278 0.134648 0.719512 0.399413V0.399413C0.454747 0.664179 0.454747 1.09345 0.719512 1.35821L4.04131 4.68001L0.719513 8.00181C0.454748 8.26658 0.454747 8.69585 0.719512 8.96062V8.96062C0.984278 9.22538 1.41355 9.22538 1.67831 8.96061L5.00011 5.63881L8.32191 8.96061C8.58668 9.22538 9.01595 9.22538 9.28071 8.96062V8.96062C9.54548 8.69585 9.54548 8.26658 9.28071 8.00181L5.95891 4.68001L9.28071 1.35821Z" fill="#055C48"/>
</svg>
