<svg width="14" height="14" viewBox="0 0 14 14" fill="none" xmlns="http://www.w3.org/2000/svg">
<path fill-rule="evenodd" clip-rule="evenodd" d="M1.16667 4.66667C1.16667 3.05584 2.47251 1.75 4.08334 1.75H9.91667C11.5275 1.75 12.8333 3.05584 12.8333 4.66667V9.91667C12.8333 11.5275 11.5275 12.8333 9.91667 12.8333H4.08334C2.47251 12.8333 1.16667 11.5275 1.16667 9.91667V4.66667ZM4.08334 2.91667C3.11684 2.91667 2.33334 3.70017 2.33334 4.66667V9.91667C2.33334 10.8832 3.11684 11.6667 4.08334 11.6667H9.91667C10.8832 11.6667 11.6667 10.8832 11.6667 9.91667V4.66667C11.6667 3.70017 10.8832 2.91667 9.91667 2.91667H4.08334Z" fill="#32BC9B"/>
<path fill-rule="evenodd" clip-rule="evenodd" d="M4.66666 1.16663C4.98883 1.16663 5.25 1.42779 5.25 1.74996V3.49996C5.25 3.82212 4.98883 4.08329 4.66666 4.08329C4.3445 4.08329 4.08333 3.82212 4.08333 3.49996V1.74996C4.08333 1.42779 4.3445 1.16663 4.66666 1.16663Z" fill="#32BC9B"/>
<path fill-rule="evenodd" clip-rule="evenodd" d="M3.5 5.83333C3.5 5.51117 3.76117 5.25 4.08333 5.25H9.91667C10.2388 5.25 10.5 5.51117 10.5 5.83333C10.5 6.1555 10.2388 6.41667 9.91667 6.41667H4.08333C3.76117 6.41667 3.5 6.1555 3.5 5.83333Z" fill="#32BC9B"/>
<path fill-rule="evenodd" clip-rule="evenodd" d="M8.75 9.91671C8.75 9.59454 9.01117 9.33337 9.33333 9.33337L9.91667 9.33337C10.2388 9.33337 10.5 9.59454 10.5 9.91671C10.5 10.2389 10.2388 10.5 9.91667 10.5H9.33333C9.01117 10.5 8.75 10.2389 8.75 9.91671Z" fill="#32BC9B"/>
<path fill-rule="evenodd" clip-rule="evenodd" d="M9.33333 1.16663C9.6555 1.16663 9.91667 1.42779 9.91667 1.74996V3.49996C9.91667 3.82212 9.6555 4.08329 9.33333 4.08329C9.01117 4.08329 8.75 3.82212 8.75 3.49996V1.74996C8.75 1.42779 9.01117 1.16663 9.33333 1.16663Z" fill="#32BC9B"/>
</svg>
