<svg width="29" height="29" viewBox="0 0 29 29" fill="none" xmlns="http://www.w3.org/2000/svg">
<path opacity="0.196" d="M14.5 29C22.5081 29 29 22.5081 29 14.5C29 6.49187 22.5081 0 14.5 0C6.49187 0 0 6.49187 0 14.5C0 22.5081 6.49187 29 14.5 29Z" fill="#6C63FF"/>
<path d="M20.1669 8.02281H19.3569V6.40381H17.7379V8.02281H11.2619V6.40381H9.64287V8.02281H8.83287C8.40348 8.02281 7.99168 8.19338 7.68806 8.497C7.38444 8.80062 7.21387 9.21242 7.21387 9.64181V20.9758C7.21387 21.4052 7.38444 21.817 7.68806 22.1206C7.99168 22.4242 8.40348 22.5948 8.83287 22.5948H20.1669C20.5958 22.5935 21.0069 22.4225 21.3102 22.1192C21.6136 21.8158 21.7845 21.4048 21.7859 20.9758V9.64181C21.7845 9.21283 21.6136 8.8018 21.3102 8.49846C21.0069 8.19512 20.5958 8.02413 20.1669 8.02281ZM14.4999 10.4518C14.9803 10.4518 15.4499 10.5943 15.8493 10.8612C16.2488 11.1281 16.5601 11.5074 16.744 11.9513C16.9278 12.3951 16.9759 12.8835 16.8822 13.3547C16.7885 13.8259 16.5571 14.2587 16.2174 14.5984C15.8777 14.9381 15.4449 15.1694 14.9737 15.2631C14.5026 15.3569 14.0142 15.3088 13.5703 15.1249C13.1265 14.9411 12.7471 14.6297 12.4802 14.2303C12.2133 13.8308 12.0709 13.3612 12.0709 12.8808C12.0703 12.5617 12.1328 12.2456 12.2547 11.9506C12.3766 11.6557 12.5555 11.3877 12.7811 11.1621C13.0068 10.9364 13.2748 10.7575 13.5697 10.6356C13.8646 10.5138 14.1807 10.4513 14.4999 10.4518ZM19.3569 20.1668H9.64287V19.3568C9.64287 17.7378 12.8809 16.8468 14.4999 16.8468C16.1189 16.8468 19.3569 17.7378 19.3569 19.3568V20.1668Z" fill="#6C63FF"/>
</svg>
