<svg width="17" height="17" viewBox="0 0 17 17" fill="none" xmlns="http://www.w3.org/2000/svg">
<path fill-rule="evenodd" clip-rule="evenodd" d="M13.5811 2.375C13.3532 2.375 13.1345 2.46556 12.9733 2.62677L3.43765 12.1624C3.10123 12.4989 2.86257 12.9204 2.74718 13.3819L2.51831 14.2974L3.4338 14.0686C3.89536 13.9532 4.31688 13.7145 4.6533 13.3781L14.189 3.84241C14.2688 3.76259 14.3321 3.66783 14.3753 3.56354C14.4185 3.45925 14.4407 3.34748 14.4407 3.23459C14.4407 3.12171 14.4185 3.00993 14.3753 2.90564C14.3321 2.80135 14.2688 2.70659 14.189 2.62677C14.1091 2.54695 14.0144 2.48363 13.9101 2.44043C13.8058 2.39723 13.694 2.375 13.5811 2.375ZM11.7359 1.38933C12.2253 0.899938 12.889 0.625 13.5811 0.625C13.9238 0.625 14.2632 0.692499 14.5798 0.823643C14.8964 0.954788 15.1841 1.14701 15.4264 1.38933C15.6687 1.63165 15.861 1.91933 15.9921 2.23594C16.1232 2.55255 16.1907 2.8919 16.1907 3.23459C16.1907 3.57729 16.1232 3.91663 15.9921 4.23324C15.861 4.54985 15.6687 4.83753 15.4264 5.07985L5.89073 14.6155C5.33004 15.1762 4.6275 15.574 3.85823 15.7663L1.52796 16.3489C1.22978 16.4234 0.914353 16.3361 0.69702 16.1187C0.479687 15.9014 0.392319 15.586 0.466863 15.2878L1.04943 12.9575C1.24175 12.1882 1.63952 11.4857 2.20021 10.925L11.7359 1.38933Z" fill="#32BC9B"/>
<path fill-rule="evenodd" clip-rule="evenodd" d="M12.072 7.36866L9.44702 4.74366L10.6845 3.50623L13.3095 6.13123L12.072 7.36866Z" fill="#32BC9B"/>
</svg>
