<svg xmlns="http://www.w3.org/2000/svg" width="11.638" height="11.638" viewBox="0 0 11.638 11.638">
  <g id="Group_3" data-name="Group 3" transform="translate(-222 -324.862)">
    <path id="Ellipse_4_Stroke_" data-name="Ellipse 4 (Stroke)" d="M.417,1.333A1.119,1.119,0,0,1,1.647.2,5.833,5.833,0,0,1,6.8,5.353a1.119,1.119,0,0,1-1.131,1.23H1.584A1.167,1.167,0,0,1,.417,5.417Zm1.167.037V5.417H5.63A4.667,4.667,0,0,0,1.584,1.37Z" transform="translate(226.833 324.667)" fill="#32bc9b" fill-rule="evenodd"/>
    <path id="Ellipse_7_Stroke_" data-name="Ellipse 7 (Stroke)" d="M6,1.917A4.083,4.083,0,1,0,10.083,6H11.25A5.25,5.25,0,1,1,6,.75Z" transform="translate(221.25 325.25)" fill="#32bc9b" fill-rule="evenodd"/>
  </g>
</svg>
