<svg width="18" height="19" viewBox="0 0 18 19" fill="none" xmlns="http://www.w3.org/2000/svg">
<path d="M10.1012 4.00781V5.73359" stroke="#020A26" stroke-width="0.713131" stroke-linecap="round" stroke-linejoin="round"/>
<path d="M10.1012 13.6416V15.085" stroke="#020A26" stroke-width="0.713131" stroke-linecap="round" stroke-linejoin="round"/>
<path d="M10.1012 11.1929V7.75488" stroke="#020A26" stroke-width="0.713131" stroke-linecap="round" stroke-linejoin="round"/>
<path fill-rule="evenodd" clip-rule="evenodd" d="M13.5617 15.2402C14.8611 15.2402 15.9135 14.2008 15.9135 12.9176V11.0688C15.0537 11.0688 14.3612 10.385 14.3612 9.53586C14.3612 8.68675 15.0537 8.00218 15.9135 8.00218L15.9128 6.15264C15.9128 4.86943 14.8596 3.83008 13.5609 3.83008H4.00344C2.70481 3.83008 1.65162 4.86943 1.65162 6.15264L1.65088 8.06241C2.51068 8.06241 3.20314 8.68675 3.20314 9.53586C3.20314 10.385 2.51068 11.0688 1.65088 11.0688V12.9176C1.65088 14.2008 2.70332 15.2402 4.00269 15.2402H13.5617Z" stroke="#020A26" stroke-width="1.0697" stroke-linecap="round" stroke-linejoin="round"/>
</svg>
