<svg xmlns="http://www.w3.org/2000/svg" width="12.5" height="13.006" viewBox="0 0 12.5 13.006">
  <g id="Group_1" data-name="Group 1" transform="translate(-236 -343)">
    <path id="Vector_Stroke_" data-name="Vector (Stroke)" d="M2.509,1.667a.678.678,0,0,0-.676.673V5.917h1.5a1.014,1.014,0,0,0,.745-.26,1.014,1.014,0,0,0,.26-.745V3.5A1.83,1.83,0,0,0,2.509,1.667ZM.833,2.339A1.678,1.678,0,0,1,2.511.667h0A2.845,2.845,0,0,1,4.5,1.5l0,0h0a2.848,2.848,0,0,1,.827,2V4.912A2.006,2.006,0,0,1,4.78,6.363a2.006,2.006,0,0,1-1.452.553h-2a.5.5,0,0,1-.5-.5Z" transform="translate(243.167 342.333)" fill="#32bc9b" fill-rule="evenodd"/>
    <path id="Vector_Stroke_-1" data-name="Vector (Stroke)-1" d="M1.3,1.523A2.767,2.767,0,0,1,3.5.667h7a.5.5,0,0,1,0,1,.67.67,0,0,0-.667.667V12.25a1.085,1.085,0,0,1-1.731.868h0l-1-.751a.079.079,0,0,0-.1.01l-.98.98a1.088,1.088,0,0,1-1.535,0h0l-.967-.973h0A.088.088,0,0,0,3.4,12.37l-1,.745h0A1.081,1.081,0,0,1,.667,12.25V3.5A2.967,2.967,0,0,1,1.3,1.523Zm7.674.144H3.5a1.786,1.786,0,0,0-1.444.51A1.987,1.987,0,0,0,1.667,3.5v8.75a.082.082,0,0,0,.131.068l0,0,1-.746m6.175-9.9a1.654,1.654,0,0,0-.14.667V12.25a.074.074,0,0,1-.011.043.089.089,0,0,1-.035.03.091.091,0,0,1-.046.01.08.08,0,0,1-.043-.017h0L7.7,11.571a1.078,1.078,0,0,0-1.414.1l-.98.98a.088.088,0,0,1-.121,0h0" transform="translate(235.333 342.333)" fill="#32bc9b" fill-rule="evenodd"/>
  </g>
</svg>
