<svg width="124" height="119" viewBox="0 0 124 119" fill="none" xmlns="http://www.w3.org/2000/svg">
<path d="M40.4143 3.97745L0.564453 55.75L107.735 29.1081L48.0418 2.06429C46.7414 1.47405 45.2793 1.34188 43.8941 1.68932C42.5089 2.03677 41.2823 2.84333 40.4143 3.97745V3.97745Z" fill="#EBEBEB"/>
<path d="M0 56.1183L40.2392 3.84756C41.1366 2.67218 42.4073 1.83735 43.8424 1.48049C45.2775 1.12363 46.7913 1.266 48.1346 1.88416L108.418 29.1917L0 56.1183ZM45.4219 1.69578C44.4858 1.69641 43.5626 1.91367 42.7245 2.33055C41.8864 2.74743 41.1561 3.35261 40.5908 4.09874V4.09874L1.12613 55.3857L107.066 29.0494L47.9546 2.25675C47.1586 1.89789 46.295 1.71375 45.4219 1.71671V1.69578Z" fill="#E0E0E0"/>
<path d="M0.5625 55.752L108.11 29.017L122.6 87.3046C122.887 88.4586 122.703 89.6793 122.09 90.6981C121.477 91.717 120.484 92.4505 119.33 92.7374L20.4848 117.309C19.3308 117.596 18.1101 117.413 17.0913 116.799C16.0724 116.186 15.3389 115.194 15.052 114.04L0.5625 55.752Z" fill="#F0F0F0"/>
<path d="M101.49 32.2099L64.2312 70.2764L7.91639 57.6001L1.47359 27.7305C1.11703 26.1898 1.38021 24.5706 2.20639 23.2221C3.03257 21.8736 4.35558 20.9037 5.89019 20.5216L87.3566 0.272264C88.1246 0.0806676 88.9229 0.0424245 89.7057 0.159724C90.4886 0.277023 91.2406 0.547561 91.9187 0.955853C92.5969 1.36414 93.1879 1.90217 93.6578 2.53914C94.1278 3.17611 94.4675 3.89951 94.6576 4.66793L101.49 32.2099Z" fill="white"/>
<path d="M59.1147 67.2835L14.8691 113.518C15.0254 114.146 15.304 114.738 15.689 115.259C16.074 115.78 16.5579 116.22 17.1131 116.554C17.6683 116.888 18.2838 117.109 18.9245 117.205C19.5652 117.301 20.2186 117.27 20.8472 117.114L118.933 92.7281C120.202 92.4126 121.294 91.606 121.968 90.4857C122.643 89.3655 122.845 88.0233 122.529 86.7542L122.437 86.3858L64.582 65.9774C63.6418 65.6451 62.6255 65.5915 61.6555 65.8233C60.6856 66.055 59.8032 66.5621 59.1147 67.2835V67.2835Z" fill="#E0E0E0"/>
<path d="M44.9799 24.9314L13.1094 32.8599L13.9189 36.1139L45.7894 28.1855L44.9799 24.9314Z" fill="#E0E0E0"/>
<path d="M85.8725 23.5191L15.1602 41.1104L16.0748 44.7869L86.7871 27.1957L85.8725 23.5191Z" fill="#E0E0E0"/>
<path d="M88.1088 32.5015L17.3965 50.0928L18.3111 53.7694L89.0235 36.1781L88.1088 32.5015Z" fill="#E0E0E0"/>
<path d="M89.5961 44.4049L87.3815 46.6194L28.0191 62.1382L20.2618 60.3255L19.9688 59.4841L90.4543 41.9517L90.7599 43.1699L89.5961 44.4049Z" fill="#E0E0E0"/>
<path d="M74.4125 59.8737L47.6701 66.5216L39.4941 64.6545L79.4612 54.7119L74.4125 59.8737Z" fill="#E0E0E0"/>
<path d="M57.4989 68.9663C57.4989 68.9663 57.4696 69.0124 57.3984 69.0919L57.0802 69.4394L55.8495 70.7581L51.2905 75.5849C47.4307 79.6499 42.0806 85.268 36.1569 91.4261C30.2332 97.5842 24.7909 103.11 20.8223 107.07C18.8379 109.051 17.222 110.65 16.1001 111.742L14.8065 112.998L14.4632 113.321C14.4274 113.361 14.3866 113.396 14.3418 113.425C14.3727 113.382 14.4078 113.341 14.4465 113.304L14.773 112.965L16.0289 111.68L20.705 106.962C24.6444 102.972 30.0574 97.4335 35.9936 91.2712C41.9298 85.1089 47.2967 79.5494 51.1691 75.4761L55.7741 70.6995L57.03 69.4101L57.3649 69.0793C57.457 68.9998 57.4989 68.9663 57.4989 68.9663Z" fill="#FAFAFA"/>
<path d="M122.438 86.3775C122.417 86.4361 110.08 82.1534 94.8835 76.8116C79.6871 71.4699 67.3834 67.0909 67.4043 67.0323C67.4253 66.9737 79.7624 71.2522 94.9589 76.594C110.155 81.9357 122.459 86.3147 122.438 86.3775Z" fill="#FAFAFA"/>
<path d="M103.26 30.3765C103.237 30.4138 103.21 30.4488 103.181 30.4811L102.946 30.77L101.954 31.871L98.2576 35.8857C95.1262 39.2641 90.764 43.8942 85.8744 48.9471C80.9847 54 76.4718 58.5087 73.1981 61.749L69.3006 65.5669L68.2289 66.5926L67.9484 66.8563C67.8814 66.9149 67.8479 66.9442 67.8438 66.94C67.8703 66.9042 67.8997 66.8707 67.9317 66.8396L68.1954 66.5591L69.2378 65.5041L73.0809 61.6359C76.3295 58.3664 80.7963 53.8368 85.686 48.788C90.5756 43.7393 94.9546 39.1427 98.1194 35.7936L101.866 31.8291L102.892 30.7574L103.164 30.4811C103.192 30.4424 103.224 30.4073 103.26 30.3765Z" fill="#FAFAFA"/>
<path d="M57.4988 68.9664C57.4492 68.9637 57.4 68.9552 57.3523 68.9413L56.9337 68.8408L55.2591 68.4222C53.8274 68.0622 51.7468 67.5556 49.1722 66.9528C44.0271 65.7346 36.8894 64.1647 29.0023 62.4567C21.1152 60.7486 13.9817 59.1536 8.84505 57.8935C6.27463 57.2656 4.1982 56.7381 2.77066 56.353L1.12542 55.905L0.706787 55.7836C0.657349 55.7732 0.609497 55.7563 0.564453 55.7334L0.710975 55.7627L1.12961 55.859L2.80415 56.2776C4.24007 56.6376 6.32068 57.14 8.89529 57.747C14.0403 58.9653 21.1739 60.5351 29.0651 62.2432C36.9564 63.9512 44.0857 65.5462 49.2224 66.8063C51.7928 67.4342 53.8692 67.9575 55.2968 68.3469L56.9378 68.7948L57.3565 68.9162L57.4988 68.9664Z" fill="#FAFAFA"/>
<path d="M101.49 32.2101C101.49 32.2101 101.448 32.072 101.377 31.7915L101.071 30.6068C100.803 29.556 100.414 28.0196 99.9115 26.0394L95.6959 9.24382C95.4726 8.35631 95.2451 7.44787 95.0135 6.5185C94.9005 6.058 94.7832 5.58494 94.6618 5.11189C94.6032 4.87326 94.5446 4.63464 94.4693 4.40439C94.4036 4.16932 94.3196 3.93976 94.2181 3.71783C93.8031 2.77865 93.1505 1.96386 92.3246 1.3538C91.4987 0.743748 90.5281 0.359508 89.5084 0.238976C88.9793 0.165765 88.4426 0.165765 87.9134 0.238976C87.386 0.331076 86.8501 0.477598 86.3101 0.607375L83.0238 1.44465L76.154 3.14012L45.6313 10.7593L15.071 18.3449L8.20953 20.0446L6.53499 20.4632C5.99148 20.5762 5.45911 20.7373 4.94418 20.9447C3.95102 21.3752 3.09415 22.0685 2.46587 22.9499C2.16182 23.3783 1.91418 23.844 1.72907 24.3356C1.55645 24.8212 1.4426 25.3258 1.38997 25.8385C1.26857 26.8642 1.55324 27.8521 1.75418 28.8276C2.17282 30.7812 2.57331 32.6525 2.95567 34.4415C4.48369 41.5959 5.71866 47.3815 6.57267 51.3878C6.99131 53.3889 7.32203 54.9378 7.54809 55.9928C7.65275 56.5161 7.73648 56.918 7.79509 57.1943C7.8537 57.4706 7.87044 57.6129 7.87044 57.6129C7.87044 57.6129 7.83276 57.4747 7.76997 57.1943C7.70717 56.9138 7.61926 56.5203 7.50204 56.0012C7.26761 54.942 6.92851 53.3931 6.48894 51.3962C5.614 47.394 4.35391 41.6085 2.79658 34.4666C2.41144 32.679 2.00118 30.8077 1.57836 28.8527C1.37741 27.8898 1.08437 26.8683 1.20996 25.8092C1.25809 25.279 1.37344 24.7571 1.55324 24.2561C1.7445 23.7488 1.99909 23.2677 2.31097 22.8243C2.62815 22.373 3.00724 21.9686 3.4371 21.6229C3.86753 21.264 4.34856 20.9706 4.86464 20.7521C5.38846 20.5383 5.93077 20.3729 6.48476 20.2581L8.1593 19.8395L15.0333 18.1398L45.5936 10.5374L76.154 2.95173L83.0154 1.25207L86.3017 0.439921C86.8417 0.305957 87.3692 0.163622 87.9218 0.0673357C88.7288 -0.0531956 89.5517 -0.0116109 90.3424 0.189657C91.1331 0.390925 91.8757 0.747835 92.5268 1.23951C93.3553 1.86665 94.0095 2.6953 94.4274 3.64666C94.5324 3.87529 94.6192 4.11186 94.6869 4.35416C94.7623 4.59278 94.8209 4.8314 94.8795 5.07002C94.9967 5.54308 95.1098 6.01614 95.227 6.48082C95.4572 7.41019 95.6791 8.31863 95.901 9.20614L100.045 26.0311C100.527 28.0154 100.904 29.556 101.159 30.6068C101.285 31.13 101.381 31.5278 101.444 31.7999C101.507 32.072 101.49 32.2101 101.49 32.2101Z" fill="#E0E0E0"/>
<path d="M66.3495 3.60442L62.2092 6.75674L62.4101 12.7767L58.6215 9.76672L56.5283 11.5585L48.5742 1.7373L66.3495 3.60442Z" fill="#FFB6B6"/>
<path d="M60.6534 8.03809C60.6534 8.22229 62.4117 12.777 62.4117 12.777L58.623 9.76705L60.6534 8.03809Z" fill="#FFB6B6"/>
<g opacity="0.3">
<path opacity="0.3" d="M60.6534 8.03809C60.6534 8.22229 62.4117 12.777 62.4117 12.777L58.623 9.76705L60.6534 8.03809Z" fill="black"/>
</g>
<path d="M48.5742 1.7373L60.6518 8.03776L62.4101 12.7767L62.2092 6.75674L48.5742 1.7373Z" fill="#FFB6B6"/>
<path opacity="0.1" d="M48.5742 1.7373L60.6518 8.03776L62.4101 12.7767L62.2092 6.75674L48.5742 1.7373Z" fill="black"/>
<path d="M82.0655 82.9608C81.3213 82.9362 80.5901 82.758 79.918 82.4375C80.6622 82.4621 81.3934 82.6403 82.0655 82.9608Z" fill="#263238"/>
<path d="M85.4904 83.798C85.4904 83.8608 85.1765 83.8398 84.8248 83.7561C84.4731 83.6724 84.1968 83.5468 84.2094 83.484C84.222 83.4212 84.5234 83.4421 84.8792 83.5301C85.2351 83.618 85.5072 83.7352 85.4904 83.798Z" fill="#263238"/>
<path d="M71.3566 11.9896C70.9853 11.9951 70.6157 11.937 70.2639 11.818C69.8951 11.7727 69.5376 11.6606 69.209 11.4873C69.5822 11.4382 69.9618 11.4755 70.3184 11.5961C70.6911 11.6418 71.0472 11.7768 71.3566 11.9896V11.9896Z" fill="#263238"/>
<path d="M75.4093 13.7272C74.707 13.4968 74.0425 13.1639 73.4375 12.7393C73.8112 12.7748 74.1713 12.8981 74.4883 13.0993C75.0367 13.3756 75.4428 13.6728 75.4093 13.7272Z" fill="#263238"/>
<path d="M78.9218 16.3896C78.8758 16.4357 78.5032 16.1217 78.0343 15.7282C77.5654 15.3346 77.197 14.9997 77.2514 14.9453C77.6085 15.0714 77.931 15.2793 78.1934 15.5523C78.6497 15.9542 78.9679 16.3477 78.9218 16.3896Z" fill="#263238"/>
<path d="M81.6008 19.8852C81.5422 19.9145 81.2659 19.5085 80.9309 19.0061C80.6964 18.7182 80.5124 18.3926 80.3867 18.0432C80.4328 18.0056 80.7844 18.3656 81.1235 18.8805C81.3598 19.173 81.5234 19.5173 81.6008 19.8852V19.8852Z" fill="#263238"/>
<path d="M83.1201 24.0168C82.9404 23.6921 82.8159 23.3399 82.7517 22.9744C82.6118 22.6293 82.5339 22.2623 82.5215 21.8901C82.7476 22.1915 82.901 22.5411 82.9694 22.9116C83.1102 23.2619 83.1619 23.6416 83.1201 24.0168Z" fill="#263238"/>
<path d="M83.346 28.4128C83.2713 28.0492 83.2557 27.676 83.2999 27.3076C83.2684 26.9375 83.3024 26.5648 83.4004 26.2065C83.5282 26.56 83.5726 26.9383 83.5302 27.3117C83.5566 27.6881 83.4934 28.0654 83.346 28.4128Z" fill="#263238"/>
<path d="M82.2031 32.658C82.2482 32.2904 82.3528 31.9327 82.5129 31.5988C82.5982 31.2399 82.7395 30.8966 82.9315 30.5815C82.952 30.9587 82.8756 31.3349 82.7097 31.6742C82.6244 32.0388 82.4504 32.3768 82.2031 32.658Z" fill="#263238"/>
<path d="M79.6462 36.2331C79.6043 36.1829 79.9309 35.8145 80.3286 35.3623C80.7263 34.9102 81.0444 34.5251 81.0989 34.5711C80.9801 34.9297 80.7744 35.2533 80.5002 35.5131C80.0941 35.9819 79.6881 36.2792 79.6462 36.2331Z" fill="#263238"/>
<path d="M75.9531 38.6108C76.236 38.3716 76.5554 38.1794 76.8992 38.0415C77.2085 37.8365 77.5493 37.6837 77.9082 37.5894C77.665 37.879 77.3545 38.1047 77.0039 38.2466C76.689 38.4528 76.3281 38.5779 75.9531 38.6108Z" fill="#263238"/>
<path d="M71.6582 39.5357C72.0084 39.4069 72.3777 39.3376 72.7508 39.3306C73.113 39.2474 73.4862 39.2234 73.856 39.2594C73.5274 39.4457 73.1578 39.5478 72.7801 39.5566C72.4105 39.6452 72.0243 39.638 71.6582 39.5357Z" fill="#263238"/>
<path d="M67.3457 38.7197C68.0615 38.8688 68.7622 39.0832 69.4389 39.3602C69.0636 39.407 68.6827 39.3551 68.3337 39.2095C67.9671 39.1358 67.6263 38.9669 67.3457 38.7197Z" fill="#263238"/>
<path d="M64.291 35.6887C64.3538 35.6678 64.5464 36.1073 64.8897 36.6013C65.2329 37.0953 65.5637 37.4386 65.5176 37.5014C65.4716 37.5642 65.0613 37.2502 64.7013 36.7353C64.448 36.4441 64.3031 36.0744 64.291 35.6887Z" fill="#263238"/>
<path d="M66.1493 32.2599C66.1493 32.3268 65.693 32.4734 65.2157 32.8125C64.7385 33.1516 64.4831 33.5744 64.4245 33.5409C64.3659 33.5074 64.5501 33.005 65.0818 32.6283C65.3777 32.374 65.7595 32.2423 66.1493 32.2599V32.2599Z" fill="#263238"/>
<path d="M69.934 33.83C69.8754 33.8635 69.6074 33.4533 69.1721 33.0514C68.7367 32.6495 68.2929 32.4485 68.3348 32.3857C68.7237 32.4164 69.0862 32.5946 69.3479 32.8839C69.6486 33.1204 69.8561 33.4555 69.934 33.83V33.83Z" fill="#263238"/>
<path d="M70.0762 38.1042C70.1072 37.7395 70.176 37.3789 70.2813 37.0283C70.3126 36.6622 70.3813 36.3003 70.4864 35.9482C70.5988 36.3138 70.5988 36.7046 70.4864 37.0702C70.4577 37.4485 70.3146 37.8091 70.0762 38.1042V38.1042Z" fill="#263238"/>
<path d="M67.2077 41.3904C67.17 41.336 67.5509 41.022 68.0072 40.6327C68.4636 40.2434 68.8445 39.9085 68.8738 39.9503C68.9031 39.9922 68.631 40.4024 68.158 40.7876C67.6849 41.1727 67.2411 41.4449 67.2077 41.3904Z" fill="#263238"/>
<path d="M63.2949 43.4249C63.5719 43.1743 63.8965 42.9821 64.2494 42.8597C64.5714 42.6699 64.9291 42.5488 65.3002 42.5039C64.7031 42.9471 64.0202 43.2608 63.2949 43.4249V43.4249Z" fill="#263238"/>
<path d="M59.3555 45.4263C59.322 45.3719 59.7197 45.0747 60.2472 44.7565C60.5549 44.5418 60.9068 44.3988 61.277 44.3379C61.3105 44.4007 60.8835 44.6561 60.3602 44.9575C60.0613 45.1815 59.7192 45.3411 59.3555 45.4263V45.4263Z" fill="#263238"/>
<path d="M56.0068 48.3063C55.9607 48.2644 56.2496 47.8541 56.6891 47.423C56.9316 47.1358 57.2366 46.9081 57.5808 46.7573C57.6227 46.8076 57.2836 47.176 56.8524 47.5946C56.4212 48.0132 56.0737 48.3481 56.0068 48.3063Z" fill="#263238"/>
<path d="M53.4941 51.915C53.5643 51.5455 53.7191 51.1974 53.9463 50.8977C54.2686 50.3744 54.5993 49.9976 54.6496 50.0353C54.541 50.3909 54.3694 50.7241 54.143 51.0191C53.8249 51.534 53.5527 51.9443 53.4941 51.915Z" fill="#263238"/>
<path d="M51.8866 56.0178C51.8652 55.6427 51.9342 55.268 52.0876 54.9251C52.1664 54.5569 52.3313 54.2126 52.569 53.9204C52.4464 54.6481 52.2165 55.3535 51.8866 56.0136V56.0178Z" fill="#263238"/>
<path d="M51.3097 60.3881C51.1578 59.6541 51.21 58.8925 51.4604 58.186C51.5241 58.5517 51.5241 58.9256 51.4604 59.2912C51.4749 59.6628 51.4239 60.0341 51.3097 60.3881V60.3881Z" fill="#263238"/>
<path d="M51.8869 64.7547C51.699 64.431 51.5806 64.0717 51.5394 63.6997C51.4164 63.3435 51.3847 62.962 51.4473 62.5903C51.6094 62.9255 51.7169 63.2845 51.7655 63.6537C51.8815 64.0084 51.9228 64.3832 51.8869 64.7547Z" fill="#263238"/>
<path d="M53.5909 68.8153C53.5365 68.8488 53.2393 68.4469 52.9672 67.8943C52.7653 67.5765 52.6432 67.2145 52.6113 66.8394C52.8525 67.1224 53.0424 67.4454 53.1723 67.7938C53.3708 68.1071 53.5125 68.4529 53.5909 68.8153V68.8153Z" fill="#263238"/>
<path d="M56.237 72.3444C56.1951 72.3862 55.8183 72.0681 55.3997 71.5992C55.1302 71.3364 54.924 71.0158 54.7969 70.6615C54.8513 70.6196 55.182 70.988 55.5755 71.4485C55.969 71.909 56.283 72.2983 56.237 72.3444Z" fill="#263238"/>
<path d="M59.6352 75.1491C59.2714 75.0514 58.9358 74.8693 58.6556 74.6175C58.1616 74.2574 57.8184 73.8974 57.8519 73.8472C58.1975 73.9863 58.5162 74.1847 58.7938 74.4333C59.2794 74.7891 59.6687 75.0947 59.6352 75.1491Z" fill="#263238"/>
<path d="M63.6116 77.0498C63.2349 77.0473 62.8644 76.954 62.5315 76.7777C62.1684 76.6762 61.8362 76.4864 61.5645 76.2251C61.9311 76.2792 62.2861 76.3938 62.6152 76.5642C62.971 76.6721 63.3074 76.836 63.6116 77.0498Z" fill="#263238"/>
<path d="M65.8278 77.6153C65.8278 77.6741 65.79 77.7245 65.769 77.7203C65.748 77.7161 65.7396 77.6615 65.769 77.5985C65.7984 77.5354 65.8068 77.4892 65.8278 77.4934C65.8488 77.4976 65.8404 77.5523 65.8278 77.6153Z" fill="#263238"/>
<path d="M62.6268 66.6518L58.0488 65.1484L57.1136 67.9962L61.6916 69.4996L62.6268 66.6518Z" fill="#FFB6B6"/>
<g opacity="0.3">
<path opacity="0.3" d="M62.6268 66.6518L58.0488 65.1484L57.1136 67.9962L61.6916 69.4996L62.6268 66.6518Z" fill="black"/>
</g>
<path d="M62.6167 66.6594C61.7607 67.0886 60.8734 67.4525 59.9625 67.7479L59.883 67.7772L59.8328 67.7102L59.7532 67.6097C59.1181 66.8374 58.5455 66.0157 58.041 65.1523C58.7311 65.8762 59.3651 66.6515 59.9374 67.4716L60.0128 67.5721L59.883 67.5344C60.7692 67.1697 61.6834 66.8771 62.6167 66.6594Z" fill="#FFB6B6"/>
<g opacity="0.1">
<path opacity="0.1" d="M62.6167 66.6594C61.7607 67.0886 60.8734 67.4525 59.9625 67.7479L59.883 67.7772L59.8328 67.7102L59.7532 67.6097C59.1181 66.8374 58.5455 66.0157 58.041 65.1523C58.7311 65.8762 59.3651 66.6515 59.9374 67.4716L60.0128 67.5721L59.883 67.5344C60.7692 67.1697 61.6834 66.8771 62.6167 66.6594Z" fill="black"/>
</g>
<path d="M59.3541 66.8979C59.039 67.1814 58.6743 67.4042 58.2782 67.5552C57.9134 67.7714 57.514 67.923 57.0977 68.0031C57.4156 67.7213 57.7814 67.4987 58.1777 67.3459C58.5415 67.1307 58.9393 66.9792 59.3541 66.8979V66.8979Z" fill="#FFB6B6"/>
<g opacity="0.1">
<path opacity="0.1" d="M59.3541 66.8979C59.039 67.1814 58.6743 67.4042 58.2782 67.5552C57.9134 67.7714 57.514 67.923 57.0977 68.0031C57.4156 67.7213 57.7814 67.4987 58.1777 67.3459C58.5415 67.1307 58.9393 66.9792 59.3541 66.8979V66.8979Z" fill="black"/>
</g>
<path d="M61.7625 69.5313C61.5062 69.2155 61.3078 68.857 61.1764 68.4721C60.9001 67.8484 60.7159 67.3125 60.7996 67.3209C61.0565 67.6369 61.2563 67.9953 61.3899 68.38C61.5849 68.7372 61.7113 69.1276 61.7625 69.5313V69.5313Z" fill="#FFB6B6"/>
<g opacity="0.1">
<path opacity="0.1" d="M61.7625 69.5313C61.5062 69.2155 61.3078 68.857 61.1764 68.4721C60.9001 67.8484 60.7159 67.3125 60.7996 67.3209C61.0565 67.6369 61.2563 67.9953 61.3899 68.38C61.5849 68.7372 61.7113 69.1276 61.7625 69.5313V69.5313Z" fill="black"/>
</g>
<path d="M81.2945 77.8076L69.5215 73.9414L67.1156 81.2677L78.8886 85.134L81.2945 77.8076Z" fill="#FFB6B6"/>
<path d="M81.2832 77.8159C81.1154 77.9123 80.9388 77.9922 80.7557 78.0546L79.2905 78.6281C78.0346 79.1011 76.3224 79.7458 74.3925 80.4533L74.3129 80.4826L74.2627 80.4157L74.0659 80.1561C72.7849 78.4816 71.6295 76.9201 70.8047 75.7939L69.821 74.4585C69.6954 74.2986 69.5847 74.1277 69.4902 73.9478C69.6437 74.0864 69.7839 74.2392 69.9089 74.4041L70.9345 75.6976C71.7927 76.7945 72.9649 78.3225 74.2501 80.018L74.4469 80.2733L74.3171 80.2356C76.2428 79.5323 77.9801 78.9128 79.236 78.4774L80.7264 77.9708C80.9067 77.9019 81.0931 77.8501 81.2832 77.8159V77.8159Z" fill="#FFB6B6"/>
<g opacity="0.2">
<path opacity="0.2" d="M81.2832 77.8159C81.1154 77.9123 80.9388 77.9922 80.7557 78.0546L79.2905 78.6281C78.0346 79.1011 76.3224 79.7458 74.3925 80.4533L74.3129 80.4826L74.2627 80.4157L74.0659 80.1561C72.7849 78.4816 71.6295 76.9201 70.8047 75.7939L69.821 74.4585C69.6954 74.2986 69.5847 74.1277 69.4902 73.9478C69.6437 74.0864 69.7839 74.2392 69.9089 74.4041L70.9345 75.6976C71.7927 76.7945 72.9649 78.3225 74.2501 80.018L74.4469 80.2733L74.3171 80.2356C76.2428 79.5323 77.9801 78.9128 79.236 78.4774L80.7264 77.9708C80.9067 77.9019 81.0931 77.8501 81.2832 77.8159V77.8159Z" fill="black"/>
</g>
<path d="M72.91 78.4395C71.9946 79.0115 71.0406 79.5192 70.0549 79.9591C69.1024 80.4644 68.1163 80.9036 67.1035 81.2736C68.0153 80.6967 68.9682 80.1874 69.9544 79.7498C70.9062 79.2413 71.8941 78.8033 72.91 78.4395V78.4395Z" fill="#FFB6B6"/>
<g opacity="0.2">
<path opacity="0.2" d="M72.91 78.4395C71.9946 79.0115 71.0406 79.5192 70.0549 79.9591C69.1024 80.4644 68.1163 80.9036 67.1035 81.2736C68.0153 80.6967 68.9682 80.1874 69.9544 79.7498C70.9062 79.2413 71.8941 78.8033 72.91 78.4395V78.4395Z" fill="black"/>
</g>
<path d="M79.0894 85.2088C78.5742 84.3104 78.1251 83.3758 77.7455 82.4123C77.2983 81.4771 76.9205 80.5102 76.6152 79.5195C77.1309 80.4191 77.58 81.3551 77.9591 82.3202C78.4067 83.2538 78.7845 84.2193 79.0894 85.2088V85.2088Z" fill="#FFB6B6"/>
<g opacity="0.2">
<path opacity="0.2" d="M79.0894 85.2088C78.5742 84.3104 78.1251 83.3758 77.7455 82.4123C77.2983 81.4771 76.9205 80.5102 76.6152 79.5195C77.1309 80.4191 77.58 81.3551 77.9591 82.3202C78.4067 83.2538 78.7845 84.2193 79.0894 85.2088V85.2088Z" fill="black"/>
</g>
<path d="M73.7314 67.936L67.5625 65.9102L66.3021 69.7483L72.471 71.7742L73.7314 67.936Z" fill="#FFB6B6"/>
<g opacity="0.2">
<path opacity="0.2" d="M73.7314 67.936L67.5625 65.9102L66.3021 69.7483L72.471 71.7742L73.7314 67.936Z" fill="black"/>
</g>
<path d="M73.7189 67.9403C73.633 67.9917 73.5418 68.0339 73.4468 68.0658L72.6766 68.3673C72.0277 68.6143 71.1234 68.9534 70.1103 69.3218H70.0685L70.0433 69.2841L69.9429 69.1501C69.2689 68.2626 68.687 67.4546 68.2306 66.8644L67.7283 66.182C67.6634 66.0978 67.606 66.0082 67.5566 65.9141C67.6342 65.9864 67.7044 66.0663 67.766 66.1527L68.306 66.8309C68.7539 67.4044 69.3693 68.204 70.0391 69.0915L70.1438 69.2296H70.0768C71.0857 68.8613 71.9942 68.5347 72.6556 68.3087L73.4343 68.0449C73.5249 67.9994 73.6204 67.9643 73.7189 67.9403V67.9403Z" fill="#FFB6B6"/>
<g opacity="0.2">
<path opacity="0.2" d="M73.7189 67.9403C73.633 67.9917 73.5418 68.0339 73.4468 68.0658L72.6766 68.3673C72.0277 68.6143 71.1234 68.9534 70.1103 69.3218H70.0685L70.0433 69.2841L69.9429 69.1501C69.2689 68.2626 68.687 67.4546 68.2306 66.8644L67.7283 66.182C67.6634 66.0978 67.606 66.0082 67.5566 65.9141C67.6342 65.9864 67.7044 66.0663 67.766 66.1527L68.306 66.8309C68.7539 67.4044 69.3693 68.204 70.0391 69.0915L70.1438 69.2296H70.0768C71.0857 68.8613 71.9942 68.5347 72.6556 68.3087L73.4343 68.0449C73.5249 67.9994 73.6204 67.9643 73.7189 67.9403V67.9403Z" fill="#FFB6B6"/>
</g>
<path d="M69.3345 68.2666C68.8547 68.5649 68.3554 68.8306 67.84 69.062C67.3399 69.3272 66.8224 69.558 66.291 69.7527C66.7689 69.4499 67.2684 69.1826 67.7855 68.9532C68.2847 68.6873 68.8023 68.4579 69.3345 68.2666V68.2666Z" fill="#FFB6B6"/>
<g opacity="0.2">
<path opacity="0.2" d="M69.3345 68.2666C68.8547 68.5649 68.3554 68.8306 67.84 69.062C67.3399 69.3272 66.8224 69.558 66.291 69.7527C66.7689 69.4499 67.2684 69.1826 67.7855 68.9532C68.2847 68.6873 68.8023 68.4579 69.3345 68.2666V68.2666Z" fill="#FFB6B6"/>
</g>
<path d="M72.5712 71.8127C72.3011 71.3422 72.0661 70.8525 71.8679 70.3475C71.6352 69.8566 71.4366 69.3502 71.2734 68.832C71.7813 69.7911 72.2151 70.7876 72.5712 71.8127V71.8127Z" fill="#FFB6B6"/>
<g opacity="0.2">
<path opacity="0.2" d="M72.5712 71.8127C72.3011 71.3422 72.0661 70.8525 71.8679 70.3475C71.6352 69.8566 71.4366 69.3502 71.2734 68.832C71.7813 69.7911 72.2151 70.7876 72.5712 71.8127V71.8127Z" fill="#FFB6B6"/>
</g>
<path d="M24.1896 19.8936C23.7639 21.5691 22.8509 23.0808 21.5661 24.2374C20.2813 25.3941 18.6824 26.1438 16.9716 26.3918C15.2607 26.6398 13.5147 26.3749 11.9544 25.6306C10.3941 24.8864 9.08949 23.6961 8.20557 22.2105C7.32166 20.7248 6.89813 19.0104 6.98853 17.284C7.07892 15.5576 7.6792 13.8968 8.71344 12.5116C9.74769 11.1264 11.1695 10.0789 12.799 9.50168C14.4285 8.92444 16.1926 8.84336 17.8682 9.26867C20.115 9.84011 22.0429 11.2803 23.2283 13.2726C24.4136 15.265 24.7594 17.6464 24.1896 19.8936V19.8936Z" fill="#FE0000"/>
<path fill-rule="evenodd" clip-rule="evenodd" d="M11.9614 14.5849C12.1729 14.3734 12.5159 14.3734 12.7274 14.5849L19.2274 21.0849C19.439 21.2965 19.439 21.6394 19.2274 21.851C19.0159 22.0625 18.6729 22.0625 18.4614 21.851L11.9614 15.351C11.7499 15.1394 11.7499 14.7965 11.9614 14.5849Z" fill="white"/>
<path fill-rule="evenodd" clip-rule="evenodd" d="M19.2281 14.5849C19.0165 14.3734 18.6736 14.3734 18.462 14.5849L11.962 21.0849C11.7505 21.2965 11.7505 21.6394 11.962 21.851C12.1736 22.0625 12.5165 22.0625 12.7281 21.851L19.2281 15.351C19.4396 15.1394 19.4396 14.7965 19.2281 14.5849Z" fill="white"/>
</svg>
