<svg width="10" height="12" viewBox="0 0 10 12" fill="none" xmlns="http://www.w3.org/2000/svg">
<path d="M9 3.5V8.5C9 10.5 8.5 11 6.5 11H3.5C1.5 11 1 10.5 1 8.5V3.5C1 1.5 1.5 1 3.5 1H6.5C8.5 1 9 1.5 9 3.5Z" stroke="#32BC9B" stroke-linecap="round" stroke-linejoin="round"/>
<path d="M6.00098 2.75H4.00098" stroke="#32BC9B" stroke-linecap="round" stroke-linejoin="round"/>
<path d="M5.00059 9.55C5.42861 9.55 5.77559 9.20302 5.77559 8.775C5.77559 8.34698 5.42861 8 5.00059 8C4.57257 8 4.22559 8.34698 4.22559 8.775C4.22559 9.20302 4.57257 9.55 5.00059 9.55Z" stroke="#32BC9B" stroke-linecap="round" stroke-linejoin="round"/>
</svg>
