<svg width="130" height="120" viewBox="0 0 130 120" fill="none" xmlns="http://www.w3.org/2000/svg">
<path d="M45.9885 4.74942L6.13867 56.522L113.309 29.8801L53.6161 2.83626C52.3156 2.24602 50.8535 2.11385 49.4683 2.46129C48.0831 2.80874 46.8565 3.6153 45.9885 4.74942V4.74942Z" fill="#EBEBEB"/>
<path d="M5.57422 56.8903L45.8134 4.61953C46.7108 3.44416 47.9816 2.60933 49.4166 2.25246C50.8517 1.8956 52.3655 2.03797 53.7089 2.65614L113.992 29.9637L5.57422 56.8903ZM50.9961 2.46775C50.06 2.46838 49.1368 2.68564 48.2987 3.10252C47.4606 3.5194 46.7303 4.12459 46.1651 4.87071V4.87071L6.70035 56.1577L112.64 29.8214L53.5289 3.02872C52.7329 2.66987 51.8692 2.48572 50.9961 2.48868V2.46775Z" fill="#E0E0E0"/>
<path d="M6.13672 56.5239L113.685 29.789L128.174 88.0766C128.461 89.2306 128.278 90.4513 127.665 91.4701C127.051 92.489 126.059 93.2225 124.905 93.5094L26.059 118.081C24.905 118.368 23.6843 118.185 22.6655 117.571C21.6466 116.958 20.9131 115.966 20.6262 114.812L6.13672 56.5239Z" fill="#F0F0F0"/>
<path d="M107.064 32.9819L69.8054 71.0484L13.4906 58.3721L7.04781 28.5025C6.69125 26.9617 6.95443 25.3426 7.78061 23.9941C8.60679 22.6456 9.9298 21.6757 11.4644 21.2936L92.9308 1.04424C93.6988 0.85264 94.4971 0.814397 95.2799 0.931696C96.0628 1.049 96.8148 1.31953 97.4929 1.72783C98.1711 2.13612 98.7621 2.67415 99.232 3.31111C99.702 3.94808 100.042 4.67148 100.232 5.4399L107.064 32.9819Z" fill="white"/>
<path d="M64.6889 68.0555L20.4434 114.29C20.5996 114.918 20.8782 115.51 21.2632 116.031C21.6482 116.552 22.1322 116.992 22.6873 117.326C23.2425 117.66 23.858 117.881 24.4987 117.977C25.1395 118.073 25.7928 118.042 26.4215 117.886L124.508 93.5001C125.777 93.1845 126.868 92.378 127.543 91.2577C128.217 90.1374 128.419 88.7952 128.104 87.5262L128.012 87.1578L70.1563 66.7493C69.216 66.417 68.1997 66.3635 67.2297 66.5952C66.2598 66.827 65.3774 67.334 64.6889 68.0555V68.0555Z" fill="#E0E0E0"/>
<path d="M50.5541 25.7033L18.6836 33.6318L19.4931 36.8859L51.3637 28.9574L50.5541 25.7033Z" fill="#E0E0E0"/>
<path d="M91.4467 24.2911L20.7344 41.8823L21.649 45.5589L92.3613 27.9677L91.4467 24.2911Z" fill="#E0E0E0"/>
<path d="M93.683 33.2735L22.9707 50.8647L23.8853 54.5413L94.5977 36.9501L93.683 33.2735Z" fill="#E0E0E0"/>
<path d="M95.1703 45.1768L92.9558 47.3914L33.5933 62.9102L25.836 61.0975L25.543 60.2561L96.0285 42.7236L96.3341 43.9419L95.1703 45.1768Z" fill="#E0E0E0"/>
<path d="M79.9867 60.6457L53.2443 67.2936L45.0684 65.4265L85.0354 55.4839L79.9867 60.6457Z" fill="#E0E0E0"/>
<path d="M63.0731 69.7383C63.0731 69.7383 63.0438 69.7843 62.9726 69.8639L62.6545 70.2113L61.4237 71.53L56.8647 76.3569C53.0049 80.4218 47.6548 86.0399 41.7311 92.198C35.8074 98.3562 30.3651 103.882 26.3965 107.842C24.4122 109.823 22.7962 111.422 21.6743 112.514L20.3807 113.77L20.0374 114.093C20.0016 114.133 19.9608 114.168 19.916 114.197C19.9469 114.154 19.982 114.113 20.0207 114.076L20.3472 113.737L21.6031 112.452L26.2793 107.734C30.2186 103.744 35.6316 98.2054 41.5678 92.0431C47.5041 85.8808 52.871 80.3214 56.7433 76.248L61.3483 71.4714L62.6042 70.182L62.9391 69.8513C63.0312 69.7718 63.0731 69.7383 63.0731 69.7383Z" fill="#FAFAFA"/>
<path d="M128.012 87.1494C127.991 87.208 115.654 82.9254 100.458 77.5836C85.2613 72.2418 72.9576 67.8629 72.9785 67.8043C72.9995 67.7457 85.3366 72.0242 100.533 77.3659C115.73 82.7077 128.033 87.0866 128.012 87.1494Z" fill="#FAFAFA"/>
<path d="M108.834 31.1484C108.811 31.1857 108.785 31.2208 108.755 31.2531L108.521 31.542L107.528 32.643L103.832 36.6577C100.7 40.0361 96.3382 44.6662 91.4486 49.7191C86.5589 54.772 82.046 59.2807 78.7723 62.5209L74.8748 66.3389L73.8031 67.3645L73.5226 67.6283C73.4556 67.6869 73.4222 67.7162 73.418 67.712C73.4446 67.6762 73.4739 67.6426 73.5059 67.6115L73.7696 67.331L74.812 66.2761L78.6551 62.4079C81.9037 59.1384 86.3705 54.6087 91.2602 49.56C96.1498 44.5113 100.529 39.9147 103.694 36.5656L107.44 32.6011L108.466 31.5294L108.738 31.2531C108.766 31.2144 108.798 31.1792 108.834 31.1484Z" fill="#FAFAFA"/>
<path d="M63.073 69.7384C63.0234 69.7356 62.9742 69.7272 62.9265 69.7133L62.5079 69.6128L60.8333 69.1942C59.4016 68.8342 57.321 68.3276 54.7464 67.7248C49.6014 66.5065 42.4636 64.9367 34.5765 63.2286C26.6895 61.5206 19.5559 59.9256 14.4193 58.6655C11.8489 58.0376 9.77242 57.5101 8.34488 57.1249L6.69964 56.677L6.28101 56.5556C6.23157 56.5452 6.18372 56.5283 6.13867 56.5054L6.28519 56.5347L6.70383 56.631L8.37837 57.0496C9.81429 57.4096 11.8949 57.912 14.4695 58.519C19.6145 59.7372 26.7481 61.3071 34.6393 63.0151C42.5306 64.7232 49.66 66.3182 54.7966 67.5783C57.367 68.2062 59.4435 68.7295 60.871 69.1188L62.5121 69.5668L62.9307 69.6882L63.073 69.7384Z" fill="#FAFAFA"/>
<path d="M107.064 32.9821C107.064 32.9821 107.022 32.844 106.951 32.5635L106.645 31.3787C106.377 30.328 105.988 28.7916 105.486 26.8114L101.27 10.0158C101.047 9.12828 100.819 8.21984 100.588 7.29047C100.475 6.82997 100.357 6.35692 100.236 5.88386C100.177 5.64524 100.119 5.40661 100.043 5.17637C99.9778 4.94129 99.8939 4.71173 99.7923 4.4898C99.3773 3.55062 98.7247 2.73583 97.8988 2.12577C97.073 1.51572 96.1023 1.13148 95.0827 1.01095C94.5535 0.937738 94.0168 0.937738 93.4877 1.01095C92.9602 1.10305 92.4243 1.24957 91.8843 1.37935L88.598 2.21662L81.7282 3.91209L51.2055 11.5312L20.6452 19.1169L13.7838 20.8166L12.1092 21.2352C11.5657 21.3481 11.0333 21.5092 10.5184 21.7166C9.52524 22.1471 8.66837 22.8404 8.04008 23.7219C7.73604 24.1503 7.4884 24.616 7.30329 25.1076C7.13066 25.5932 7.01682 26.0978 6.96419 26.6105C6.84279 27.6361 7.12746 28.6241 7.3284 29.5995C7.74704 31.5532 8.14753 33.4245 8.52989 35.2134C10.0579 42.3679 11.2929 48.1534 12.1469 52.1598C12.5655 54.1608 12.8962 55.7098 13.1223 56.7647C13.227 57.288 13.3107 57.6899 13.3693 57.9662C13.4279 58.2425 13.4447 58.3849 13.4447 58.3849C13.4447 58.3849 13.407 58.2467 13.3442 57.9662C13.2814 57.6857 13.1935 57.2922 13.0763 56.7731C12.8418 55.714 12.5027 54.165 12.0632 52.1681C11.1882 48.166 9.92813 42.3805 8.3708 35.2385C7.98566 33.451 7.5754 31.5797 7.15258 29.6246C6.95163 28.6618 6.65859 27.6403 6.78418 26.5812C6.83231 26.051 6.94766 25.5291 7.12746 25.028C7.31871 24.5208 7.57331 24.0397 7.88519 23.5963C8.20237 23.145 8.58146 22.7405 9.01132 22.3948C9.44175 22.0359 9.92278 21.7425 10.4389 21.5241C10.9627 21.3103 11.505 21.1449 12.059 21.0301L13.7335 20.6114L20.6075 18.9118L51.1679 11.3094L81.7282 3.7237L88.5896 2.02405L91.8759 1.21189C92.4159 1.07793 92.9434 0.935594 93.496 0.839308C94.303 0.718777 95.1259 0.760362 95.9166 0.96163C96.7073 1.1629 97.4499 1.51981 98.101 2.01149C98.9295 2.63862 99.5838 3.46728 100.002 4.41864C100.107 4.64726 100.193 4.88383 100.261 5.12613C100.337 5.36475 100.395 5.60337 100.454 5.842C100.571 6.31505 100.684 6.78811 100.801 7.2528C101.031 8.18217 101.253 9.0906 101.475 9.97811L105.62 26.803C106.101 28.7874 106.478 30.328 106.733 31.3787C106.859 31.902 106.955 32.2997 107.018 32.5718C107.081 32.844 107.064 32.9821 107.064 32.9821Z" fill="#E0E0E0"/>
<path d="M60.2557 10.8866L56.1154 14.039L56.3164 20.0589L52.5277 17.0489L50.4345 18.8407L42.4805 9.01953L60.2557 10.8866Z" fill="#92E3A9"/>
<path d="M54.5597 15.3203C54.5597 15.5045 56.3179 20.0593 56.3179 20.0593L52.5293 17.0493L54.5597 15.3203Z" fill="#92E3A9"/>
<g opacity="0.3">
<path opacity="0.3" d="M54.5597 15.3203C54.5597 15.5045 56.3179 20.0593 56.3179 20.0593L52.5293 17.0493L54.5597 15.3203Z" fill="black"/>
</g>
<path d="M42.4805 9.01953L54.5581 15.32L56.3164 20.0589L56.1154 14.039L42.4805 9.01953Z" fill="#92E3A9"/>
<path opacity="0.1" d="M42.4805 9.01953L54.5581 15.32L56.3164 20.0589L56.1154 14.039L42.4805 9.01953Z" fill="black"/>
<path d="M75.9718 90.243C75.2275 90.2184 74.4964 90.0402 73.8242 89.7197C74.5685 89.7443 75.2996 89.9225 75.9718 90.243Z" fill="#263238"/>
<path d="M79.3967 91.0802C79.3967 91.143 79.0827 91.1221 78.7311 91.0383C78.3794 90.9546 78.1031 90.829 78.1156 90.7662C78.1282 90.7034 78.4296 90.7244 78.7855 90.8123C79.1413 90.9002 79.4134 91.0174 79.3967 91.0802Z" fill="#263238"/>
<path d="M65.2628 19.2719C64.8915 19.2773 64.522 19.2192 64.1702 19.1002C63.8014 19.0549 63.4439 18.9429 63.1152 18.7695C63.4885 18.7205 63.868 18.7577 64.2246 18.8783C64.5973 18.924 64.9535 19.059 65.2628 19.2719V19.2719Z" fill="#263238"/>
<path d="M69.3155 21.0095C68.6132 20.779 67.9488 20.4461 67.3438 20.0215C67.7175 20.057 68.0775 20.1804 68.3945 20.3815C68.9429 20.6578 69.349 20.955 69.3155 21.0095Z" fill="#263238"/>
<path d="M72.8281 23.6718C72.782 23.7179 72.4094 23.4039 71.9405 23.0104C71.4717 22.6169 71.1033 22.282 71.1577 22.2275C71.5147 22.3537 71.8373 22.5615 72.0996 22.8346C72.5559 23.2364 72.8741 23.63 72.8281 23.6718Z" fill="#263238"/>
<path d="M75.507 27.1675C75.4484 27.1968 75.1721 26.7907 74.8372 26.2883C74.6027 26.0004 74.4187 25.6749 74.293 25.3255C74.339 25.2878 74.6907 25.6478 75.0298 26.1627C75.266 26.4552 75.4296 26.7995 75.507 27.1675V27.1675Z" fill="#263238"/>
<path d="M77.0264 31.299C76.8467 30.9744 76.7222 30.6221 76.658 30.2566C76.5181 29.9116 76.4401 29.5445 76.4277 29.1724C76.6539 29.4737 76.8072 29.8233 76.8757 30.1938C77.0164 30.5441 77.0682 30.9238 77.0264 31.299Z" fill="#263238"/>
<path d="M77.2522 35.695C77.1775 35.3315 77.162 34.9583 77.2062 34.5898C77.1747 34.2197 77.2087 33.847 77.3067 33.4888C77.4345 33.8423 77.4789 34.2205 77.4364 34.594C77.4628 34.9704 77.3997 35.3477 77.2522 35.695Z" fill="#263238"/>
<path d="M76.1094 39.9402C76.1544 39.5727 76.2591 39.2149 76.4192 38.8811C76.5045 38.5221 76.6458 38.1788 76.8378 37.8638C76.8582 38.2409 76.7819 38.6171 76.6159 38.9564C76.5307 39.3211 76.3567 39.659 76.1094 39.9402Z" fill="#263238"/>
<path d="M73.5525 43.5153C73.5106 43.4651 73.8371 43.0967 74.2348 42.6446C74.6325 42.1924 74.9507 41.8073 75.0051 41.8534C74.8863 42.2119 74.6807 42.5355 74.4065 42.7953C74.0004 43.2642 73.5943 43.5614 73.5525 43.5153Z" fill="#263238"/>
<path d="M69.8594 45.893C70.1422 45.6538 70.4617 45.4616 70.8055 45.3237C71.1147 45.1187 71.4556 44.9659 71.8144 44.8716C71.5712 45.1612 71.2607 45.3869 70.9102 45.5288C70.5953 45.7351 70.2343 45.8602 69.8594 45.893Z" fill="#263238"/>
<path d="M65.5645 46.8179C65.9147 46.6892 66.284 46.6198 66.6571 46.6128C67.0192 46.5296 67.3925 46.5056 67.7623 46.5416C67.4337 46.7279 67.0641 46.83 66.6864 46.8389C66.3167 46.9274 65.9306 46.9202 65.5645 46.8179Z" fill="#263238"/>
<path d="M61.252 46.002C61.9678 46.151 62.6684 46.3654 63.3451 46.6425C62.9699 46.6893 62.5889 46.6373 62.2399 46.4918C61.8733 46.418 61.5326 46.2491 61.252 46.002Z" fill="#263238"/>
<path d="M58.1973 42.9709C58.2601 42.95 58.4526 43.3896 58.7959 43.8836C59.1392 44.3775 59.4699 44.7208 59.4239 44.7836C59.3778 44.8464 58.9676 44.5324 58.6075 44.0175C58.3543 43.7264 58.2093 43.3566 58.1973 42.9709Z" fill="#263238"/>
<path d="M60.0555 39.5421C60.0555 39.6091 59.5992 39.7556 59.122 40.0947C58.6447 40.4338 58.3894 40.8566 58.3307 40.8231C58.2721 40.7896 58.4563 40.2873 58.988 39.9105C59.284 39.6563 59.6658 39.5245 60.0555 39.5421V39.5421Z" fill="#263238"/>
<path d="M63.8402 41.1123C63.7816 41.1457 63.5137 40.7355 63.0783 40.3336C62.6429 39.9317 62.1992 39.7308 62.241 39.668C62.6299 39.6986 62.9924 39.8768 63.2541 40.1661C63.5548 40.4027 63.7624 40.7377 63.8402 41.1123V41.1123Z" fill="#263238"/>
<path d="M63.9824 45.3864C64.0135 45.0217 64.0822 44.6611 64.1876 44.3105C64.2189 43.9445 64.2876 43.5825 64.3927 43.2305C64.505 43.596 64.505 43.9869 64.3927 44.3524C64.3639 44.7307 64.2208 45.0913 63.9824 45.3864V45.3864Z" fill="#263238"/>
<path d="M61.1139 48.6727C61.0762 48.6182 61.4572 48.3043 61.9135 47.9149C62.3698 47.5256 62.7508 47.1907 62.7801 47.2325C62.8094 47.2744 62.5373 47.6847 62.0642 48.0698C61.5911 48.455 61.1474 48.7271 61.1139 48.6727Z" fill="#263238"/>
<path d="M57.2012 50.7071C57.4781 50.4565 57.8028 50.2643 58.1557 50.142C58.4776 49.9521 58.8354 49.831 59.2064 49.7861C58.6094 50.2294 57.9264 50.543 57.2012 50.7071V50.7071Z" fill="#263238"/>
<path d="M53.2617 52.7086C53.2282 52.6541 53.6259 52.3569 54.1534 52.0388C54.4611 51.824 54.813 51.681 55.1833 51.6201C55.2168 51.6829 54.7897 51.9383 54.2665 52.2397C53.9675 52.4637 53.6254 52.6233 53.2617 52.7086V52.7086Z" fill="#263238"/>
<path d="M49.913 55.5885C49.867 55.5466 50.1558 55.1364 50.5954 54.7052C50.8378 54.418 51.1429 54.1903 51.4871 54.0396C51.5289 54.0898 51.1899 54.4582 50.7587 54.8768C50.3275 55.2955 49.98 55.6304 49.913 55.5885Z" fill="#263238"/>
<path d="M47.4004 59.1972C47.4706 58.8278 47.6253 58.4796 47.8525 58.1799C48.1749 57.6566 48.5056 57.2799 48.5558 57.3175C48.4472 57.6731 48.2756 58.0064 48.0493 58.3013C47.7311 58.8162 47.459 59.2265 47.4004 59.1972Z" fill="#263238"/>
<path d="M45.7929 63.3C45.7715 62.925 45.8404 62.5503 45.9938 62.2074C46.0726 61.8391 46.2376 61.4948 46.4752 61.2026C46.3527 61.9303 46.1227 62.6357 45.7929 63.2958V63.3Z" fill="#263238"/>
<path d="M45.2159 67.6703C45.0641 66.9363 45.1162 66.1747 45.3667 65.4683C45.4304 65.8339 45.4304 66.2078 45.3667 66.5735C45.3812 66.9451 45.3301 67.3163 45.2159 67.6703V67.6703Z" fill="#263238"/>
<path d="M45.7931 72.0369C45.6052 71.7132 45.4869 71.3539 45.4457 70.9819C45.3226 70.6257 45.2909 70.2442 45.3536 69.8726C45.5157 70.2077 45.6231 70.5667 45.6717 70.9359C45.7877 71.2906 45.8291 71.6655 45.7931 72.0369Z" fill="#263238"/>
<path d="M47.4972 76.0975C47.4428 76.131 47.1455 75.7291 46.8734 75.1765C46.6715 74.8587 46.5494 74.4968 46.5176 74.1216C46.7588 74.4046 46.9486 74.7276 47.0786 75.0761C47.277 75.3893 47.4187 75.7351 47.4972 76.0975V76.0975Z" fill="#263238"/>
<path d="M50.1432 79.6266C50.1014 79.6684 49.7246 79.3503 49.306 78.8814C49.0364 78.6187 48.8302 78.298 48.7031 77.9437C48.7575 77.9018 49.0883 78.2702 49.4818 78.7307C49.8753 79.1912 50.1893 79.5805 50.1432 79.6266Z" fill="#263238"/>
<path d="M53.5415 82.4314C53.1777 82.3337 52.8421 82.1515 52.5619 81.8997C52.0679 81.5397 51.7246 81.1796 51.7581 81.1294C52.1038 81.2686 52.4225 81.4669 52.7 81.7155C53.1856 82.0713 53.575 82.3769 53.5415 82.4314Z" fill="#263238"/>
<path d="M57.5178 84.332C57.1411 84.3296 56.7706 84.2362 56.4377 84.0599C56.0747 83.9584 55.7425 83.7686 55.4707 83.5073C55.8373 83.5614 56.1924 83.676 56.5215 83.8464C56.8773 83.9543 57.2136 84.1183 57.5178 84.332Z" fill="#263238"/>
<path d="M59.7341 84.8975C59.7341 84.9563 59.6963 85.0067 59.6753 85.0025C59.6543 84.9983 59.6459 84.9437 59.6753 84.8807C59.7047 84.8177 59.7131 84.7715 59.7341 84.7757C59.7551 84.7799 59.7467 84.8345 59.7341 84.8975Z" fill="#263238"/>
<path d="M56.533 73.934L51.9551 72.4307L51.0199 75.2785L55.5978 76.7818L56.533 73.934Z" fill="#92E3A9"/>
<g opacity="0.3">
<path opacity="0.3" d="M56.533 73.934L51.9551 72.4307L51.0199 75.2785L55.5978 76.7818L56.533 73.934Z" fill="black"/>
</g>
<path d="M56.5229 73.9417C55.6669 74.3709 54.7797 74.7347 53.8688 75.0301L53.7893 75.0594L53.739 74.9924L53.6595 74.892C53.0243 74.1197 52.4517 73.2979 51.9473 72.4346C52.6373 73.1584 53.2713 73.9337 53.8437 74.7538L53.919 74.8543L53.7893 74.8166C54.6755 74.4519 55.5897 74.1593 56.5229 73.9417Z" fill="#92E3A9"/>
<g opacity="0.1">
<path opacity="0.1" d="M56.5229 73.9417C55.6669 74.3709 54.7797 74.7347 53.8688 75.0301L53.7893 75.0594L53.739 74.9924L53.6595 74.892C53.0243 74.1197 52.4517 73.2979 51.9473 72.4346C52.6373 73.1584 53.2713 73.9337 53.8437 74.7538L53.919 74.8543L53.7893 74.8166C54.6755 74.4519 55.5897 74.1593 56.5229 73.9417Z" fill="black"/>
</g>
<path d="M53.2604 74.1802C52.9453 74.4636 52.5805 74.6865 52.1845 74.8374C51.8197 75.0536 51.4203 75.2052 51.0039 75.2854C51.3218 75.0036 51.6876 74.781 52.084 74.6281C52.4478 74.4129 52.8456 74.2615 53.2604 74.1802V74.1802Z" fill="#92E3A9"/>
<g opacity="0.1">
<path opacity="0.1" d="M53.2604 74.1802C52.9453 74.4636 52.5805 74.6865 52.1845 74.8374C51.8197 75.0536 51.4203 75.2052 51.0039 75.2854C51.3218 75.0036 51.6876 74.781 52.084 74.6281C52.4478 74.4129 52.8456 74.2615 53.2604 74.1802V74.1802Z" fill="black"/>
</g>
<path d="M55.6688 76.8135C55.4125 76.4978 55.2141 76.1392 55.0827 75.7544C54.8064 75.1306 54.6222 74.5948 54.7059 74.6031C54.9628 74.9191 55.1625 75.2776 55.2962 75.6623C55.4912 76.0194 55.6176 76.4099 55.6688 76.8135V76.8135Z" fill="#92E3A9"/>
<g opacity="0.1">
<path opacity="0.1" d="M55.6688 76.8135C55.4125 76.4978 55.2141 76.1392 55.0827 75.7544C54.8064 75.1306 54.6222 74.5948 54.7059 74.6031C54.9628 74.9191 55.1625 75.2776 55.2962 75.6623C55.4912 76.0194 55.6176 76.4099 55.6688 76.8135V76.8135Z" fill="black"/>
</g>
<path d="M75.2007 85.0899L63.4277 81.2236L61.0218 88.55L72.7948 92.4162L75.2007 85.0899Z" fill="#92E3A9"/>
<path d="M75.1894 85.0982C75.0217 85.1945 74.845 85.2744 74.6619 85.3368L73.1967 85.9103C71.9408 86.3834 70.2286 87.0281 68.2987 87.7356L68.2192 87.7649L68.1689 87.6979L67.9722 87.4383C66.6911 85.7638 65.5357 84.2023 64.711 83.0762L63.7272 81.7407C63.6017 81.5809 63.491 81.4099 63.3965 81.23C63.55 81.3687 63.6902 81.5214 63.8151 81.6863L64.8408 82.9799C65.699 84.0767 66.8711 85.6047 68.1564 87.3002L68.3531 87.5555L68.2233 87.5179C70.1491 86.8146 71.8864 86.195 73.1423 85.7596L74.6326 85.2531C74.813 85.1841 74.9994 85.1323 75.1894 85.0982V85.0982Z" fill="#92E3A9"/>
<g opacity="0.2">
<path opacity="0.2" d="M75.1894 85.0982C75.0217 85.1945 74.845 85.2744 74.6619 85.3368L73.1967 85.9103C71.9408 86.3834 70.2286 87.0281 68.2987 87.7356L68.2192 87.7649L68.1689 87.6979L67.9722 87.4383C66.6911 85.7638 65.5357 84.2023 64.711 83.0762L63.7272 81.7407C63.6017 81.5809 63.491 81.4099 63.3965 81.23C63.55 81.3687 63.6902 81.5214 63.8151 81.6863L64.8408 82.9799C65.699 84.0767 66.8711 85.6047 68.1564 87.3002L68.3531 87.5555L68.2233 87.5179C70.1491 86.8146 71.8864 86.195 73.1423 85.7596L74.6326 85.2531C74.813 85.1841 74.9994 85.1323 75.1894 85.0982V85.0982Z" fill="black"/>
</g>
<path d="M66.8162 85.7217C65.9008 86.2937 64.9468 86.8014 63.9611 87.2413C63.0086 87.7466 62.0225 88.1858 61.0098 88.5559C61.9216 87.979 62.8744 87.4697 63.8607 87.032C64.8125 86.5235 65.8003 86.0855 66.8162 85.7217V85.7217Z" fill="#92E3A9"/>
<g opacity="0.2">
<path opacity="0.2" d="M66.8162 85.7217C65.9008 86.2937 64.9468 86.8014 63.9611 87.2413C63.0086 87.7466 62.0225 88.1858 61.0098 88.5559C61.9216 87.979 62.8744 87.4697 63.8607 87.032C64.8125 86.5235 65.8003 86.0855 66.8162 85.7217V85.7217Z" fill="black"/>
</g>
<path d="M72.9956 92.491C72.4805 91.5927 72.0313 90.6581 71.6518 89.6945C71.2045 88.7593 70.8267 87.7925 70.5215 86.8018C71.0372 87.7013 71.4863 88.6373 71.8653 89.6024C72.3129 90.536 72.6907 91.5016 72.9956 92.491V92.491Z" fill="#92E3A9"/>
<g opacity="0.2">
<path opacity="0.2" d="M72.9956 92.491C72.4805 91.5927 72.0313 90.6581 71.6518 89.6945C71.2045 88.7593 70.8267 87.7925 70.5215 86.8018C71.0372 87.7013 71.4863 88.6373 71.8653 89.6024C72.3129 90.536 72.6907 91.5016 72.9956 92.491V92.491Z" fill="black"/>
</g>
<path d="M64.0617 83.0344C63.7687 83.2494 63.4185 83.3727 63.0555 83.3887C62.6924 83.4047 62.3328 83.3127 62.022 83.1243C61.7112 82.936 61.4632 82.6597 61.3094 82.3305C61.1556 82.0012 61.1029 81.6338 61.1579 81.2745C61.2129 80.9153 61.3731 80.5805 61.6184 80.3123C61.8637 80.0441 62.1829 79.8547 62.5358 79.768C62.8887 79.6812 63.2594 79.701 63.6011 79.8249C63.9427 79.9488 64.2399 80.1712 64.4552 80.464C64.5983 80.6586 64.7016 80.8794 64.7592 81.1139C64.8169 81.3485 64.8277 81.592 64.7912 81.8308C64.7546 82.0695 64.6714 82.2987 64.5462 82.5052C64.421 82.7117 64.2564 82.8916 64.0617 83.0344V83.0344Z" fill="#263238"/>
<path d="M64.1453 81.2129C63.7564 81.502 63.3432 81.7569 62.9104 81.9748L62.6173 82.1381L62.5629 82.1674L62.5336 82.1172C62.3355 81.8029 62.1673 81.4707 62.0312 81.125C62.2645 81.4149 62.4679 81.7277 62.6383 82.0585L62.5587 82.0334L62.8518 81.866C63.2631 81.6111 63.696 81.3925 64.1453 81.2129Z" fill="white"/>
<path d="M67.6377 75.2182L61.4688 73.1924L60.2083 77.0306L66.3772 79.0564L67.6377 75.2182Z" fill="#92E3A9"/>
<g opacity="0.2">
<path opacity="0.2" d="M67.6377 75.2182L61.4688 73.1924L60.2083 77.0306L66.3772 79.0564L67.6377 75.2182Z" fill="black"/>
</g>
<path d="M67.6252 75.2225C67.5393 75.274 67.448 75.3161 67.3531 75.3481L66.5828 75.6495C65.9339 75.8965 65.0297 76.2356 64.0166 76.604H63.9747L63.9496 76.5663L63.8491 76.4323C63.1751 75.5448 62.5932 74.7369 62.1369 74.1466L61.6345 73.4642C61.5697 73.38 61.5123 73.2904 61.4629 73.1963C61.5405 73.2686 61.6106 73.3486 61.6722 73.4349L62.2123 74.1131C62.6602 74.6866 63.2756 75.4862 63.9454 76.3737L64.0501 76.5119H63.9831C64.992 76.1435 65.9004 75.8169 66.5619 75.5909L67.3405 75.3271C67.4312 75.2817 67.5267 75.2465 67.6252 75.2225V75.2225Z" fill="#92E3A9"/>
<g opacity="0.2">
<path opacity="0.2" d="M67.6252 75.2225C67.5393 75.274 67.448 75.3161 67.3531 75.3481L66.5828 75.6495C65.9339 75.8965 65.0297 76.2356 64.0166 76.604H63.9747L63.9496 76.5663L63.8491 76.4323C63.1751 75.5448 62.5932 74.7369 62.1369 74.1466L61.6345 73.4642C61.5697 73.38 61.5123 73.2904 61.4629 73.1963C61.5405 73.2686 61.6106 73.3486 61.6722 73.4349L62.2123 74.1131C62.6602 74.6866 63.2756 75.4862 63.9454 76.3737L64.0501 76.5119H63.9831C64.992 76.1435 65.9004 75.8169 66.5619 75.5909L67.3405 75.3271C67.4312 75.2817 67.5267 75.2465 67.6252 75.2225V75.2225Z" fill="#92E3A9"/>
</g>
<path d="M63.2407 75.5488C62.7609 75.8471 62.2616 76.1129 61.7462 76.3442C61.2462 76.6094 60.7287 76.8402 60.1973 77.035C60.6751 76.7321 61.1747 76.4649 61.6918 76.2354C62.1909 75.9696 62.7086 75.7401 63.2407 75.5488V75.5488Z" fill="#92E3A9"/>
<g opacity="0.2">
<path opacity="0.2" d="M63.2407 75.5488C62.7609 75.8471 62.2616 76.1129 61.7462 76.3442C61.2462 76.6094 60.7287 76.8402 60.1973 77.035C60.6751 76.7321 61.1747 76.4649 61.6918 76.2354C62.1909 75.9696 62.7086 75.7401 63.2407 75.5488V75.5488Z" fill="#92E3A9"/>
</g>
<path d="M66.4775 79.0949C66.2074 78.6245 65.9723 78.1347 65.7741 77.6297C65.5415 77.1388 65.3428 76.6325 65.1797 76.1143C65.6875 77.0733 66.1214 78.0698 66.4775 79.0949V79.0949Z" fill="#92E3A9"/>
<g opacity="0.2">
<path opacity="0.2" d="M66.4775 79.0949C66.2074 78.6245 65.9723 78.1347 65.7741 77.6297C65.5415 77.1388 65.3428 76.6325 65.1797 76.1143C65.6875 77.0733 66.1214 78.0698 66.4775 79.0949V79.0949Z" fill="#92E3A9"/>
</g>
<path d="M18.0958 27.1759C17.6701 28.8514 16.7572 30.363 15.4724 31.5197C14.1876 32.6763 12.5887 33.426 10.8778 33.674C9.16695 33.922 7.42097 33.6571 5.86065 32.9128C4.30033 32.1686 2.99574 30.9784 2.11182 29.4927C1.22791 28.007 0.804375 26.2926 0.894775 24.5662C0.985175 22.8399 1.58545 21.1791 2.61969 19.7938C3.65394 18.4086 5.07571 17.3611 6.70523 16.7839C8.33475 16.2067 10.0988 16.1256 11.7744 16.5509C14.0212 17.1223 15.9492 18.5625 17.1345 20.5548C18.3199 22.5472 18.6656 24.9287 18.0958 27.1759V27.1759Z" fill="#32BC9B"/>
<path d="M12.8509 20.2852C13.0058 20.348 12.0136 23.2743 10.6321 26.8243C10.427 27.3392 10.2135 27.8332 10.0419 28.3188L9.93721 28.5826L9.67347 28.4821C6.83931 27.3895 4.76706 26.4894 4.8173 26.3596C4.86754 26.2298 7.01932 26.908 9.87441 27.9421L9.50602 28.1095C9.69022 27.6239 9.88279 27.1257 10.0795 26.6108C11.4569 23.0566 12.7002 20.2392 12.8509 20.2852Z" fill="white"/>
</svg>
