<svg xmlns="http://www.w3.org/2000/svg" width="12.667" height="10.917" viewBox="0 0 12.667 10.917">
  <g id="Group_2" data-name="Group 2" transform="translate(-274 -310)">
    <path id="Vector" d="M9.917,10.958H4.084A2.616,2.616,0,0,1,1.167,8.042V3.958A2.616,2.616,0,0,1,4.084,1.042H9.917a2.616,2.616,0,0,1,2.917,2.917V8.042A2.616,2.616,0,0,1,9.917,10.958Z" transform="translate(273.333 309.458)" fill="none" stroke="#32bc9b" stroke-linecap="round" stroke-linejoin="round" stroke-miterlimit="10" stroke-width="1"/>
    <path id="Vector_Stroke_" data-name="Vector (Stroke)" d="M7.307.938a.5.5,0,0,1-.079.7L5.4,3.1a2.346,2.346,0,0,1-2.811,0h0L.77,1.64A.5.5,0,0,1,1.4.86L3.214,2.317h0a1.35,1.35,0,0,0,1.564,0h0L6.6.859A.5.5,0,0,1,7.307.938Z" transform="translate(276.417 312.25)" fill="#32bc9b" fill-rule="evenodd"/>
  </g>
</svg>
