<svg width="10" height="10" viewBox="0 0 10 10" fill="none" xmlns="http://www.w3.org/2000/svg">
<path d="M9.08268 5.00008C9.08268 5.32225 8.82151 5.58341 8.49935 5.58341H5.58268V8.50008C5.58268 8.82225 5.32151 9.08341 4.99935 9.08341C4.67718 9.08341 4.41602 8.82225 4.41602 8.50008V5.58341H1.49935C1.17718 5.58341 0.916016 5.32225 0.916016 5.00008C0.916016 4.67791 1.17718 4.41675 1.49935 4.41675H4.41602V1.50008C4.41602 1.17792 4.67718 0.916748 4.99935 0.916748C5.32151 0.916748 5.58268 1.17792 5.58268 1.50008V4.41675H8.49935C8.82151 4.41675 9.08268 4.67791 9.08268 5.00008Z" fill="#020A26"/>
</svg>
