<svg width="15" height="14" viewBox="0 0 15 14" fill="none" xmlns="http://www.w3.org/2000/svg">
<path fill-rule="evenodd" clip-rule="evenodd" d="M7.87158 2.91667C5.61642 2.91667 3.78825 4.74484 3.78825 7C3.78825 9.25516 5.61642 11.0833 7.87158 11.0833C10.1267 11.0833 11.9549 9.25516 11.9549 7H13.1216C13.1216 9.8995 10.7711 12.25 7.87158 12.25C4.97209 12.25 2.62158 9.89949 2.62158 7C2.62158 4.1005 4.97209 1.75 7.87158 1.75V2.91667Z" fill="white"/>
<path fill-rule="evenodd" clip-rule="evenodd" d="M7.28824 2.33334C7.28824 1.70884 7.80893 1.12349 8.51839 1.20264C9.06238 1.26334 9.59621 1.40042 10.1039 1.61071C10.8116 1.90386 11.4547 2.33354 11.9964 2.87522C12.538 3.41689 12.9677 4.05995 13.2609 4.76769C13.4712 5.27537 13.6082 5.8092 13.6689 6.35319C13.7481 7.06265 13.1627 7.58334 12.5382 7.58334L8.45491 7.58334C7.81057 7.58334 7.28824 7.061 7.28824 6.41667L7.28824 2.33334ZM8.45491 2.36994V6.41667L12.5016 6.41667C12.4497 6.00427 12.3427 5.59978 12.183 5.21415C11.9485 4.64796 11.6047 4.13352 11.1714 3.70017C10.7381 3.26683 10.2236 2.92309 9.65743 2.68857C9.2718 2.52883 8.86731 2.4219 8.45491 2.36994Z" fill="white"/>
</svg>
