<svg width="29" height="29" viewBox="0 0 29 29" fill="none" xmlns="http://www.w3.org/2000/svg">
<path opacity="0.196" d="M14.5 29C22.5081 29 29 22.5081 29 14.5C29 6.49187 22.5081 0 14.5 0C6.49187 0 0 6.49187 0 14.5C0 22.5081 6.49187 29 14.5 29Z" fill="#44B556"/>
<path d="M18.733 10.7422L17.733 9.74219L13.233 14.2422L14.233 15.2422L18.733 10.7422ZM21.742 9.74219L14.234 17.2512L11.267 14.2912L10.267 15.2912L14.234 19.2582L22.751 10.7412L21.742 9.74219ZM6.24902 15.2912L10.216 19.2582L11.216 18.2582L7.25602 14.2912L6.24902 15.2912Z" fill="#318B40"/>
</svg>
