<svg width="14" height="14" viewBox="0 0 14 14" fill="none" xmlns="http://www.w3.org/2000/svg">
<g id="Iconly/Light/Ticket">
<g id="Ticket">
<g id="Group">
<path id="Stroke 1" d="M8.07902 2.47934V3.89101" stroke="white" stroke-linecap="round" stroke-linejoin="round"/>
<path id="Stroke 3" d="M8.07902 10.36V11.5407" stroke="white" stroke-linecap="round" stroke-linejoin="round"/>
<path id="Stroke 6" d="M8.07902 8.35601V5.54376" stroke="white" stroke-linecap="round" stroke-linejoin="round"/>
</g>
<path id="Stroke 7" fill-rule="evenodd" clip-rule="evenodd" d="M10.9096 11.6667C11.9725 11.6667 12.8334 10.8165 12.8334 9.76684V8.25455C12.13 8.25455 11.5636 7.69517 11.5636 7.00061C11.5636 6.30605 12.13 5.74607 12.8334 5.74607L12.8327 4.23318C12.8327 3.18352 11.9713 2.33334 10.909 2.33334H3.09105C2.02879 2.33334 1.1673 3.18352 1.1673 4.23318L1.16669 5.79534C1.87 5.79534 2.43642 6.30605 2.43642 7.00061C2.43642 7.69517 1.87 8.25455 1.16669 8.25455V9.76684C1.16669 10.8165 2.02757 11.6667 3.09045 11.6667H10.9096Z" stroke="white" stroke-linecap="round" stroke-linejoin="round"/>
</g>
</g>
</svg>
