<svg width="10" height="11" viewBox="0 0 10 11" fill="none" xmlns="http://www.w3.org/2000/svg">
<path d="M5.5 2.86339H4.5V4.87432H2.5V5.87979H4.5V7.89072H5.5V5.87979H7.5V4.87432H5.5V2.86339ZM5 0.349731C2.24 0.349731 0 2.60197 0 5.37705C0 8.15214 2.24 10.4044 5 10.4044C7.76 10.4044 10 8.15214 10 5.37705C10 2.60197 7.76 0.349731 5 0.349731ZM5 9.39891C2.795 9.39891 1 7.5941 1 5.37705C1 3.16 2.795 1.3552 5 1.3552C7.205 1.3552 9 3.16 9 5.37705C9 7.5941 7.205 9.39891 5 9.39891Z" fill="#32BC9B"/>
</svg>
