<svg width="1221" height="1080" viewBox="0 0 1221 1080" fill="none" xmlns="http://www.w3.org/2000/svg">
<rect width="1221" height="1080" fill="#32BC9B"/>
<path d="M279 52.4022V0H0V268H54.6032V214.101H111.45V157.955H166.802V104.056H223.649V52.4022H279Z" fill="#0A9D7A"/>
<path d="M1003.5 46L1029.91 91.75H977.086L1003.5 46Z" fill="#0A9D7A" fill-opacity="0.49"/>
<path d="M977.5 92L1003.91 137.75H951.086L977.5 92Z" fill="#0A9D7A"/>
<path d="M1030 92L1055.98 137.75H1004.02L1030 92Z" fill="#0A9D7A" fill-opacity="0.49"/>
<path d="M1057.5 46L1083.91 91.75H1031.09L1057.5 46Z" fill="#0A9D7A"/>
<path d="M1087.5 92L1113.91 137.75H1061.09L1087.5 92Z" fill="#0A9D7A"/>
<circle cx="212.745" cy="572.745" r="6.7451" fill="#0A9D7A" fill-opacity="0.49"/>
<circle cx="212.745" cy="678.418" r="6.7451" fill="#0A9D7A" fill-opacity="0.49"/>
<circle cx="212.745" cy="625.582" r="6.7451" fill="#0A9D7A" fill-opacity="0.49"/>
<circle cx="212.745" cy="731.255" r="6.7451" fill="#0A9D7A" fill-opacity="0.49"/>
<circle cx="265.582" cy="572.745" r="6.7451" fill="#0A9D7A" fill-opacity="0.49"/>
<circle cx="265.582" cy="678.418" r="6.7451" fill="#0A9D7A" fill-opacity="0.49"/>
<circle cx="265.582" cy="625.582" r="6.7451" fill="#0A9D7A" fill-opacity="0.49"/>
<circle cx="265.582" cy="731.255" r="6.7451" fill="#0A9D7A" fill-opacity="0.49"/>
<circle cx="318.418" cy="572.745" r="6.7451" fill="#0A9D7A" fill-opacity="0.49"/>
<circle cx="318.418" cy="678.418" r="6.7451" fill="#0A9D7A" fill-opacity="0.49"/>
<circle cx="318.418" cy="625.582" r="6.7451" fill="#0A9D7A" fill-opacity="0.49"/>
<circle cx="318.418" cy="731.255" r="6.7451" fill="#0A9D7A" fill-opacity="0.49"/>
<circle cx="371.255" cy="572.745" r="6.7451" fill="#0A9D7A" fill-opacity="0.49"/>
<circle cx="371.255" cy="678.418" r="6.7451" fill="#0A9D7A" fill-opacity="0.49"/>
<circle cx="371.255" cy="625.582" r="6.7451" fill="#0A9D7A" fill-opacity="0.49"/>
<circle cx="371.255" cy="731.255" r="6.7451" fill="#0A9D7A" fill-opacity="0.49"/>
<circle cx="424.092" cy="572.745" r="6.7451" fill="#0A9D7A" fill-opacity="0.49"/>
<circle cx="424.092" cy="678.418" r="6.7451" fill="#0A9D7A" fill-opacity="0.49"/>
<circle cx="424.092" cy="625.582" r="6.7451" fill="#0A9D7A" fill-opacity="0.49"/>
<circle cx="424.092" cy="731.255" r="6.7451" fill="#0A9D7A" fill-opacity="0.49"/>
<path d="M247.5 1017L221.086 971.25L273.914 971.25L247.5 1017Z" fill="#0A9D7A" fill-opacity="0.49"/>
<path d="M221 971L195.019 925.25L246.981 925.25L221 971Z" fill="#0A9D7A" fill-opacity="0.49"/>
<path d="M193.5 1017L167.086 971.25L219.914 971.25L193.5 1017Z" fill="#0A9D7A"/>
<path d="M978 1034.64V1080H1220V848H1172.64V894.659H1123.33V943.263H1075.32V989.922H1026.01V1034.64H978Z" fill="#0A9D7A" fill-opacity="0.49"/>
</svg>
