<svg width="16" height="16" viewBox="0 0 16 16" fill="none" xmlns="http://www.w3.org/2000/svg">
<path d="M1.52661 5.18673V11.6734C1.52661 12.9401 2.42661 13.4601 3.51994 12.8334L5.08661 11.9401C5.42661 11.7467 5.99328 11.7267 6.34661 11.9067L9.84661 13.6601C10.1999 13.8334 10.7666 13.8201 11.1066 13.6267L13.9933 11.9734C14.3599 11.7601 14.6666 11.2401 14.6666 10.8134V4.32673C14.6666 3.06006 13.7666 2.54007 12.6733 3.16673L11.1066 4.06007C10.7666 4.2534 10.1999 4.2734 9.84661 4.0934L6.34661 2.34673C5.99328 2.1734 5.42661 2.18673 5.08661 2.38007L2.19994 4.0334C1.82661 4.24673 1.52661 4.76673 1.52661 5.18673Z" stroke="#292D32" stroke-linecap="round" stroke-linejoin="round"/>
<path d="M5.70679 2.66663V11.3333" stroke="#292D32" stroke-linecap="round" stroke-linejoin="round"/>
<path d="M10.4866 4.41333V13.3333" stroke="#292D32" stroke-linecap="round" stroke-linejoin="round"/>
</svg>
