<svg width="16" height="16" viewBox="0 0 16 16" fill="none" xmlns="http://www.w3.org/2000/svg">
<path d="M12.8673 5.28023V8.71358C12.8673 10.7669 11.694 11.6469 9.93396 11.6469H4.07395C3.77395 11.6469 3.48729 11.6203 3.22062 11.5603C3.05396 11.5336 2.89396 11.4869 2.74729 11.4336C1.74729 11.0603 1.14062 10.1936 1.14062 8.71358V5.28023C1.14062 3.2269 2.31395 2.34692 4.07395 2.34692H9.93396C11.4273 2.34692 12.5006 2.98025 12.7873 4.42692C12.834 4.69359 12.8673 4.9669 12.8673 5.28023Z" stroke="#32BC9B" stroke-miterlimit="10" stroke-linecap="round" stroke-linejoin="round"/>
<path d="M14.8693 7.28031V10.7137C14.8693 12.767 13.696 13.647 11.936 13.647H6.07599C5.58266 13.647 5.136 13.5803 4.74933 13.4337C3.956 13.1403 3.41599 12.5337 3.22266 11.5603C3.48932 11.6203 3.77599 11.647 4.07599 11.647H9.93599C11.696 11.647 12.8693 10.767 12.8693 8.71366V5.28031C12.8693 4.96698 12.8427 4.687 12.7893 4.427C14.056 4.69367 14.8693 5.58698 14.8693 7.28031Z" stroke="#32BC9B" stroke-miterlimit="10" stroke-linecap="round" stroke-linejoin="round"/>
<path d="M6.99829 8.76025C7.97031 8.76025 8.7583 7.97227 8.7583 7.00024C8.7583 6.02822 7.97031 5.24023 6.99829 5.24023C6.02627 5.24023 5.23828 6.02822 5.23828 7.00024C5.23828 7.97227 6.02627 8.76025 6.99829 8.76025Z" stroke="#32BC9B" stroke-miterlimit="10" stroke-linecap="round" stroke-linejoin="round"/>
<path d="M3.1875 5.53345V8.4668" stroke="#32BC9B" stroke-miterlimit="10" stroke-linecap="round" stroke-linejoin="round"/>
<path d="M10.8164 5.53369V8.46704" stroke="#32BC9B" stroke-miterlimit="10" stroke-linecap="round" stroke-linejoin="round"/>
</svg>
