<svg width="14" height="14" viewBox="0 0 14 14" fill="none" xmlns="http://www.w3.org/2000/svg">
<path d="M10.4999 4.17699C10.4649 4.17116 10.424 4.17116 10.389 4.17699C9.58405 4.14783 8.94238 3.48866 8.94238 2.67199C8.94238 1.83783 9.61322 1.16699 10.4474 1.16699C11.2815 1.16699 11.9524 1.84366 11.9524 2.67199C11.9465 3.48866 11.3049 4.14783 10.4999 4.17699Z" stroke="#020A26" stroke-linecap="round" stroke-linejoin="round"/>
<path d="M9.89934 8.42375C10.6985 8.55792 11.5793 8.41792 12.1977 8.00375C13.0202 7.45542 13.0202 6.55709 12.1977 6.00875C11.5735 5.59459 10.681 5.45458 9.88184 5.59458" stroke="#020A26" stroke-linecap="round" stroke-linejoin="round"/>
<path d="M3.48277 4.17699C3.51777 4.17116 3.55861 4.17116 3.59361 4.17699C4.39861 4.14783 5.04027 3.48866 5.04027 2.67199C5.04027 1.83783 4.36944 1.16699 3.53527 1.16699C2.70111 1.16699 2.03027 1.84366 2.03027 2.67199C2.03611 3.48866 2.67777 4.14783 3.48277 4.17699Z" stroke="#020A26" stroke-linecap="round" stroke-linejoin="round"/>
<path d="M4.08318 8.42375C3.28401 8.55792 2.40318 8.41792 1.78484 8.00375C0.962344 7.45542 0.962344 6.55709 1.78484 6.00875C2.40901 5.59459 3.30151 5.45458 4.10068 5.59458" stroke="#020A26" stroke-linecap="round" stroke-linejoin="round"/>
<path d="M6.99988 8.53442C6.96488 8.52858 6.92405 8.52858 6.88905 8.53442C6.08405 8.50525 5.44238 7.84608 5.44238 7.02942C5.44238 6.19525 6.11322 5.52441 6.94738 5.52441C7.78155 5.52441 8.45238 6.20108 8.45238 7.02942C8.44655 7.84608 7.80488 8.51108 6.99988 8.53442Z" stroke="#020A26" stroke-linecap="round" stroke-linejoin="round"/>
<path d="M5.30242 10.372C4.47992 10.9203 4.47992 11.8186 5.30242 12.367C6.23576 12.9911 7.76409 12.9911 8.69742 12.367C9.51992 11.8186 9.51992 10.9203 8.69742 10.372C7.76992 9.75362 6.23576 9.75362 5.30242 10.372Z" stroke="#020A26" stroke-linecap="round" stroke-linejoin="round"/>
</svg>
