<svg width="10" height="9" viewBox="0 0 10 9" fill="none" xmlns="http://www.w3.org/2000/svg">
<path d="M9.08268 4.47176C9.08268 4.79393 8.82151 5.05509 8.49935 5.05509H5.58268V7.97176C5.58268 8.29393 5.32151 8.55509 4.99935 8.55509C4.67718 8.55509 4.41602 8.29393 4.41602 7.97176V5.05509H1.49935C1.17718 5.05509 0.916016 4.79393 0.916016 4.47176C0.916016 4.14959 1.17718 3.88843 1.49935 3.88843H4.41602V0.971761C4.41602 0.649595 4.67718 0.388428 4.99935 0.388428C5.32151 0.388428 5.58268 0.649595 5.58268 0.971761V3.88843H8.49935C8.82151 3.88843 9.08268 4.14959 9.08268 4.47176Z" fill="white"/>
</svg>
