<svg width="14" height="14" viewBox="0 0 14 14" fill="none" xmlns="http://www.w3.org/2000/svg">
<path d="M12.833 3.50008V4.91175C12.833 5.83341 12.2497 6.41675 11.328 6.41675H9.33301V2.33925C9.33301 1.69175 9.86384 1.16675 10.5113 1.16675C11.1472 1.17258 11.7305 1.42925 12.1505 1.84925C12.5705 2.27508 12.833 2.85841 12.833 3.50008Z" stroke="#32BC9B" stroke-miterlimit="10" stroke-linecap="round" stroke-linejoin="round"/>
<path d="M1.16699 4.08341V12.2501C1.16699 12.7342 1.71532 13.0084 2.10032 12.7167L3.09783 11.9701C3.33116 11.7951 3.65783 11.8184 3.86783 12.0284L4.83616 13.0026C5.06366 13.2301 5.43699 13.2301 5.66449 13.0026L6.64449 12.0226C6.84866 11.8184 7.17532 11.7951 7.40282 11.9701L8.40033 12.7167C8.78533 13.0026 9.33366 12.7284 9.33366 12.2501V2.33341C9.33366 1.69175 9.85866 1.16675 10.5003 1.16675H4.08366H3.50033C1.75033 1.16675 1.16699 2.21091 1.16699 3.50008V4.08341Z" stroke="#32BC9B" stroke-miterlimit="10" stroke-linecap="round" stroke-linejoin="round"/>
<path d="M3.65723 8.00946L6.84223 4.82446" stroke="#32BC9B" stroke-linecap="round" stroke-linejoin="round"/>
<path d="M6.95643 7.87492H6.96167" stroke="#32BC9B" stroke-linecap="round" stroke-linejoin="round"/>
<path d="M3.61366 4.95841H3.6189" stroke="#32BC9B" stroke-linecap="round" stroke-linejoin="round"/>
</svg>
