<svg width="10" height="12" viewBox="0 0 10 12" fill="none" xmlns="http://www.w3.org/2000/svg">
<path fill-rule="evenodd" clip-rule="evenodd" d="M0.333344 2.49996C0.333344 1.21129 1.37801 0.166626 2.66668 0.166626H7.33334C8.62201 0.166626 9.66668 1.21129 9.66668 2.49996V10.6998C9.66668 11.6487 8.59408 12.2007 7.8219 11.6491L5.00001 9.63349L2.17812 11.6491C1.40594 12.2007 0.333344 11.6487 0.333344 10.6998V2.49996ZM2.66668 1.33329C2.02234 1.33329 1.50001 1.85563 1.50001 2.49996V10.6998L4.3219 8.68413C4.72755 8.39438 5.27247 8.39438 5.67812 8.68413L8.50001 10.6998V2.49996C8.50001 1.85563 7.97767 1.33329 7.33334 1.33329H2.66668Z" fill="#32BC9B"/>
</svg>
