<svg width="16" height="16" viewBox="0 0 16 16" fill="none" xmlns="http://www.w3.org/2000/svg">
<path d="M6.70026 1.68657L2.68692 4.30657C1.40026 5.14657 1.40026 7.02657 2.68692 7.86657L6.70026 10.4866C7.42026 10.9599 8.60692 10.9599 9.32692 10.4866L13.3203 7.86657C14.6003 7.02657 14.6003 5.15324 13.3203 4.31324L9.32692 1.69324C8.60692 1.21324 7.42026 1.21324 6.70026 1.68657Z" stroke="#292D32" stroke-linecap="round" stroke-linejoin="round"/>
<path d="M3.75325 8.71997L3.74658 11.8466C3.74658 12.6933 4.39992 13.6 5.19992 13.8666L7.32658 14.5733C7.69325 14.6933 8.29991 14.6933 8.67325 14.5733L10.7999 13.8666C11.5999 13.6 12.2532 12.6933 12.2532 11.8466V8.7533" stroke="#292D32" stroke-linecap="round" stroke-linejoin="round"/>
<path d="M14.2666 10V6" stroke="#292D32" stroke-linecap="round" stroke-linejoin="round"/>
</svg>
