<svg width="14" height="14" viewBox="0 0 14 14" fill="none" xmlns="http://www.w3.org/2000/svg">
<path fill-rule="evenodd" clip-rule="evenodd" d="M7 2.33332C6.0335 2.33332 5.25 3.11682 5.25 4.08332C5.25 5.04982 6.0335 5.83332 7 5.83332C7.9665 5.83332 8.75 5.04982 8.75 4.08332C8.75 3.11682 7.9665 2.33332 7 2.33332ZM4.08334 4.08332C4.08334 2.47249 5.38917 1.16666 7 1.16666C8.61083 1.16666 9.91667 2.47249 9.91667 4.08332C9.91667 5.69415 8.61083 6.99999 7 6.99999C5.38917 6.99999 4.08334 5.69415 4.08334 4.08332Z" fill="white"/>
<path fill-rule="evenodd" clip-rule="evenodd" d="M7 11.6667C5.2915 11.6667 4.27853 11.1498 3.69564 10.483C3.51803 10.2798 3.47174 10.1012 3.47711 9.95468C3.48284 9.79834 3.55042 9.6174 3.70255 9.43203C4.01502 9.05125 4.60911 8.75001 5.25 8.75001H8.75C9.3909 8.75001 9.98498 9.05125 10.2975 9.43203C10.4496 9.6174 10.5172 9.79834 10.5229 9.95468C10.5283 10.1012 10.482 10.2798 10.3044 10.483C9.72147 11.1498 8.7085 11.6667 7 11.6667ZM2.81726 11.2508C3.67625 12.2335 5.04774 12.8333 7 12.8333C8.95226 12.8333 10.3238 12.2335 11.1827 11.2508C11.5352 10.8476 11.7061 10.3854 11.6888 9.91197C11.6718 9.44832 11.4768 9.03001 11.1993 8.69194C10.6527 8.02581 9.71994 7.58334 8.75 7.58334H5.25C4.28007 7.58334 3.3473 8.02581 2.80067 8.69194C2.52324 9.03001 2.32821 9.44832 2.31123 9.91197C2.29388 10.3854 2.46479 10.8476 2.81726 11.2508Z" fill="white"/>
</svg>
