<svg id="Calque_1" data-name="Calque 1" xmlns="http://www.w3.org/2000/svg" viewBox="0 0 20 20"><defs><style>.cls-1{fill:#020a26;fill-rule:evenodd;}</style></defs><path class="cls-1" d="M11.82,2.67a2.81,2.81,0,0,0-3.64,0L2.8,7.12A2.25,2.25,0,0,0,2,8.87v6.94A2.1,2.1,0,0,0,4,18H6V14.75a4.09,4.09,0,0,1,4-4.19,4.09,4.09,0,0,1,4,4.19V18h2a2.1,2.1,0,0,0,2-2.19V8.87a2.25,2.25,0,0,0-.8-1.75Zm1.27-1.54,5.39,4.45A4.26,4.26,0,0,1,20,8.87v6.94A4.09,4.09,0,0,1,16,20H14a2,2,0,0,1-2-2V14.75a2.1,2.1,0,0,0-2-2.19,2.1,2.1,0,0,0-2,2.19V18a2,2,0,0,1-2,2H4a4.09,4.09,0,0,1-4-4.19V8.87A4.26,4.26,0,0,1,1.52,5.58L6.91,1.13A4.78,4.78,0,0,1,13.09,1.13Z"/></svg>