<svg id="Calque_1" data-name="Calque 1" xmlns="http://www.w3.org/2000/svg" viewBox="0 0 20 20"><defs><style>.cls-1{fill:#020a26;}</style></defs><path class="cls-1" d="M12.91,16.56A6.54,6.54,0,0,1,7.1,13h4.8a1,1,0,1,0,0-2H6.43a6.42,6.42,0,0,1,0-2H11.9a1,1,0,0,0,0-2H7.1a6.53,6.53,0,0,1,9.11-2.63A1.48,1.48,0,0,0,18,4.19a1.14,1.14,0,0,0-.11-1.77A9.07,9.07,0,0,0,4.35,7H1.81a1,1,0,0,0,0,2H3.89a8.53,8.53,0,0,0,0,2H1.81a1,1,0,1,0,0,2H4.35a9.08,9.08,0,0,0,8.56,6,9,9,0,0,0,5-1.5A1.14,1.14,0,0,0,18,15.81a1.48,1.48,0,0,0-1.8-.15A6.44,6.44,0,0,1,12.91,16.56Z"/></svg>