<svg id="Calque_1" data-name="Calque 1" xmlns="http://www.w3.org/2000/svg" viewBox="0 0 20 20"><defs><style>.cls-1{fill:none;stroke:#020a26;stroke-width:2px;}</style></defs><path class="cls-1" d="M16.17,8.61a.92.92,0,0,1-.7-.63A5.59,5.59,0,0,0,5.36,6.69a.91.91,0,0,1-.6.41A4.47,4.47,0,0,0,5.64,16h9.7a3.72,3.72,0,0,0,.83-7.35Zm-4,2.13a.59.59,0,0,1,.37,1l-2,1.57a.75.75,0,0,1-.94,0l-2-1.57a.59.59,0,0,1,.37-1h0a.58.58,0,0,0,.58-.58V7.76A.74.74,0,0,1,9.37,7h1.5a.74.74,0,0,1,.74.75v2.4a.58.58,0,0,0,.58.58Z"/></svg>