<svg width="14" height="14" viewBox="0 0 14 14" fill="none" xmlns="http://www.w3.org/2000/svg">
<path d="M11.0833 6.99999C11.0833 7.32216 10.8221 7.58332 10.5 7.58332H7.58329V10.5C7.58329 10.8222 7.32212 11.0833 6.99996 11.0833C6.67779 11.0833 6.41663 10.8222 6.41663 10.5V7.58332H3.49996C3.17779 7.58332 2.91663 7.32216 2.91663 6.99999C2.91663 6.67782 3.17779 6.41666 3.49996 6.41666H6.41663V3.49999C6.41663 3.17782 6.67779 2.91666 6.99996 2.91666C7.32212 2.91666 7.58329 3.17782 7.58329 3.49999V6.41666H10.5C10.8221 6.41666 11.0833 6.67782 11.0833 6.99999Z" fill="white"/>
</svg>
