<svg width="14" height="14" viewBox="0 0 14 14" fill="none" xmlns="http://www.w3.org/2000/svg">
<path fill-rule="evenodd" clip-rule="evenodd" d="M3.11788 1.75C2.65416 1.75 2.27792 2.16584 2.27792 2.67773V3.22376C2.27792 3.60294 2.41058 3.96759 2.64787 4.24186L5.24837 7.24752L5.24951 7.24563C5.75154 7.80429 6.034 8.5595 6.034 9.34693V12.0139C6.034 12.1921 6.20554 12.3058 6.34792 12.2218L7.82885 11.3446C8.05242 11.2119 8.19193 10.954 8.19193 10.6741V9.33998C8.19193 8.55697 8.47039 7.80492 8.96785 7.24752L11.5683 4.24186C11.8051 3.96759 11.9377 3.60294 11.9377 3.22376V2.67773C11.9377 2.16584 11.5621 1.75 11.0983 1.75H3.11788Z" stroke="white" stroke-width="1.5" stroke-linecap="round" stroke-linejoin="round"/>
</svg>
