<svg width="14" height="14" viewBox="0 0 14 14" fill="none" xmlns="http://www.w3.org/2000/svg">
<path fill-rule="evenodd" clip-rule="evenodd" d="M2.8982 3.04237C4.30881 2.57187 5.73427 3.45547 6.13022 4.88607C6.40002 5.8609 6.1445 6.88309 5.52143 7.58303C5.64904 7.7483 5.78848 7.9072 5.93986 8.05869C6.0905 8.20944 6.24845 8.34836 6.41269 8.47554C7.11238 7.84755 8.13765 7.58916 9.1153 7.86014C10.5456 8.2566 11.4276 9.68316 10.9578 11.0937C10.6496 12.0192 10.0748 12.5815 9.3083 12.7666C8.59605 12.9386 7.8281 12.7558 7.15079 12.4742C5.78662 11.9071 4.4396 10.7901 3.82441 10.1745C3.19471 9.54431 2.08252 8.19534 1.52058 6.83374C1.24153 6.15761 1.06186 5.39251 1.23424 4.68353C1.4197 3.92077 1.97916 3.3489 2.8982 3.04237ZM5.00583 5.19727C4.76509 4.32746 3.96521 3.91633 3.26734 4.1491C2.65391 4.3537 2.44115 4.65784 2.36788 4.95916C2.28154 5.31427 2.35662 5.80134 2.59901 6.38867C3.07995 7.554 4.07739 8.77711 4.64968 9.34983C5.20812 9.90869 6.42995 10.9111 7.59862 11.3969C8.18772 11.6418 8.67719 11.7188 9.03446 11.6325C9.33744 11.5594 9.64431 11.3454 9.85089 10.7251C10.0839 10.0256 9.67205 9.22512 8.80367 8.98442C8.1574 8.80529 7.49297 9.01283 7.09752 9.43633C6.84217 9.7098 6.35542 9.86571 5.94128 9.57663C5.6499 9.37324 5.37316 9.14211 5.11459 8.88334C4.85561 8.62417 4.62438 8.34677 4.42095 8.05473C4.13371 7.64236 4.28698 7.1575 4.55847 6.90155C4.97884 6.50525 5.18433 5.84225 5.00583 5.19727Z" fill="white"/>
</svg>
