<svg width="15" height="14" viewBox="0 0 15 14" fill="none" xmlns="http://www.w3.org/2000/svg">
<path fill-rule="evenodd" clip-rule="evenodd" d="M6.12158 7.58333C6.12158 6.29467 7.16625 5.25 8.45492 5.25H11.3716C12.6602 5.25 13.7049 6.29467 13.7049 7.58333V10.5C13.7049 11.7887 12.6602 12.8333 11.3716 12.8333H8.45492C7.16625 12.8333 6.12158 11.7887 6.12158 10.5V7.58333ZM8.45492 6.41667C7.81058 6.41667 7.28825 6.939 7.28825 7.58333V10.5C7.28825 11.1443 7.81058 11.6667 8.45492 11.6667H11.3716C12.0159 11.6667 12.5382 11.1443 12.5382 10.5V7.58333C12.5382 6.939 12.0159 6.41667 11.3716 6.41667H8.45492Z" fill="white"/>
<path fill-rule="evenodd" clip-rule="evenodd" d="M2.03824 3.49999C2.03824 2.21133 3.08291 1.16666 4.37157 1.16666H7.28824C8.5769 1.16666 9.62157 2.21133 9.62157 3.49999V3.62152C9.62157 3.94368 9.3604 4.20485 9.03824 4.20485C8.71607 4.20485 8.45491 3.94368 8.45491 3.62152V3.49999C8.45491 2.85566 7.93257 2.33332 7.28824 2.33332H4.37157C3.72724 2.33332 3.20491 2.85566 3.20491 3.49999V6.41666C3.20491 7.06099 3.72724 7.58332 4.37157 7.58332H4.4931C4.81527 7.58332 5.07643 7.84449 5.07643 8.16666C5.07643 8.48882 4.81527 8.74999 4.4931 8.74999H4.37157C3.08291 8.74999 2.03824 7.70532 2.03824 6.41666V3.49999Z" fill="white"/>
</svg>
