<svg width="14" height="14" viewBox="0 0 14 14" fill="none" xmlns="http://www.w3.org/2000/svg">
<path fill-rule="evenodd" clip-rule="evenodd" d="M7.16025 2.40246C7.05551 2.37253 6.94448 2.37253 6.83974 2.40246L3.92307 3.23579C3.67265 3.30734 3.49999 3.53624 3.49999 3.79668V6.93178C3.49999 8.2505 4.13685 9.48804 5.20994 10.2545L6.66094 11.291C6.86376 11.4358 7.13623 11.4358 7.33905 11.291L8.79005 10.2545C9.86313 9.48804 10.5 8.2505 10.5 6.93178V3.79668C10.5 3.53624 10.3273 3.30734 10.0769 3.23579L7.16025 2.40246ZM6.51923 1.28068C6.83345 1.1909 7.16653 1.1909 7.48076 1.28068L10.3974 2.11401C11.1487 2.32867 11.6667 3.01534 11.6667 3.79668V6.93178C11.6667 8.62727 10.8478 10.2184 9.46816 11.2039L8.01716 12.2403C7.40869 12.6749 6.5913 12.6749 5.98283 12.2403L4.53183 11.2039C3.15215 10.2184 2.33333 8.62727 2.33333 6.93178V3.79668C2.33333 3.01534 2.85129 2.32867 3.60257 2.11401L6.51923 1.28068Z" fill="white"/>
<path fill-rule="evenodd" clip-rule="evenodd" d="M9.14896 4.82443C9.38399 5.04477 9.3959 5.41392 9.17556 5.64895L6.98806 7.98229C6.77908 8.2052 6.43351 8.22908 6.19586 8.03703L4.88336 6.97643C4.63278 6.77394 4.59379 6.40666 4.79628 6.15608C4.99877 5.9055 5.36605 5.86652 5.61663 6.069L6.5076 6.78898L8.32443 4.85102C8.54477 4.61599 8.91393 4.60408 9.14896 4.82443Z" fill="white"/>
</svg>
