<svg width="14" height="14" viewBox="0 0 14 14" fill="none" xmlns="http://www.w3.org/2000/svg">
<path fill-rule="evenodd" clip-rule="evenodd" d="M3.49999 2.33332C2.85566 2.33332 2.33332 2.85566 2.33332 3.49999V10.5C2.33332 11.1443 2.85566 11.6667 3.49999 11.6667H10.5C11.1443 11.6667 11.6667 11.1443 11.6667 10.5V5.24999C11.6667 4.60566 11.1443 4.08332 10.5 4.08332H7.58332C7.0325 4.08332 6.51382 3.82398 6.18332 3.38332L5.57082 2.56666C5.46066 2.41977 5.28777 2.33332 5.10416 2.33332H3.49999ZM1.16666 3.49999C1.16666 2.21133 2.21133 1.16666 3.49999 1.16666H5.10416C5.65498 1.16666 6.17366 1.426 6.50416 1.86666L7.11666 2.68332C7.22682 2.83021 7.39971 2.91666 7.58332 2.91666H10.5C11.7887 2.91666 12.8333 3.96133 12.8333 5.24999V10.5C12.8333 11.7887 11.7887 12.8333 10.5 12.8333H3.49999C2.21133 12.8333 1.16666 11.7887 1.16666 10.5V3.49999Z" fill="white"/>
<path fill-rule="evenodd" clip-rule="evenodd" d="M9.14898 6.57443C9.38401 6.79477 9.39592 7.16393 9.17557 7.39896L6.98807 9.73229C6.7791 9.9552 6.43352 9.97908 6.19587 9.78704L4.88337 8.72643C4.63279 8.52394 4.59381 8.15666 4.7963 7.90608C4.99878 7.6555 5.36607 7.61652 5.61665 7.81901L6.50761 8.53898L8.32445 6.60103C8.54479 6.36599 8.91394 6.35409 9.14898 6.57443Z" fill="white"/>
</svg>
