<svg id="Calque_1" data-name="Calque 1" xmlns="http://www.w3.org/2000/svg" viewBox="0 0 20 20"><defs><style>.cls-1{fill:#020a26;fill-rule:evenodd;}</style></defs><path class="cls-1" d="M10,8a2,2,0,1,0,2,2A2,2,0,0,0,10,8ZM6,10a4,4,0,1,1,4,4A4,4,0,0,1,6,10Z"/><path class="cls-1" d="M6.73,2.54A2.54,2.54,0,0,1,9.27,0h1.46a2.54,2.54,0,0,1,2.54,2.54.8.8,0,0,0,.48.65l.3.18a.83.83,0,0,0,.83.08,2.57,2.57,0,0,1,3.5.94l.7,1.21a2.54,2.54,0,0,1-.93,3.48.82.82,0,0,0-.34.75v.33a.82.82,0,0,0,.34.75,2.54,2.54,0,0,1,.93,3.48l-.7,1.21a2.57,2.57,0,0,1-3.5.94.83.83,0,0,0-.83.08l-.3.18a.8.8,0,0,0-.48.65A2.55,2.55,0,0,1,10.73,20H9.27a2.55,2.55,0,0,1-2.54-2.55.8.8,0,0,0-.48-.65L6,16.62a.83.83,0,0,0-.83-.08,2.57,2.57,0,0,1-3.5-.94l-.7-1.21a2.54,2.54,0,0,1,.93-3.48.82.82,0,0,0,.34-.75V9.83a.82.82,0,0,0-.34-.75A2.54,2.54,0,0,1,.92,5.6l.7-1.21a2.57,2.57,0,0,1,3.5-.94A.83.83,0,0,0,6,3.37l.3-.18A.8.8,0,0,0,6.73,2.54ZM9.27,2a.54.54,0,0,0-.54.54A2.8,2.8,0,0,1,7.21,5L7,5.08a2.83,2.83,0,0,1-2.86.11.56.56,0,0,0-.77.2L2.65,6.6a.54.54,0,0,0,.2.75A2.79,2.79,0,0,1,4.19,9.87v.25a2.79,2.79,0,0,1-1.34,2.52.54.54,0,0,0-.2.75l.7,1.21a.56.56,0,0,0,.77.2A2.83,2.83,0,0,1,7,14.91l.23.13a2.8,2.8,0,0,1,1.52,2.41.55.55,0,0,0,.54.55h1.46a.55.55,0,0,0,.54-.55A2.8,2.8,0,0,1,12.79,15l.23-.13a2.83,2.83,0,0,1,2.86-.11.56.56,0,0,0,.77-.2l.7-1.21a.55.55,0,0,0-.2-.75,2.79,2.79,0,0,1-1.34-2.52V9.87a2.79,2.79,0,0,1,1.34-2.52.55.55,0,0,0,.2-.75l-.7-1.21a.56.56,0,0,0-.77-.2A2.83,2.83,0,0,1,13,5.08L12.79,5a2.8,2.8,0,0,1-1.52-2.41A.54.54,0,0,0,10.73,2Z"/></svg>