<svg id="Calque_1" data-name="Calque 1" xmlns="http://www.w3.org/2000/svg" viewBox="0 0 20 20"><defs><style>.cls-1{fill:#020a26;fill-rule:evenodd;}</style></defs><path class="cls-1" d="M0,6A5,5,0,0,1,5,1H15a5,5,0,0,1,5,5v9a5,5,0,0,1-5,5H5a5,5,0,0,1-5-5ZM5,3A3,3,0,0,0,2,6v9a3,3,0,0,0,3,3H15a3,3,0,0,0,3-3V6a3,3,0,0,0-3-3Z"/><path class="cls-1" d="M6,0A1,1,0,0,1,7,1V4A1,1,0,0,1,5,4V1A1,1,0,0,1,6,0Z"/><path class="cls-1" d="M4,8A1,1,0,0,1,5,7H15a1,1,0,0,1,0,2H5A1,1,0,0,1,4,8Z"/><path class="cls-1" d="M13,15a1,1,0,0,1,1-1h1a1,1,0,0,1,0,2H14A1,1,0,0,1,13,15Z"/><path class="cls-1" d="M14,0a1,1,0,0,1,1,1V4a1,1,0,0,1-2,0V1A1,1,0,0,1,14,0Z"/></svg>