<svg width="17" height="17" viewBox="0 0 17 17" fill="none" xmlns="http://www.w3.org/2000/svg">
<path fill-rule="evenodd" clip-rule="evenodd" d="M13.5811 2.375C13.3532 2.375 13.1345 2.46556 12.9733 2.62677L3.43764 12.1624C3.10122 12.4989 2.86256 12.9204 2.74717 13.3819L2.5183 14.2974L3.43378 14.0686C3.89534 13.9532 4.31686 13.7145 4.65328 13.3781L14.189 3.84241C14.2688 3.76259 14.3321 3.66783 14.3753 3.56354C14.4185 3.45925 14.4407 3.34748 14.4407 3.23459C14.4407 3.12171 14.4185 3.00993 14.3753 2.90564C14.3321 2.80135 14.2688 2.70659 14.189 2.62677C14.1091 2.54695 14.0144 2.48363 13.9101 2.44043C13.8058 2.39723 13.694 2.375 13.5811 2.375ZM11.7359 1.38933C12.2253 0.899938 12.889 0.625 13.5811 0.625C13.9238 0.625 14.2632 0.692499 14.5798 0.823643C14.8964 0.954788 15.1841 1.14701 15.4264 1.38933C15.6687 1.63165 15.8609 1.91933 15.9921 2.23594C16.1232 2.55255 16.1907 2.8919 16.1907 3.23459C16.1907 3.57729 16.1232 3.91663 15.9921 4.23324C15.8609 4.54985 15.6687 4.83753 15.4264 5.07985L5.89072 14.6155C5.33002 15.1762 4.62749 15.574 3.85822 15.7663L1.52794 16.3489C1.22976 16.4234 0.914337 16.3361 0.697004 16.1187C0.479672 15.9014 0.392304 15.586 0.466848 15.2878L1.04942 12.9575C1.24173 12.1882 1.6395 11.4857 2.2002 10.925L11.7359 1.38933Z" fill="#32BC9B"/>
<path fill-rule="evenodd" clip-rule="evenodd" d="M12.072 7.36866L9.44699 4.74366L10.6844 3.50623L13.3094 6.13123L12.072 7.36866Z" fill="#32BC9B"/>
</svg>
