<svg width="16" height="16" viewBox="0 0 16 16" fill="none" xmlns="http://www.w3.org/2000/svg">
<path fill-rule="evenodd" clip-rule="evenodd" d="M8.0628 2.91706C7.94485 2.88336 7.81983 2.88337 7.70189 2.91706L4.41758 3.85544C4.13558 3.93601 3.94117 4.19375 3.94117 4.48703V8.01731C3.94117 9.50225 4.6583 10.8958 5.86665 11.7589L7.50055 12.926C7.72894 13.0891 8.03575 13.0891 8.26414 12.926L9.89804 11.7589C11.1064 10.8958 11.8235 9.50225 11.8235 8.01731V4.48703C11.8235 4.19375 11.6291 3.93601 11.3471 3.85544L8.0628 2.91706ZM7.34098 1.65388C7.69481 1.55279 8.06988 1.55279 8.42371 1.65388L11.708 2.59226C12.554 2.83397 13.1372 3.6072 13.1372 4.48703V8.01731C13.1372 9.92652 12.2152 11.7182 10.6616 12.8279L9.02772 13.995C8.34256 14.4844 7.42213 14.4844 6.73696 13.995L5.10306 12.8279C3.54947 11.7182 2.62744 9.92652 2.62744 8.01731V4.48703C2.62744 3.6072 3.21069 2.83397 4.05667 2.59226L7.34098 1.65388Z" fill="#32BC9B"/>
</svg>
