<svg width="15" height="16" viewBox="0 0 15 16" fill="none" xmlns="http://www.w3.org/2000/svg">
<path fill-rule="evenodd" clip-rule="evenodd" d="M3.9233 3.47254C3.28918 3.47254 2.77513 4.03131 2.77513 4.72058V12.2088C2.77513 12.8981 3.28918 13.4568 3.9233 13.4568H10.8123C11.4465 13.4568 11.9605 12.8981 11.9605 12.2088V6.82664C11.9605 6.13737 11.4465 5.57861 10.8123 5.57861H7.9823C7.40646 5.57861 6.86871 5.26578 6.54929 4.74498L5.93931 3.75042C5.83283 3.57682 5.65359 3.47254 5.46164 3.47254H3.9233ZM1.62695 4.72058C1.62695 3.34203 2.65506 2.2245 3.9233 2.2245H5.46164C6.03748 2.2245 6.57522 2.53733 6.89464 3.05813L7.50463 4.05269C7.6111 4.22629 7.79035 4.33057 7.9823 4.33057H10.8123C12.0806 4.33057 13.1087 5.4481 13.1087 6.82664V12.2088C13.1087 13.5874 12.0806 14.7049 10.8123 14.7049H3.9233C2.65506 14.7049 1.62695 13.5874 1.62695 12.2088V4.72058Z" fill="#32BC9B"/>
</svg>
