<svg width="11" height="12" viewBox="0 0 11 12" fill="none" xmlns="http://www.w3.org/2000/svg">
<path fill-rule="evenodd" clip-rule="evenodd" d="M0.616619 8.33334L3.81881 8.33334C4.1152 8.33334 4.35547 8.59451 4.35547 8.91668C4.35547 9.23885 4.1152 9.50002 3.81881 9.50002L0.616619 9.50002C0.320228 9.50002 0.0799561 9.23885 0.0799561 8.91668C0.0799561 8.59451 0.320228 8.33334 0.616619 8.33334Z" fill="#055C48"/>
<path fill-rule="evenodd" clip-rule="evenodd" d="M6.51978 3.08334C6.51978 2.76117 6.76005 2.5 7.05644 2.5H10.2764C10.5728 2.5 10.8131 2.76117 10.8131 3.08334C10.8131 3.4055 10.5728 3.66667 10.2764 3.66667H7.05644C6.76005 3.66667 6.51978 3.4055 6.51978 3.08334Z" fill="#055C48"/>
<path fill-rule="evenodd" clip-rule="evenodd" d="M0.0799561 3.08334C0.0799561 2.76117 0.320265 2.5 0.616701 2.5H0.622069C0.918505 2.5 1.15881 2.76117 1.15881 3.08334C1.15881 3.4055 0.918505 3.66667 0.622068 3.66667H0.616701C0.320265 3.66667 0.0799561 3.4055 0.0799561 3.08334Z" fill="#055C48"/>
<path fill-rule="evenodd" clip-rule="evenodd" d="M9.73987 8.91665C9.73987 8.59448 9.98012 8.33331 10.2765 8.33331H10.2819C10.5782 8.33331 10.8185 8.59448 10.8185 8.91665C10.8185 9.23882 10.5782 9.49998 10.2819 9.49998H10.2765C9.98012 9.49998 9.73987 9.23882 9.73987 8.91665Z" fill="#055C48"/>
<path fill-rule="evenodd" clip-rule="evenodd" d="M7.021 7.74998C6.43594 7.74998 5.9566 8.26927 5.9566 8.91665C5.9566 9.56403 6.43594 10.0833 7.021 10.0833C7.60605 10.0833 8.0854 9.56403 8.0854 8.91665C8.0854 8.26926 7.60605 7.74998 7.021 7.74998ZM4.8833 8.91665C4.8833 7.63103 5.83758 6.58331 7.021 6.58331C8.20441 6.58331 9.15869 7.63103 9.15869 8.91665C9.15869 10.2023 8.20441 11.25 7.021 11.25C5.83758 11.25 4.8833 10.2023 4.8833 8.91665Z" fill="#055C48"/>
<path fill-rule="evenodd" clip-rule="evenodd" d="M3.81885 1.91667C3.23379 1.91667 2.75445 2.43595 2.75445 3.08334C2.75445 3.73072 3.23379 4.25 3.81885 4.25C4.4039 4.25 4.88325 3.73072 4.88325 3.08334C4.88325 2.43595 4.4039 1.91667 3.81885 1.91667ZM1.68115 3.08334C1.68115 1.79772 2.63543 0.75 3.81885 0.75C5.00226 0.75 5.95654 1.79772 5.95654 3.08334C5.95654 4.36895 5.00226 5.41667 3.81885 5.41667C2.63543 5.41667 1.68115 4.36895 1.68115 3.08334Z" fill="#055C48"/>
</svg>
