<svg width="18" height="17" viewBox="0 0 18 17" fill="none" xmlns="http://www.w3.org/2000/svg">
<path d="M13.2807 5.35821C13.5455 5.09345 13.5455 4.66418 13.2807 4.39941C13.0159 4.13465 12.5867 4.13465 12.3219 4.39941L9.00011 7.72121L5.67831 4.39941C5.41355 4.13465 4.98428 4.13465 4.71951 4.39941C4.45475 4.66418 4.45475 5.09345 4.71951 5.35821L8.04131 8.68001L4.71951 12.0018C4.45475 12.2666 4.45475 12.6958 4.71951 12.9606C4.98428 13.2254 5.41355 13.2254 5.67831 12.9606L9.00011 9.63881L12.3219 12.9606C12.5867 13.2254 13.0159 13.2254 13.2807 12.9606C13.5455 12.6958 13.5455 12.2666 13.2807 12.0018L9.95891 8.68001L13.2807 5.35821Z" fill="#055C48"/>
</svg>
