<svg width="15" height="14" viewBox="0 0 15 14" fill="none" xmlns="http://www.w3.org/2000/svg">
<path d="M12.6566 10.4865L5.77641 3.88322C5.30141 3.42733 4.53085 3.42689 4.05533 3.88224C3.57981 4.33759 3.57939 5.0763 4.0544 5.53218L10.9346 12.1354C11.4096 12.5913 12.1802 12.5918 12.6557 12.1364C13.1312 11.6811 13.1316 10.9424 12.6566 10.4865Z" fill="#32BC9B"/>
<path d="M10.0747 3.05686L8.35342 1.40717C7.87811 0.951636 7.10757 0.951745 6.63239 1.40742C6.1572 1.86309 6.15731 2.60177 6.63262 3.05731L8.35393 4.70699C8.82924 5.16253 9.59977 5.16242 10.075 4.70675C10.5501 4.25108 10.55 3.5124 10.0747 3.05686Z" fill="#32BC9B"/>
<path d="M4.91389 8.00777L3.19147 6.3593C2.71584 5.90409 1.94468 5.90409 1.46905 6.3593C0.993411 6.81451 0.993411 7.55255 1.46905 8.00777L3.19147 9.65623C3.6671 10.1114 4.43826 10.1114 4.91389 9.65624C5.38953 9.20102 5.38953 8.46298 4.91389 8.00777Z" fill="#32BC9B"/>
</svg>
