<svg id="Calque_1" data-name="Calque 1" xmlns="http://www.w3.org/2000/svg" viewBox="0 0 20 20"><defs><style>.cls-1{fill:#020a26;fill-rule:evenodd;}</style></defs><path class="cls-1" d="M10.26,2A5.83,5.83,0,0,0,6,3.85,6.55,6.55,0,0,0,4.26,8.36c0,2.48,1.53,4.91,3.24,6.8a23.73,23.73,0,0,0,2.31,2.22l.45.37.45-.37A23.73,23.73,0,0,0,13,15.16c1.7-1.89,3.24-4.32,3.24-6.8a6.56,6.56,0,0,0-1.78-4.51A5.82,5.82,0,0,0,10.26,2Zm0,17-.58.82h0l-.07-.05-.24-.18c-.2-.15-.49-.37-.83-.66A25.34,25.34,0,0,1,6,16.5c-1.8-2-3.76-4.89-3.76-8.14A8.56,8.56,0,0,1,4.58,2.47a7.75,7.75,0,0,1,11.35,0,8.53,8.53,0,0,1,2.33,5.89c0,3.25-2,6.15-3.76,8.14A24.25,24.25,0,0,1,12,18.91c-.34.29-.62.51-.83.66l-.23.18-.07.05h0Zm0,0,.57.82a1,1,0,0,1-1.15,0Z"/><path class="cls-1" d="M10.26,6a2,2,0,1,0,2,2A2,2,0,0,0,10.26,6Zm-4,2a4,4,0,1,1,4,4A4,4,0,0,1,6.26,8Z"/></svg>