<svg width="25" height="24" viewBox="0 0 25 24" fill="none" xmlns="http://www.w3.org/2000/svg">
<path fill-rule="evenodd" clip-rule="evenodd" d="M12.5 10C11.3954 10 10.5 10.8954 10.5 12C10.5 13.1046 11.3954 14 12.5 14C13.6046 14 14.5 13.1046 14.5 12C14.5 10.8954 13.6046 10 12.5 10ZM8.5 12C8.5 9.79086 10.2909 8 12.5 8C14.7091 8 16.5 9.79086 16.5 12C16.5 14.2091 14.7091 16 12.5 16C10.2909 16 8.5 14.2091 8.5 12Z" fill="#32BC9B"/>
<path fill-rule="evenodd" clip-rule="evenodd" d="M9.22995 4.54104C9.22995 3.13766 10.3676 2 11.771 2H13.2296C14.633 2 15.7707 3.13766 15.7707 4.54104C15.7707 4.74442 15.9109 5.01577 16.2461 5.19782C16.3493 5.25384 16.451 5.31209 16.5513 5.37252C16.8856 5.57406 17.1994 5.56113 17.3837 5.45569C18.6075 4.75547 20.167 5.17332 20.8767 6.39162L21.5812 7.60076C22.2923 8.8214 21.8726 10.3877 20.6465 11.0892C20.4687 11.1909 20.3015 11.4496 20.3097 11.8346C20.3108 11.8896 20.3114 11.9448 20.3114 12C20.3114 12.0552 20.3108 12.1104 20.3097 12.1654C20.3015 12.5504 20.4687 12.8091 20.6464 12.9108C21.8726 13.6123 22.2922 15.1786 21.5811 16.3992L20.8767 17.6084C20.1669 18.8267 18.6074 19.2445 17.3837 18.5443C17.1994 18.4389 16.8856 18.4259 16.5513 18.6275C16.451 18.6879 16.3493 18.7462 16.2461 18.8022C15.9109 18.9842 15.7707 19.2556 15.7707 19.459C15.7707 20.8623 14.633 22 13.2296 22H11.771C10.3676 22 9.22995 20.8623 9.22995 19.459C9.22995 19.2556 9.08969 18.9842 8.75449 18.8022C8.65134 18.7462 8.54961 18.6879 8.44937 18.6275C8.11506 18.4259 7.80123 18.4389 7.61697 18.5443C6.39318 19.2445 4.83369 18.8267 4.12394 17.6084L3.4195 16.3992C2.7084 15.1786 3.12806 13.6123 4.35419 12.9108C4.53196 12.8091 4.6991 12.5504 4.69095 12.1654C4.68979 12.1104 4.68921 12.0553 4.68921 12C4.68921 11.9448 4.68979 11.8896 4.69095 11.8346C4.6991 11.4497 4.53195 11.191 4.35417 11.0892C3.12802 10.3877 2.70836 8.82141 3.41948 7.60077L4.1239 6.39163C4.83365 5.17333 6.39314 4.75548 7.61694 5.4557C7.80121 5.56113 8.11504 5.57407 8.44936 5.37253C8.5496 5.3121 8.65133 5.25384 8.75449 5.19782C9.08969 5.01577 9.22995 4.74442 9.22995 4.54104ZM11.771 4C11.4722 4 11.2299 4.24223 11.2299 4.54104C11.2299 5.64708 10.5245 6.51246 9.709 6.95535C9.63224 6.99703 9.55653 7.04039 9.48192 7.08537C8.68645 7.5649 7.58444 7.74134 6.62369 7.19163C6.35333 7.03694 6.00882 7.12925 5.85202 7.39839L5.1476 8.60754C4.99558 8.86848 5.08529 9.20332 5.34742 9.3533C6.30973 9.90391 6.71014 10.9487 6.69051 11.8769C6.68964 11.9178 6.68921 11.9589 6.68921 12C6.68921 12.0412 6.68964 12.0822 6.69051 12.1231C6.71014 13.0513 6.30974 14.0961 5.34744 14.6467C5.08533 14.7967 4.99562 15.1315 5.14763 15.3924L5.85207 16.6016C6.00886 16.8708 6.35337 16.9631 6.62372 16.8084C7.58446 16.2587 8.68646 16.4351 9.48192 16.9146C9.55654 16.9596 9.63224 17.003 9.709 17.0447C10.5245 17.4875 11.2299 18.3529 11.2299 19.459C11.2299 19.7578 11.4722 20 11.771 20H13.2296C13.5285 20 13.7707 19.7578 13.7707 19.459C13.7707 18.3529 14.4762 17.4875 15.2916 17.0447C15.3684 17.003 15.4441 16.9596 15.5187 16.9146C16.3142 16.4351 17.4162 16.2587 18.3769 16.8084C18.6473 16.9631 18.9918 16.8708 19.1486 16.6016L19.853 15.3924C20.005 15.1315 19.9153 14.7967 19.6532 14.6467C18.6909 14.0961 18.2905 13.0513 18.3101 12.1231C18.311 12.0822 18.3114 12.0412 18.3114 12C18.3114 11.9589 18.311 11.9178 18.3101 11.8769C18.2905 10.9487 18.6909 9.9039 19.6532 9.35329C19.9153 9.20331 20.0051 8.86848 19.853 8.60753L19.1486 7.39839C18.9918 7.12924 18.6473 7.03693 18.3769 7.19162C17.4162 7.74134 16.3142 7.5649 15.5187 7.08536C15.4441 7.04039 15.3684 6.99703 15.2916 6.95535C14.4762 6.51246 13.7707 5.64708 13.7707 4.54104C13.7707 4.24223 13.5285 4 13.2296 4H11.771Z" fill="#32BC9B"/>
</svg>
