<svg width="15" height="14" viewBox="0 0 15 14" fill="none" xmlns="http://www.w3.org/2000/svg">
<path d="M2.70313 6.42818V9.32734C2.70313 10.389 2.70312 10.389 3.70646 11.0657L6.46562 12.6582C6.87979 12.8973 7.55646 12.8973 7.97062 12.6582L10.7298 11.0657C11.7331 10.389 11.7331 10.389 11.7331 9.32734V6.42818C11.7331 5.36651 11.7331 5.36651 10.7298 4.68984L7.97062 3.09734C7.55646 2.85818 6.87979 2.85818 6.46562 3.09734L3.70646 4.68984C2.70312 5.36651 2.70313 5.36651 2.70313 6.42818Z" stroke="#32BC9B" stroke-linecap="round" stroke-linejoin="round"/>
<path d="M10.4264 4.45067V2.9165C10.4264 1.74984 9.8431 1.1665 8.67643 1.1665H5.75977C4.5931 1.1665 4.00977 1.74984 4.00977 2.9165V4.40984" stroke="#32BC9B" stroke-linecap="round" stroke-linejoin="round"/>
<path d="M7.58726 6.41081L7.91976 6.92998C7.97226 7.01164 8.08893 7.09331 8.17643 7.11664L8.77143 7.26831C9.13893 7.36164 9.2381 7.67664 8.99893 7.96831L8.6081 8.44081C8.54976 8.51664 8.5031 8.65081 8.50893 8.74414L8.54393 9.35664C8.56726 9.73581 8.29893 9.92831 7.94893 9.78831L7.37726 9.56081C7.28976 9.52581 7.14393 9.52581 7.05643 9.56081L6.48476 9.78831C6.13476 9.92831 5.86643 9.72998 5.88976 9.35664L5.92476 8.74414C5.93059 8.65081 5.88393 8.51081 5.82559 8.44081L5.43476 7.96831C5.19559 7.67664 5.29476 7.36164 5.66226 7.26831L6.25726 7.11664C6.3506 7.09331 6.46726 7.00581 6.51393 6.92998L6.84643 6.41081C7.05643 6.09581 7.3831 6.09581 7.58726 6.41081Z" stroke="#32BC9B" stroke-linecap="round" stroke-linejoin="round"/>
</svg>
