<svg width="15" height="14" viewBox="0 0 15 14" fill="none" xmlns="http://www.w3.org/2000/svg">
<path d="M5.4681 12.8334H8.9681C11.8848 12.8334 13.0514 11.6667 13.0514 8.75008V5.25008C13.0514 2.33341 11.8848 1.16675 8.9681 1.16675H5.4681C2.55143 1.16675 1.38477 2.33341 1.38477 5.25008V8.75008C1.38477 11.6667 2.55143 12.8334 5.4681 12.8334Z" stroke="#32BC9B" stroke-linecap="round" stroke-linejoin="round"/>
<path d="M10.1361 1.4231V7.24476C10.1361 8.39393 9.31357 8.8431 8.3044 8.23643L7.5344 7.7756C7.3594 7.6706 7.0794 7.6706 6.9044 7.7756L6.1344 8.23643C5.12523 8.83726 4.30273 8.39393 4.30273 7.24476V1.4231" stroke="#32BC9B" stroke-linecap="round" stroke-linejoin="round"/>
<path d="M5.4681 12.8334H8.9681C11.8848 12.8334 13.0514 11.6667 13.0514 8.75008V5.25008C13.0514 2.33341 11.8848 1.16675 8.9681 1.16675H5.4681C2.55143 1.16675 1.38477 2.33341 1.38477 5.25008V8.75008C1.38477 11.6667 2.55143 12.8334 5.4681 12.8334Z" stroke="#32BC9B" stroke-linecap="round" stroke-linejoin="round"/>
<path d="M10.1361 1.4231V7.24476C10.1361 8.39393 9.31357 8.8431 8.3044 8.23643L7.5344 7.7756C7.3594 7.6706 7.0794 7.6706 6.9044 7.7756L6.1344 8.23643C5.12523 8.83726 4.30273 8.39393 4.30273 7.24476V1.4231" stroke="#32BC9B" stroke-linecap="round" stroke-linejoin="round"/>
</svg>
