<svg width="16" height="16" viewBox="0 0 16 16" fill="none" xmlns="http://www.w3.org/2000/svg">
<path d="M5.33398 1.33325V3.33325" stroke="#32BC9B" stroke-miterlimit="10" stroke-linecap="round" stroke-linejoin="round"/>
<path d="M10.666 1.33325V3.33325" stroke="#32BC9B" stroke-miterlimit="10" stroke-linecap="round" stroke-linejoin="round"/>
<path d="M2.33398 6.06006H13.6673" stroke="#32BC9B" stroke-miterlimit="10" stroke-linecap="round" stroke-linejoin="round"/>
<path d="M12.806 10.5134L10.446 12.8734C10.3527 12.9667 10.266 13.14 10.246 13.2667L10.1194 14.1667C10.0727 14.4934 10.2994 14.72 10.626 14.6734L11.526 14.5467C11.6527 14.5267 11.8327 14.44 11.9194 14.3467L14.2794 11.9867C14.686 11.58 14.8794 11.1067 14.2794 10.5067C13.686 9.91337 13.2127 10.1067 12.806 10.5134Z" stroke="#32BC9B" stroke-miterlimit="10" stroke-linecap="round" stroke-linejoin="round"/>
<path d="M12.4668 10.8533C12.6668 11.5733 13.2268 12.1333 13.9468 12.3333" stroke="#32BC9B" stroke-miterlimit="10" stroke-linecap="round" stroke-linejoin="round"/>
<path d="M8 14.6666H5.33333C3 14.6666 2 13.3333 2 11.3333V5.66659C2 3.66659 3 2.33325 5.33333 2.33325H10.6667C13 2.33325 14 3.66659 14 5.66659V7.99992" stroke="#32BC9B" stroke-miterlimit="10" stroke-linecap="round" stroke-linejoin="round"/>
<path d="M7.99764 9.13338H8.00363" stroke="#32BC9B" stroke-linecap="round" stroke-linejoin="round"/>
<path d="M5.52889 9.13338H5.53488" stroke="#32BC9B" stroke-linecap="round" stroke-linejoin="round"/>
<path d="M5.52889 11.1334H5.53488" stroke="#32BC9B" stroke-linecap="round" stroke-linejoin="round"/>
</svg>
