<svg width="12" height="12" viewBox="0 0 12 12" fill="none" xmlns="http://www.w3.org/2000/svg">
<path fill-rule="evenodd" clip-rule="evenodd" d="M2.53166 0.477173C4.14379 -0.0605481 5.7729 0.949289 6.22541 2.58425C6.53375 3.69835 6.24173 4.86656 5.52965 5.66649C5.67549 5.85537 5.83485 6.03698 6.00785 6.21011C6.18001 6.3824 6.36052 6.54116 6.54822 6.68651C7.34787 5.9688 8.5196 5.6735 9.63692 5.98319C11.2716 6.43629 12.2795 8.06665 11.7426 9.67871C11.3904 10.7364 10.7335 11.3791 9.85749 11.5906C9.0435 11.7872 8.16584 11.5782 7.39177 11.2564C5.83272 10.6083 4.29327 9.33175 3.5902 8.62816C2.87053 7.90795 1.59946 6.36627 0.957246 4.81017C0.638335 4.03744 0.432994 3.16304 0.630004 2.35278C0.841959 1.48105 1.48133 0.827489 2.53166 0.477173ZM4.94038 2.93991C4.66525 1.94585 3.7511 1.47598 2.95355 1.742C2.25248 1.97583 2.00932 2.32342 1.92559 2.66779C1.82691 3.07363 1.91272 3.63028 2.18974 4.30151C2.73939 5.63331 3.87931 7.03116 4.53336 7.6857C5.17158 8.3244 6.56795 9.47002 7.90357 10.0252C8.57683 10.3051 9.13623 10.3931 9.54453 10.2945C9.8908 10.2109 10.2415 9.96633 10.4776 9.2574C10.7439 8.45797 10.2732 7.54317 9.28078 7.26808C8.54218 7.06336 7.78283 7.30055 7.33089 7.78455C7.03906 8.09709 6.48277 8.27527 6.00948 7.9449C5.67646 7.71245 5.3602 7.4483 5.06469 7.15256C4.76871 6.85637 4.50445 6.53934 4.27196 6.20558C3.94368 5.7343 4.11884 5.18018 4.42912 4.88766C4.90954 4.43474 5.14439 3.67703 4.94038 2.93991Z" fill="#32BC9B"/>
</svg>
