<svg xmlns="http://www.w3.org/2000/svg" width="13.334" height="13.334" viewBox="0 0 13.334 13.334">
  <g id="Group_1092" data-name="Group 1092" transform="translate(20907 9166)">
    <path id="Rectangle_13_Stroke_" data-name="Rectangle 13 (Stroke)" d="M3.11,1.667A1.333,1.333,0,0,0,1.777,3v8A1.333,1.333,0,0,0,3.11,12.333h8A1.333,1.333,0,0,0,12.443,11V5A1.333,1.333,0,0,0,11.11,3.667H7.777a2,2,0,0,1-1.6-.8l-.7-.933a.667.667,0,0,0-.533-.267ZM.443,3A2.667,2.667,0,0,1,3.11.333H4.943a2,2,0,0,1,1.6.8l.7.933a.667.667,0,0,0,.533.267H11.11A2.667,2.667,0,0,1,13.777,5v6a2.667,2.667,0,0,1-2.667,2.667h-8A2.667,2.667,0,0,1,.443,11Z" transform="translate(-20907.443 -9166.333)" fill="#32bc9b" fill-rule="evenodd"/>
    <path id="Vector_Stroke_" data-name="Vector (Stroke)" d="M5.566.514a.667.667,0,0,1,.03.942L3.1,4.123a.667.667,0,0,1-.905.063L.691,2.973a.667.667,0,1,1,.838-1.037l1.018.823L4.624.544A.667.667,0,0,1,5.566.514Z" transform="translate(-20903.443 -9161.333)" fill="#32bc9b" fill-rule="evenodd"/>
  </g>
</svg>
