<svg width="16" height="16" viewBox="0 0 16 16" fill="none" xmlns="http://www.w3.org/2000/svg">
<path fill-rule="evenodd" clip-rule="evenodd" d="M2.66602 3.99992C2.66602 2.52716 3.85992 1.33325 5.33268 1.33325H10.666C12.1388 1.33325 13.3327 2.52716 13.3327 3.99992V11.9999C13.3327 13.4727 12.1388 14.6666 10.666 14.6666H5.33268C3.85992 14.6666 2.66602 13.4727 2.66602 11.9999V3.99992ZM5.33268 2.66659C4.5963 2.66659 3.99935 3.26354 3.99935 3.99992V11.9999C3.99935 12.7363 4.5963 13.3333 5.33268 13.3333H10.666C11.4024 13.3333 11.9993 12.7363 11.9993 11.9999V3.99992C11.9993 3.26354 11.4024 2.66659 10.666 2.66659H5.33268Z" fill="#32BC9B"/>
<path fill-rule="evenodd" clip-rule="evenodd" d="M5.33203 1.33325H6.42704C7.03355 1.33325 7.60094 1.59074 7.9987 2.02505C8.39646 1.59074 8.96385 1.33325 9.57035 1.33325H10.6654V2.66659H9.57035C9.26823 2.66659 8.99204 2.83728 8.85693 3.10751C8.50332 3.81473 7.49408 3.81473 7.14047 3.10751C7.00536 2.83728 6.72916 2.66659 6.42704 2.66659H5.33203V1.33325Z" fill="#32BC9B"/>
</svg>
