<svg width="17" height="16" viewBox="0 0 17 16" fill="none" xmlns="http://www.w3.org/2000/svg">
<path d="M12.1094 12.5734H11.6027C11.0694 12.5734 10.5627 12.7801 10.1894 13.1534L9.04936 14.2801C8.52936 14.7934 7.68272 14.7934 7.16272 14.2801L6.02271 13.1534C5.64937 12.7801 5.13604 12.5734 4.60938 12.5734H4.10938C3.00271 12.5734 2.10938 11.6868 2.10938 10.5934V3.32007C2.10938 2.22674 3.00271 1.34009 4.10938 1.34009H12.1094C13.216 1.34009 14.1094 2.22674 14.1094 3.32007V10.5934C14.1094 11.6801 13.216 12.5734 12.1094 12.5734Z" stroke="#32BC9B" stroke-width="1.5" stroke-miterlimit="10" stroke-linecap="round" stroke-linejoin="round"/>
<path d="M8.10999 6.66671C8.96787 6.66671 9.66333 5.97124 9.66333 5.11336C9.66333 4.25548 8.96787 3.56006 8.10999 3.56006C7.2521 3.56006 6.55664 4.25548 6.55664 5.11336C6.55664 5.97124 7.2521 6.66671 8.10999 6.66671Z" stroke="#32BC9B" stroke-width="1.25" stroke-linecap="round" stroke-linejoin="round"/>
<path d="M10.7767 10.4401C10.7767 9.24014 9.58336 8.26685 8.11003 8.26685C6.63669 8.26685 5.44336 9.24014 5.44336 10.4401" stroke="#32BC9B" stroke-width="1.25" stroke-linecap="round" stroke-linejoin="round"/>
</svg>
