<svg width="16" height="16" viewBox="0 0 16 16" fill="none" xmlns="http://www.w3.org/2000/svg">
<path d="M8 0C6.41775 0 4.87103 0.469192 3.55544 1.34824C2.23985 2.22729 1.21447 3.47672 0.608967 4.93853C0.0034663 6.40034 -0.15496 8.00887 0.153721 9.56072C0.462403 11.1126 1.22433 12.538 2.34315 13.6569C3.46197 14.7757 4.88743 15.5376 6.43928 15.8463C7.99113 16.155 9.59966 15.9965 11.0615 15.391C12.5233 14.7855 13.7727 13.7602 14.6518 12.4446C15.5308 11.129 16 9.58225 16 8C16 5.87827 15.1571 3.84344 13.6569 2.34315C12.1566 0.842855 10.1217 0 8 0ZM8 14.5455C6.70543 14.5455 5.43994 14.1616 4.36354 13.4423C3.28715 12.7231 2.4482 11.7009 1.95279 10.5048C1.45738 9.30881 1.32776 7.99274 1.58032 6.72304C1.83288 5.45335 2.45627 4.28706 3.37167 3.37166C4.28707 2.45627 5.45335 1.83287 6.72305 1.58031C7.99274 1.32776 9.30881 1.45738 10.5048 1.95279C11.7009 2.4482 12.7231 3.28715 13.4423 4.36354C14.1616 5.43993 14.5455 6.70543 14.5455 8C14.5455 9.73596 13.8558 11.4008 12.6283 12.6283C11.4008 13.8558 9.73596 14.5455 8 14.5455ZM8.42909 4.85091C8.80248 4.86044 9.16865 4.95595 9.49912 5.13002C9.8296 5.30408 10.1155 5.55202 10.3345 5.85454C10.4514 6.00773 10.6242 6.10831 10.8151 6.13422C11.0059 6.16012 11.1993 6.10924 11.3527 5.99273C11.4291 5.9343 11.4931 5.86131 11.541 5.77799C11.589 5.69467 11.6199 5.60267 11.6321 5.50731C11.6443 5.41195 11.6374 5.31512 11.6119 5.22243C11.5865 5.12973 11.5428 5.04301 11.4836 4.96727C11.1298 4.48792 10.6701 4.09676 10.1402 3.82428C9.61041 3.55179 9.02481 3.40535 8.42909 3.39636C7.59624 3.4206 6.79113 3.70106 6.12347 4.19952C5.45582 4.69799 4.95811 5.3902 4.69818 6.18182H3.63637C3.44348 6.18182 3.2585 6.25844 3.12211 6.39483C2.98572 6.53122 2.90909 6.71621 2.90909 6.90909C2.90909 7.10197 2.98572 7.28696 3.12211 7.42335C3.2585 7.55974 3.44348 7.63636 3.63637 7.63636H4.36364V8.36364H3.63637C3.44348 8.36364 3.2585 8.44026 3.12211 8.57665C2.98572 8.71304 2.90909 8.89802 2.90909 9.09091C2.90909 9.28379 2.98572 9.46878 3.12211 9.60517C3.2585 9.74156 3.44348 9.81818 3.63637 9.81818H4.69818C4.95811 10.6098 5.45582 11.302 6.12347 11.8005C6.79113 12.2989 7.59624 12.5794 8.42909 12.6036C9.02481 12.5946 9.61041 12.4482 10.1402 12.1757C10.6701 11.9032 11.1298 11.5121 11.4836 11.0327C11.5619 10.96 11.6231 10.8709 11.6631 10.7719C11.703 10.6728 11.7206 10.5662 11.7147 10.4595C11.7087 10.3529 11.6793 10.2488 11.6286 10.1548C11.5779 10.0608 11.5072 9.97911 11.4213 9.91555C11.3355 9.85198 11.2367 9.8081 11.132 9.78703C11.0273 9.76596 10.9192 9.76822 10.8154 9.79364C10.7117 9.81906 10.6148 9.86701 10.5317 9.9341C10.4486 10.0012 10.3813 10.0858 10.3345 10.1818C10.1155 10.4843 9.8296 10.7323 9.49912 10.9063C9.16865 11.0804 8.80248 11.1759 8.42909 11.1855C7.98528 11.1679 7.55426 11.0319 7.18081 10.7914C6.80736 10.551 6.50511 10.2149 6.30546 9.81818H8C8.19289 9.81818 8.37787 9.74156 8.51426 9.60517C8.65065 9.46878 8.72727 9.28379 8.72727 9.09091C8.72727 8.89802 8.65065 8.71304 8.51426 8.57665C8.37787 8.44026 8.19289 8.36364 8 8.36364H5.85455C5.83523 8.24325 5.82309 8.12182 5.81818 8C5.82309 7.87817 5.83523 7.75675 5.85455 7.63636H8C8.19289 7.63636 8.37787 7.55974 8.51426 7.42335C8.65065 7.28696 8.72727 7.10197 8.72727 6.90909C8.72727 6.71621 8.65065 6.53122 8.51426 6.39483C8.37787 6.25844 8.19289 6.18182 8 6.18182H6.30546C6.50994 5.79186 6.81429 5.46317 7.18739 5.22934C7.5605 4.99551 7.98899 4.86492 8.42909 4.85091Z" fill="#32BC9B"/>
</svg>
