<svg width="16" height="16" viewBox="0 0 16 16" fill="none" xmlns="http://www.w3.org/2000/svg">
<path fill-rule="evenodd" clip-rule="evenodd" d="M8 3.33333C5.42267 3.33333 3.33333 5.42267 3.33333 8C3.33333 10.5773 5.42267 12.6667 8 12.6667C10.5773 12.6667 12.6667 10.5773 12.6667 8H14C14 11.3137 11.3137 14 8 14C4.68629 14 2 11.3137 2 8C2 4.68629 4.68629 2 8 2V3.33333Z" fill="#32BC9B"/>
<path fill-rule="evenodd" clip-rule="evenodd" d="M7.33398 2.66667C7.33398 1.95296 7.92906 1.28399 8.73987 1.37445C9.36157 1.44382 9.97166 1.60048 10.5519 1.84081C11.3607 2.17584 12.0956 2.6669 12.7147 3.28596C13.3338 3.90502 13.8248 4.63995 14.1598 5.44878C14.4002 6.029 14.5568 6.63909 14.6262 7.26079C14.7167 8.0716 14.0477 8.66667 13.334 8.66667L8.66732 8.66667C7.93094 8.66667 7.33398 8.06972 7.33398 7.33334L7.33398 2.66667ZM8.66732 2.7085V7.33334L13.2922 7.33334C13.2328 6.86203 13.1106 6.39975 12.928 5.95903C12.66 5.31196 12.2671 4.72402 11.7719 4.22877C11.2766 3.73353 10.6887 3.34067 10.0416 3.07265C9.60091 2.8901 9.13863 2.76788 8.66732 2.7085Z" fill="#32BC9B"/>
</svg>
