<svg width="16" height="16" viewBox="0 0 16 16" fill="none" xmlns="http://www.w3.org/2000/svg">
<path d="M14.6673 6.00017V10.0002C14.6673 11.6668 14.334 12.8335 13.5873 13.5868L9.33398 9.33351L14.4873 4.18018C14.6073 4.70684 14.6673 5.30684 14.6673 6.00017Z" stroke="#32BC9B" stroke-width="1.5" stroke-linecap="round" stroke-linejoin="round"/>
<path d="M14.4873 4.17992L4.18064 14.4866C2.17398 14.0266 1.33398 12.6399 1.33398 9.99992V5.99992C1.33398 2.66659 2.66732 1.33325 6.00065 1.33325H10.0007C12.6407 1.33325 14.0273 2.17325 14.4873 4.17992Z" stroke="#32BC9B" stroke-width="1.5" stroke-linecap="round" stroke-linejoin="round"/>
<path d="M13.5864 13.5866C12.833 14.3333 11.6664 14.6666 9.99969 14.6666H5.99969C5.30636 14.6666 4.70635 14.6066 4.17969 14.4866L9.33303 9.33325L13.5864 13.5866Z" stroke="#32BC9B" stroke-width="1.5" stroke-linecap="round" stroke-linejoin="round"/>
<path d="M4.16018 5.31998C4.61351 3.36665 7.54685 3.36665 8.00018 5.31998C8.26018 6.46665 7.54017 7.43998 6.90684 8.03998C6.44684 8.47998 5.72018 8.47998 5.25352 8.03998C4.62018 7.43998 3.89351 6.46665 4.16018 5.31998Z" stroke="#32BC9B" stroke-width="1.5"/>
<path d="M6.06405 5.79989H6.07003" stroke="#32BC9B" stroke-width="2" stroke-linecap="round" stroke-linejoin="round"/>
</svg>
