<svg width="12" height="14" viewBox="0 0 12 14" fill="none" xmlns="http://www.w3.org/2000/svg">
<path fill-rule="evenodd" clip-rule="evenodd" d="M6.51062 1.7457C6.39092 1.7115 6.26403 1.7115 6.14433 1.7457L2.81099 2.69808C2.52479 2.77986 2.32747 3.04145 2.32747 3.3391V6.92207C2.32747 8.42917 3.05531 9.84351 4.2817 10.7195L5.93998 11.904C6.17178 12.0696 6.48317 12.0696 6.71497 11.904L8.37325 10.7195C9.59963 9.84351 10.3275 8.42917 10.3275 6.92207V3.3391C10.3275 3.04145 10.1302 2.77986 9.84395 2.69808L6.51062 1.7457ZM5.77803 0.463671C6.13714 0.361068 6.51781 0.361068 6.87692 0.463671L10.2102 1.41605C11.0689 1.66137 11.6608 2.44614 11.6608 3.3391V6.92207C11.6608 8.85978 10.725 10.6782 9.14824 11.8045L7.48995 12.989C6.79455 13.4857 5.86039 13.4857 5.165 12.989L3.50671 11.8045C1.92993 10.6782 0.994141 8.85978 0.994141 6.92207V3.3391C0.994141 2.44614 1.58609 1.66137 2.4447 1.41605L5.77803 0.463671Z" fill="#32BC9B"/>
<path fill-rule="evenodd" clip-rule="evenodd" d="M8.78343 4.51366C9.05204 4.76549 9.06565 5.18738 8.81383 5.45598L6.31383 8.12265C6.075 8.3774 5.68006 8.40469 5.40846 8.18522L3.90846 6.9731C3.62208 6.74168 3.57753 6.32193 3.80894 6.03556C4.04036 5.74918 4.46011 5.70463 4.74649 5.93604L5.76473 6.75887L7.84111 4.54406C8.09293 4.27545 8.51482 4.26184 8.78343 4.51366Z" fill="#32BC9B"/>
</svg>
