<svg width="17" height="16" viewBox="0 0 17 16" fill="none" xmlns="http://www.w3.org/2000/svg">
<path fill-rule="evenodd" clip-rule="evenodd" d="M8.43685 2.66659C7.33228 2.66659 6.43685 3.56202 6.43685 4.66658C6.43685 5.77115 7.33228 6.66658 8.43685 6.66658C9.54142 6.66658 10.4368 5.77115 10.4368 4.66658C10.4368 3.56202 9.54142 2.66659 8.43685 2.66659ZM5.10352 4.66658C5.10352 2.82564 6.5959 1.33325 8.43685 1.33325C10.2778 1.33325 11.7702 2.82564 11.7702 4.66658C11.7702 6.50753 10.2778 7.99992 8.43685 7.99992C6.5959 7.99992 5.10352 6.50753 5.10352 4.66658Z" fill="#32BC9B"/>
<path fill-rule="evenodd" clip-rule="evenodd" d="M8.4381 13.3334C6.48552 13.3334 5.32784 12.7427 4.66168 11.9806C4.4587 11.7484 4.4058 11.5443 4.41194 11.3768C4.41848 11.1982 4.49572 10.9914 4.66957 10.7795C5.02669 10.3444 5.70564 10.0001 6.4381 10.0001H10.4381C11.1705 10.0001 11.8495 10.3444 12.2066 10.7795C12.3805 10.9914 12.4577 11.1982 12.4643 11.3768C12.4704 11.5443 12.4175 11.7484 12.2145 11.9806C11.5483 12.7427 10.3907 13.3334 8.4381 13.3334ZM3.65782 12.8581C4.63953 13.9812 6.20694 14.6667 8.4381 14.6667C10.6693 14.6667 12.2367 13.9812 13.2184 12.8581C13.6212 12.3973 13.8165 11.8691 13.7967 11.328C13.7773 10.7982 13.5544 10.3201 13.2373 9.93371C12.6126 9.17243 11.5466 8.66675 10.4381 8.66675H6.4381C5.3296 8.66675 4.26358 9.17243 3.63886 9.93371C3.3218 10.3201 3.0989 10.7982 3.0795 11.328C3.05967 11.8691 3.255 12.3973 3.65782 12.8581Z" fill="#32BC9B"/>
</svg>
