<svg width="17" height="17" viewBox="0 0 17 17" fill="none" xmlns="http://www.w3.org/2000/svg">
<path d="M15.3314 7.22425L14.6781 10.0109C14.1181 12.4176 13.0114 13.3909 10.9314 13.1909C10.5981 13.1642 10.2381 13.1042 9.8514 13.0109L8.7314 12.7442C5.9514 12.0842 5.0914 10.7109 5.74473 7.92425L6.39806 5.13091C6.5314 4.56425 6.6914 4.07091 6.8914 3.66425C7.6714 2.05091 8.99806 1.61758 11.2247 2.14425L12.3381 2.40425C15.1314 3.05758 15.9847 4.43758 15.3314 7.22425Z" stroke="#32BC9B" stroke-width="1.5" stroke-linecap="round" stroke-linejoin="round"/>
<path d="M10.9309 13.191C10.5175 13.471 9.99752 13.7043 9.36419 13.911L8.31085 14.2576C5.66419 15.111 4.27085 14.3976 3.41085 11.751L2.55752 9.11764C1.70419 6.47097 2.41085 5.07097 5.05752 4.21764L6.11085 3.87097C6.38419 3.78431 6.64419 3.71097 6.89085 3.66431C6.69085 4.07097 6.53085 4.56431 6.39752 5.13097L5.74419 7.92431C5.09085 10.711 5.95085 12.0843 8.73085 12.7443L9.85085 13.011C10.2375 13.1043 10.5975 13.1643 10.9309 13.191Z" stroke="#32BC9B" stroke-width="1.5" stroke-linecap="round" stroke-linejoin="round"/>
<path d="M9.31836 5.95068L12.5517 6.77068" stroke="#32BC9B" stroke-width="1.5" stroke-linecap="round" stroke-linejoin="round"/>
<path d="M8.66406 8.53076L10.5974 9.0241" stroke="#32BC9B" stroke-width="1.5" stroke-linecap="round" stroke-linejoin="round"/>
</svg>
