<svg width="17" height="16" viewBox="0 0 17 16" fill="none" xmlns="http://www.w3.org/2000/svg">
<path d="M6.21706 7.24658C6.15039 7.23992 6.07039 7.23992 5.99706 7.24658C4.41039 7.19325 3.15039 5.89325 3.15039 4.29325C3.15039 2.65992 4.47039 1.33325 6.11039 1.33325C7.74372 1.33325 9.07039 2.65992 9.07039 4.29325C9.06372 5.89325 7.80372 7.19325 6.21706 7.24658Z" stroke="#32BC9B" stroke-width="1.5" stroke-linecap="round" stroke-linejoin="round"/>
<path d="M11.0496 2.66675C12.3429 2.66675 13.3829 3.71341 13.3829 5.00008C13.3829 6.26008 12.3829 7.28675 11.1362 7.33341C11.0829 7.32675 11.0229 7.32675 10.9629 7.33341" stroke="#32BC9B" stroke-width="1.5" stroke-linecap="round" stroke-linejoin="round"/>
<path d="M2.88187 9.70675C1.26854 10.7867 1.26854 12.5467 2.88187 13.6201C4.71521 14.8467 7.72188 14.8467 9.55521 13.6201C11.1685 12.5401 11.1685 10.7801 9.55521 9.70675C7.72854 8.48675 4.72187 8.48675 2.88187 9.70675Z" stroke="#32BC9B" stroke-width="1.5" stroke-linecap="round" stroke-linejoin="round"/>
<path d="M12.3359 13.3333C12.8159 13.2333 13.2693 13.0399 13.6426 12.7533C14.6826 11.9733 14.6826 10.6866 13.6426 9.90659C13.2759 9.62659 12.8293 9.43992 12.3559 9.33325" stroke="#32BC9B" stroke-width="1.5" stroke-linecap="round" stroke-linejoin="round"/>
</svg>
