<svg width="14" height="14" viewBox="0 0 14 14" fill="none" xmlns="http://www.w3.org/2000/svg">
<path d="M11.545 8.70902C10.3434 9.90486 8.62253 10.2724 7.11169 9.79986L4.36419 12.5415C4.16586 12.7457 3.77503 12.8682 3.49503 12.8274L2.22336 12.6524C1.80336 12.594 1.41253 12.1974 1.34836 11.7774L1.17336 10.5057C1.13253 10.2257 1.26669 9.83486 1.45919 9.63652L4.20086 6.89486C3.73419 5.37819 4.09586 3.65736 5.29753 2.46152C7.01836 0.74069 9.81253 0.74069 11.5392 2.46152C13.2659 4.18236 13.2659 6.98819 11.545 8.70902Z" stroke="#32BC9B" stroke-miterlimit="10" stroke-linecap="round" stroke-linejoin="round"/>
<path d="M4.01953 10.2024L5.3612 11.5441" stroke="#32BC9B" stroke-miterlimit="10" stroke-linecap="round" stroke-linejoin="round"/>
<path d="M8.45898 6.41675C8.94223 6.41675 9.33398 6.025 9.33398 5.54175C9.33398 5.0585 8.94223 4.66675 8.45898 4.66675C7.97574 4.66675 7.58398 5.0585 7.58398 5.54175C7.58398 6.025 7.97574 6.41675 8.45898 6.41675Z" stroke="#32BC9B" stroke-linecap="round" stroke-linejoin="round"/>
</svg>
