<svg width="15" height="14" viewBox="0 0 15 14" fill="none" xmlns="http://www.w3.org/2000/svg">
<path d="M6.08065 1.47567L2.56898 3.76817C1.44315 4.50317 1.44315 6.14817 2.56898 6.88317L6.08065 9.17567C6.71065 9.58984 7.74898 9.58984 8.37898 9.17567L11.8732 6.88317C12.9932 6.14817 12.9932 4.509 11.8732 3.774L8.37898 1.4815C7.74898 1.0615 6.71065 1.0615 6.08065 1.47567Z" stroke="#32BC9B" stroke-linecap="round" stroke-linejoin="round"/>
<path d="M3.50193 7.62988L3.49609 10.3657C3.49609 11.1066 4.06776 11.8999 4.76776 12.1332L6.62859 12.7516C6.94943 12.8566 7.48026 12.8566 7.80693 12.7516L9.66776 12.1332C10.3678 11.8999 10.9394 11.1066 10.9394 10.3657V7.65905" stroke="#32BC9B" stroke-linecap="round" stroke-linejoin="round"/>
<path d="M12.7012 8.75V5.25" stroke="#32BC9B" stroke-linecap="round" stroke-linejoin="round"/>
</svg>
